<?xml version="1.0" encoding="utf-8"?>
<!-- Generator: Adobe Illustrator 25.4.1, SVG Export Plug-In . SVG Version: 6.00 Build 0)  -->
<svg version="1.1" id="Layer_1" xmlns="http://www.w3.org/2000/svg" xmlns:xlink="http://www.w3.org/1999/xlink" x="0px" y="0px"
	 viewBox="0 0 10 10" style="enable-background:new 0 0 10 10;" xml:space="preserve">
<style type="text/css">
	.st0{fill:#F79420;}
</style>
<g>
	<path class="st0" d="M10,4.58c0-0.04,0-0.09-0.01-0.13C9.9,4.08,9.6,3.84,9.23,3.84c-2.82,0-5.64,0-8.45,0
		c-0.13,0-0.25,0.02-0.37,0.08C0.15,4.07,0,4.28,0,4.57C0,5.45,0,6.33,0,7.21c0,0.03,0,0.06,0.01,0.09
		c0.03,0.18,0.11,0.33,0.25,0.45c0.14,0.12,0.3,0.19,0.48,0.19c0.59,0,1.17,0,1.76,0c-0.03,0-0.05,0.02-0.07,0.04
		c-0.04,0.05-0.04,0.12,0,0.17c0.03,0.04,0.07,0.08,0.1,0.13C2.59,8.37,2.61,8.48,2.56,8.6C2.52,8.69,2.45,8.76,2.39,8.83
		C2.28,8.96,2.2,9.11,2.2,9.28c0,0.03,0,0.05,0,0.08c0.02,0.16,0.11,0.3,0.22,0.42C2.46,9.83,2.55,9.84,2.6,9.79
		c0.05-0.04,0.05-0.12,0-0.18C2.58,9.6,2.57,9.58,2.55,9.56C2.42,9.4,2.39,9.24,2.52,9.06C2.58,8.98,2.64,8.92,2.7,8.84
		c0.06-0.08,0.1-0.16,0.12-0.26c0.03-0.16,0-0.31-0.08-0.44C2.69,8.07,2.64,8.01,2.58,7.96C2.57,7.94,2.55,7.93,2.53,7.93
		c0.4,0,0.8,0,1.21,0c-0.03,0-0.05,0.01-0.07,0.03C3.63,8.01,3.62,8.08,3.66,8.13c0.03,0.04,0.07,0.08,0.1,0.12
		c0.09,0.12,0.1,0.28,0.02,0.4C3.72,8.72,3.66,8.79,3.6,8.87c-0.1,0.12-0.16,0.26-0.16,0.42c0,0.03,0,0.05,0,0.08
		c0.02,0.16,0.11,0.3,0.22,0.42c0.05,0.05,0.13,0.05,0.17,0.01c0.05-0.04,0.05-0.12,0-0.18C3.81,9.58,3.78,9.54,3.75,9.5
		c-0.1-0.15-0.09-0.29,0.01-0.43c0.04-0.05,0.08-0.1,0.12-0.14c0.09-0.1,0.16-0.21,0.18-0.34c0.05-0.25-0.05-0.45-0.22-0.63
		C3.82,7.94,3.8,7.93,3.78,7.93c0.4,0,0.8,0,1.21,0c-0.03,0-0.05,0.02-0.07,0.03c-0.05,0.05-0.05,0.12,0,0.17
		c0.02,0.03,0.05,0.05,0.07,0.08C5.09,8.37,5.12,8.51,5,8.68c-0.05,0.07-0.11,0.13-0.16,0.2C4.75,9,4.68,9.13,4.69,9.28
		c0,0.21,0.09,0.37,0.23,0.51c0.05,0.05,0.12,0.05,0.17,0c0.05-0.05,0.05-0.12,0-0.18C5.06,9.58,5.02,9.54,5,9.5
		C4.91,9.37,4.9,9.23,4.99,9.09c0.04-0.06,0.09-0.12,0.14-0.17c0.09-0.11,0.16-0.22,0.18-0.37c0.03-0.24-0.07-0.42-0.23-0.59
		C5.07,7.94,5.04,7.93,5.02,7.93c0.4,0,0.81,0,1.21,0c-0.03,0-0.05,0.01-0.07,0.03c-0.04,0.04-0.05,0.12,0,0.17
		C6.17,8.15,6.19,8.17,6.2,8.18C6.33,8.35,6.37,8.5,6.24,8.69C6.19,8.75,6.14,8.8,6.1,8.86C5.98,9.01,5.91,9.18,5.94,9.38
		c0.02,0.16,0.11,0.3,0.23,0.41c0.05,0.05,0.12,0.04,0.17,0c0.05-0.05,0.05-0.12,0-0.18C6.3,9.58,6.27,9.54,6.24,9.5
		C6.17,9.39,6.15,9.27,6.2,9.15c0.04-0.09,0.11-0.16,0.17-0.23c0.11-0.13,0.19-0.28,0.19-0.44c0-0.21-0.1-0.37-0.23-0.51
		C6.31,7.94,6.29,7.93,6.26,7.93c0.4,0,0.81,0,1.21,0c-0.03,0-0.05,0.02-0.07,0.04c-0.05,0.05-0.04,0.12,0,0.17
		c0.01,0.02,0.03,0.03,0.04,0.05C7.59,8.36,7.6,8.52,7.48,8.7C7.43,8.77,7.37,8.82,7.32,8.89C7.24,9,7.18,9.12,7.18,9.25
		C7.16,9.47,7.26,9.63,7.4,9.78c0.05,0.05,0.13,0.06,0.17,0.01c0.05-0.05,0.05-0.12,0-0.18c-0.03-0.03-0.06-0.07-0.08-0.1
		C7.39,9.36,7.39,9.21,7.5,9.06c0.04-0.05,0.08-0.1,0.12-0.15C7.73,8.78,7.8,8.64,7.8,8.49c0-0.22-0.09-0.38-0.23-0.52
		C7.56,7.94,7.53,7.93,7.51,7.93c0.59,0,1.18,0,1.77,0c0.03,0,0.06,0,0.09-0.01C9.54,7.89,9.7,7.81,9.82,7.67
		C9.93,7.54,10,7.38,10,7.21C10,6.33,10,5.45,10,4.58z M8.78,7.64c0,0.01,0,0.03,0,0.05c-0.02,0-0.04,0-0.06,0
		c-2.48,0-4.95,0-7.43,0c-0.01,0-0.02,0-0.02,0c-0.03,0-0.04-0.01-0.04-0.04c0-0.13,0-0.25,0-0.38c0-0.11,0-0.23,0-0.34
		c0-0.2,0.16-0.36,0.36-0.36c2.27,0,4.55,0,6.82,0c0.22,0,0.38,0.17,0.37,0.37C8.77,7.17,8.78,7.41,8.78,7.64z M9.76,7.2
		c0,0.21-0.16,0.41-0.37,0.47C9.27,7.7,9.15,7.68,9.02,7.69c0-0.02,0-0.04,0-0.06c0-0.23,0-0.46,0-0.7c0-0.24-0.11-0.43-0.32-0.55
		C8.63,6.35,8.56,6.33,8.48,6.33c-0.19,0-0.38-0.01-0.56-0.01c-2.1,0-4.2,0-6.31,0c-0.21,0-0.38,0.07-0.5,0.24
		C1.02,6.67,0.98,6.8,0.98,6.94c0,0.23,0,0.47,0,0.7c0,0.01,0,0.03,0,0.05c-0.16,0-0.32,0.03-0.46-0.06C0.35,7.54,0.25,7.4,0.25,7.2
		c0-0.87,0-1.75,0-2.62c0-0.17,0.08-0.31,0.23-0.41c0.09-0.06,0.19-0.09,0.3-0.09c2.83,0,5.65,0,8.48,0c0.28,0,0.5,0.24,0.5,0.5
		C9.75,5.46,9.76,6.33,9.76,7.2z"/>
	<path class="st0" d="M3.8,1.86c0.13,0.27,0.33,0.47,0.6,0.61c0.04,0.02,0.05,0.04,0.05,0.08c0,0.26,0,0.52,0,0.78
		c0,0.08,0.06,0.13,0.12,0.13c0.07,0,0.12-0.06,0.12-0.13c0-0.27,0-0.54,0-0.81c0-0.11-0.05-0.2-0.15-0.25
		C4.42,2.2,4.31,2.13,4.22,2.04C4,1.8,3.9,1.52,3.93,1.19c0.02-0.22,0.1-0.42,0.24-0.59C4.21,0.56,4.26,0.52,4.3,0.47
		c0,0.02,0,0.02,0,0.02c0,0.2,0,0.41,0,0.61c0,0.17,0.07,0.29,0.21,0.38c0.08,0.05,0.16,0.1,0.24,0.15c0.16,0.1,0.32,0.1,0.48,0.01
		C5.31,1.6,5.39,1.55,5.47,1.5C5.62,1.41,5.7,1.27,5.7,1.09c0-0.19,0-0.37,0-0.56c0-0.01,0-0.03,0-0.05
		c0.05,0.05,0.09,0.09,0.13,0.13c0.17,0.2,0.25,0.44,0.25,0.7c0,0.18-0.05,0.35-0.14,0.51C5.83,2.02,5.67,2.16,5.47,2.26
		C5.37,2.31,5.32,2.39,5.31,2.5c0,0.28,0,0.55,0,0.83c0,0.07,0.05,0.13,0.12,0.13c0.06,0,0.12-0.04,0.12-0.13c0-0.26,0-0.52,0-0.79
		c0-0.04,0.01-0.06,0.04-0.07C5.74,2.4,5.87,2.3,5.98,2.18c0.18-0.2,0.28-0.43,0.32-0.69C6.33,1.3,6.32,1.11,6.26,0.92
		C6.17,0.62,6,0.38,5.74,0.2C5.68,0.17,5.62,0.17,5.56,0.2c-0.06,0.03-0.1,0.08-0.1,0.16c0,0.24,0,0.49,0,0.73
		c0,0.09-0.03,0.16-0.11,0.21C5.27,1.33,5.2,1.38,5.14,1.42C5.06,1.47,4.99,1.49,4.91,1.44C4.82,1.4,4.74,1.34,4.66,1.29
		C4.58,1.24,4.54,1.17,4.54,1.08c0-0.24,0-0.48,0-0.72c0-0.01,0-0.03,0-0.04c-0.03-0.14-0.2-0.18-0.3-0.1
		C4.16,0.28,4.09,0.34,4.02,0.41C3.89,0.55,3.8,0.72,3.74,0.9c-0.05,0.16-0.07,0.33-0.06,0.5C3.7,1.56,3.74,1.71,3.8,1.86z"/>
	<path class="st0" d="M7.19,4.71c0.42,0,0.84,0,1.27,0c0.14,0,0.29,0,0.43,0c0.06,0,0.11-0.04,0.12-0.1
		c0.02-0.08-0.04-0.15-0.14-0.15c-1.11,0-2.22,0-3.33,0c-0.01,0-0.03,0-0.04,0c-0.05,0-0.1,0.03-0.12,0.08
		C5.34,4.63,5.41,4.71,5.51,4.71C6.07,4.71,6.63,4.71,7.19,4.71C7.19,4.71,7.19,4.71,7.19,4.71z"/>
	<path class="st0" d="M8.9,5.05c-0.5,0-1,0-1.5,0c-0.2,0-0.39,0-0.59,0c-0.04,0-0.08,0.01-0.1,0.05C6.68,5.14,6.68,5.18,6.7,5.22
		c0.02,0.05,0.06,0.06,0.11,0.06c0.35,0,0.69,0,1.04,0c0.35,0,0.69,0,1.04,0c0.01,0,0.03,0,0.04,0c0.05-0.01,0.09-0.07,0.09-0.12
		C9.01,5.09,8.96,5.05,8.9,5.05z"/>
	<path class="st0" d="M1.1,4.47c-0.26,0-0.45,0.19-0.45,0.45c0,0.26,0.2,0.45,0.45,0.45c0.25,0.01,0.44-0.21,0.45-0.43
		C1.55,4.67,1.35,4.47,1.1,4.47z M1.3,4.92c0,0.12-0.09,0.21-0.21,0.21c-0.12,0-0.2-0.1-0.2-0.21c0-0.11,0.09-0.21,0.21-0.21
		C1.21,4.71,1.31,4.81,1.3,4.92z"/>
	<path class="st0" d="M2.42,4.47c-0.26,0-0.44,0.21-0.45,0.43C1.96,5.17,2.18,5.38,2.42,5.37c0.25,0.01,0.44-0.2,0.45-0.42
		C2.88,4.67,2.67,4.47,2.42,4.47z M2.42,5.13c-0.12,0-0.21-0.09-0.21-0.21c0-0.12,0.09-0.2,0.21-0.21c0.12,0.01,0.2,0.09,0.21,0.21
		C2.63,5.03,2.54,5.13,2.42,5.13z"/>
	<path class="st0" d="M8.32,7.02C8.3,7.01,8.27,7.01,8.25,7.01c-1.08,0-2.16,0-3.24,0c-1.09,0-2.18,0-3.26,0
		c-0.07,0-0.1,0.02-0.12,0.08C1.6,7.14,1.61,7.19,1.66,7.22c0.03,0.02,0.07,0.03,0.1,0.03c2.16,0,4.31,0,6.47,0
		c0.02,0,0.04,0,0.06-0.01c0.04-0.01,0.09-0.05,0.09-0.09C8.39,7.09,8.37,7.04,8.32,7.02z"/>
</g>
</svg>
