<?xml version="1.0" encoding="utf-8"?>
<!-- Generator: Adobe Illustrator 25.4.1, SVG Export Plug-In . SVG Version: 6.00 Build 0)  -->
<svg version="1.1" id="Layer_1" xmlns="http://www.w3.org/2000/svg" xmlns:xlink="http://www.w3.org/1999/xlink" x="0px" y="0px"
	 viewBox="0 0 10 10" style="enable-background:new 0 0 10 10;" xml:space="preserve">
<style type="text/css">
	.st0{fill:#F79420;}
</style>
<g>
	<path class="st0" d="M1.44,9.25c-0.36,0-0.41-0.05-0.41-0.42c0-1.68,0-3.37,0-5.05c0-0.08,0.01-0.17,0.02-0.26
		c1.65,0,3.28,0,4.94,0c0.02,0.55,0.04,1.11,0.06,1.66C6.17,5.31,6.3,5.44,6.43,5.56c0-1.66,0.01-3.28,0-4.9
		C6.42,0.27,6.12,0,5.73,0C4.25,0,2.78,0,1.31,0C0.88,0,0.59,0.28,0.59,0.72c0,2.74,0,5.49,0,8.23c0,0.06-0.01,0.27,0.13,0.44
		c0.13,0.18,0.35,0.24,0.55,0.27c0.03,0.05,0.08,0.13,0.16,0.19c0.2,0.15,0.53,0.17,0.7,0c0.03-0.03,0.08-0.09,0.11-0.19
		c0.23,0,0.46,0,0.69,0c0-0.14,0-0.27,0-0.41C2.43,9.25,1.94,9.25,1.44,9.25z M1.03,1.69c0-0.28,0-0.55,0-0.83
		c0-0.37,0.06-0.44,0.43-0.44c1.27,0,2.54,0,3.81,0c0.14,0,0.3-0.03,0.43,0.01c0.11,0.03,0.27,0.14,0.27,0.22
		c0.02,0.8,0.01,1.6,0.01,2.41c-1.66,0-3.29,0-4.95,0C1.03,2.6,1.03,2.15,1.03,1.69z"/>
	<path class="st0" d="M5.73,7.89C5.76,7.84,5.8,7.8,5.84,7.78c0.09-0.05,0.19-0.09,0.31-0.14C6.06,7.53,6.01,7.47,5.96,7.4
		c0.29-0.33,0.59-0.66,0.88-1c0.42-0.48,0.84-0.96,1.25-1.44c0.09-0.04,0.2-0.1,0.31-0.19c0.21-0.18,0.32-0.39,0.36-0.51
		c-0.11-0.1-0.22-0.19-0.33-0.29C8.3,4.04,8.11,4.18,7.95,4.41C7.89,4.5,7.84,4.59,7.81,4.67C7.1,5.5,6.4,6.33,5.7,7.16
		C5.58,7.08,5.51,7.04,5.4,6.97c0,0.2-0.06,0.29-0.12,0.34C5.24,7.35,5.2,7.35,5.13,7.39C5.01,7.46,4.95,7.54,4.9,7.59
		C4.38,8.11,3.91,8.68,3.43,9.24C3.29,9.39,3.29,9.54,3.45,9.68c0.06,0.05,0.11,0.1,0.17,0.15c0.26,0.22,0.35,0.22,0.57-0.03
		c0.42-0.47,0.84-0.94,1.25-1.42C5.56,8.24,5.63,8.05,5.73,7.89z"/>
	<path class="st0" d="M9.4,8.74C9.33,8.13,8.84,7.68,8.23,7.71c-0.21,0.01-0.36-0.04-0.5-0.2c-0.26-0.3-0.53-0.6-0.82-0.92
		C6.64,6.9,6.43,7.13,6.16,7.43c0.16,0.22,0.29,0.46,0.47,0.65c0.26,0.28,0.61,0.51,0.5,0.98C7.12,9.1,7.15,9.14,7.16,9.17
		c0.17,0.57,0.74,0.91,1.32,0.8C9.05,9.86,9.47,9.31,9.4,8.74z M8.35,9.41C8,9.42,7.74,9.17,7.72,8.82C7.72,8.63,8.01,8.32,8.2,8.32
		c0.35-0.01,0.61,0.23,0.62,0.59C8.83,9.08,8.53,9.41,8.35,9.41z"/>
	<path class="st0" d="M4.33,6.2c0.31-0.01,0.5,0.1,0.68,0.31c0.06,0.06,0.12,0.12,0.18,0.18C5.42,6.91,5.62,6.9,5.82,6.67
		C5.98,6.5,6.14,6.32,6.3,6.14c-0.14-0.15-0.26-0.3-0.4-0.41C5.66,5.51,5.5,5.3,5.5,4.93c0-0.45-0.29-0.76-0.7-0.92
		C4.39,3.85,4,3.92,3.65,4.2C3.47,4.35,3.49,4.44,3.71,4.5c0.24,0.07,0.48,0.13,0.72,0.18C4.68,4.74,4.68,4.9,4.63,5.1
		c-0.05,0.2-0.11,0.37-0.38,0.3C4.02,5.34,3.79,5.28,3.56,5.23C3.48,5.22,3.39,5.24,3.3,5.25c0.01,0.09,0,0.19,0.04,0.27
		C3.52,5.95,3.85,6.22,4.33,6.2z"/>
	<path class="st0" d="M1.73,8.25c0,0.1,0.12,0.2,0.18,0.29c0.06-0.1,0.18-0.2,0.18-0.3c0.01-1.3,0.01-2.6,0-3.9
		c0-0.1-0.12-0.2-0.19-0.29c-0.06,0.1-0.17,0.2-0.18,0.3C1.72,4.99,1.73,5.64,1.73,6.3C1.73,6.95,1.72,7.6,1.73,8.25z"/>
	<path class="st0" d="M6.43,8.4C6.28,8.29,6.12,8.17,5.97,8.06c0.01,0.27,0.01,0.53,0.02,0.8c0,0.05,0.01,0.17-0.08,0.29
		C5.9,9.17,5.86,9.22,5.8,9.26C5.72,9.32,5.63,9.32,5.45,9.32c-0.17,0-0.3,0-0.34,0.01c-0.1,0.11-0.2,0.23-0.3,0.34
		c0.14,0,0.28,0,0.42,0c0.05,0.16,0.2,0.26,0.34,0.23c0.11-0.02,0.2-0.11,0.23-0.23c0.01,0,0.03,0,0.06,0c0.01,0,0.08,0,0.13-0.01
		c0.05-0.01,0.17-0.02,0.27-0.11C6.28,9.53,6.3,9.51,6.31,9.49c0.03-0.04,0.1-0.12,0.11-0.23c0.01-0.05,0-0.09,0-0.11
		C6.43,8.9,6.43,8.65,6.43,8.4z"/>
	<path class="st0" d="M1.89,0.87C1.84,0.95,1.74,1.02,1.73,1.1C1.71,1.3,1.73,1.52,1.73,1.73S1.71,2.15,1.73,2.35
		C1.74,2.43,1.85,2.5,1.91,2.57C1.97,2.5,2.09,2.44,2.1,2.37c0.02-0.43,0.02-0.86,0-1.28C2.09,1.01,1.96,0.94,1.89,0.87z"/>
</g>
</svg>
