<?xml version="1.0" encoding="utf-8"?>
<!-- Generator: Adobe Illustrator 25.4.1, SVG Export Plug-In . SVG Version: 6.00 Build 0)  -->
<svg version="1.1" id="Layer_1" xmlns="http://www.w3.org/2000/svg" xmlns:xlink="http://www.w3.org/1999/xlink" x="0px" y="0px"
	 viewBox="0 0 10 10" style="enable-background:new 0 0 10 10;" xml:space="preserve">
<style type="text/css">
	.st0{fill:#F79420;}
</style>
<g>
	<path class="st0" d="M0.47,10c0-0.18-0.01-0.37,0-0.54c0.02-0.18,0.11-0.32,0.3-0.37c0-0.02,0-0.04,0-0.06c0-0.81,0-1.62,0-2.44
		c0-0.86,0-1.72,0-2.58c0-1.1,0-2.2,0-3.31c0-0.17,0.02-0.32,0.13-0.46C1.03,0.09,1.19,0,1.38,0c0.95,0,1.9,0,2.84,0
		C4.8,0,5.39,0,5.97,0C6.48,0,6.99,0,7.5,0c0.35,0,0.63,0.27,0.63,0.61c0,0.97,0,1.94,0,2.92c0,0.56,0,1.13,0,1.69
		c0,0.71,0,1.43,0,2.14c0,0.02,0,0.04,0,0.07C8.04,7.36,7.98,7.29,7.9,7.22C7.83,7.16,7.81,7.1,7.81,7.01c0-1.55,0-3.09,0-4.64
		c0-0.16,0-0.32,0-0.49c-2.24,0-4.48,0-6.72,0c0,1.98,0,3.95,0,5.94c0.02,0,0.03,0,0.05,0c0.16,0,0.32,0,0.48,0
		c0.1,0,0.17,0.06,0.17,0.15c0,0.09-0.07,0.16-0.17,0.16c-0.16,0-0.32,0-0.47,0c-0.02,0-0.04,0-0.06,0c0,0.1,0,0.2,0,0.31
		c0.02,0,0.04,0,0.06,0c0.55,0,1.1,0,1.66,0c0.13,0,0.2,0.12,0.14,0.23C2.91,8.73,2.87,8.75,2.8,8.75c-0.45,0-0.91,0-1.36,0
		c-0.12,0-0.23,0-0.35,0c0,0.1,0,0.2,0,0.31c0.02,0,0.03,0,0.05,0c0.94,0,1.87,0,2.81,0c0.85,0,1.71,0,2.56,0
		c0.04,0,0.06,0.01,0.09,0.04c0.08,0.08,0.17,0.16,0.25,0.24c0.01,0.01,0.02,0.02,0.03,0.03c-0.07,0-0.14,0-0.21,0
		c-0.95,0-1.9,0-2.86,0c-0.94,0-1.88,0-2.83,0c-0.01,0-0.02,0-0.03,0c-0.14,0-0.16,0.02-0.18,0.16c-0.01,0.05,0,0.1,0,0.16
		c0.05,0,0.09,0,0.14,0c0.81,0,1.62,0,2.43,0c0.9,0,1.8,0,2.71,0c0.37,0,0.74,0,1.11,0c0.04,0,0.06,0.01,0.09,0.04
		C7.33,9.82,7.42,9.91,7.5,10C5.17,10,2.82,10,0.47,10z M1.09,1.56c2.24,0,4.48,0,6.72,0c0-0.02,0-0.04,0-0.06c0-0.28,0-0.56,0-0.84
		c0-0.22-0.13-0.34-0.35-0.34c-0.22,0-0.45,0-0.67,0c-0.6,0-1.19,0-1.79,0c-1.19,0-2.38,0-3.56,0c-0.22,0-0.34,0.13-0.34,0.35
		c0,0.2,0,0.4,0,0.6C1.09,1.36,1.09,1.46,1.09,1.56z"/>
	<path class="st0" d="M4.15,4.03c0.09,0.09,0.18,0.19,0.27,0.28c0.21,0.2,0.42,0.4,0.62,0.61C5.29,5.17,5.31,5.55,5.04,5.8
		C4.95,5.88,4.87,5.97,4.79,6.05c-0.25,0.25-0.64,0.25-0.9,0C3.6,5.77,3.32,5.49,3.03,5.21C3.02,5.2,3.01,5.19,2.99,5.18
		C2.98,5.26,2.97,5.33,2.97,5.4C2.95,5.74,3.06,6.04,3.25,6.31c0.12,0.17,0.27,0.3,0.45,0.4c0.16,0.09,0.33,0.14,0.5,0.17
		c0.29,0.05,0.58,0.01,0.85-0.1C5.09,6.77,5.11,6.77,5.14,6.8C5.56,7.21,5.98,7.62,6.4,8.03c0.51,0.5,1.02,1,1.53,1.5
		c0.04,0.04,0.08,0.08,0.13,0.12c0.07,0.07,0.07,0.16,0.01,0.23c-0.06,0.06-0.16,0.06-0.23,0c-0.4-0.39-0.8-0.78-1.21-1.18
		C6.11,8.18,5.58,7.67,5.06,7.15C5.03,7.12,5,7.14,4.97,7.15C4.53,7.27,4.1,7.25,3.68,7.05C3.11,6.77,2.76,6.3,2.67,5.67
		C2.64,5.47,2.65,5.28,2.7,5.09c0.03-0.12,0.1-0.2,0.21-0.23c0.11-0.03,0.21,0,0.3,0.08C3.5,5.23,3.78,5.51,4.07,5.79
		c0.08,0.08,0.16,0.14,0.28,0.13c0.08,0,0.15-0.03,0.21-0.08c0.1-0.1,0.2-0.19,0.29-0.29c0.1-0.1,0.11-0.26,0-0.38
		c-0.1-0.12-0.22-0.22-0.33-0.33c-0.2-0.19-0.4-0.39-0.59-0.58c-0.09-0.09-0.13-0.19-0.1-0.32c0.04-0.12,0.13-0.2,0.25-0.23
		c0.66-0.14,1.23,0.02,1.71,0.5c0.3,0.3,0.44,0.67,0.47,1.09c0.01,0.21-0.01,0.42-0.07,0.63c-0.01,0.03,0,0.05,0.02,0.07
		C6.89,6.67,7.57,7.33,8.25,8C8.6,8.34,8.96,8.69,9.31,9.04c0.05,0.05,0.11,0.1,0.16,0.15c0.09,0.09,0.08,0.2-0.03,0.26
		C9.39,9.48,9.32,9.47,9.26,9.42c-0.1-0.1-0.2-0.2-0.3-0.29C8.44,8.62,7.91,8.11,7.39,7.59C7.07,7.29,6.76,6.98,6.45,6.68
		c-0.2-0.19-0.4-0.39-0.6-0.58C5.82,6.07,5.82,6.05,5.83,6.02C6,5.58,6,5.15,5.78,4.74C5.56,4.33,5.2,4.09,4.75,4.01
		C4.55,3.97,4.35,3.98,4.15,4.03C4.15,4.03,4.15,4.03,4.15,4.03z"/>
	<path class="st0" d="M6.84,6.18C6.76,6.1,6.68,6.03,6.6,5.95c-0.01-0.01-0.01-0.03,0-0.04c0.15-0.85-0.1-1.56-0.75-2.12
		C5.51,3.5,5.12,3.34,4.68,3.29c-0.27-0.03-0.54-0.01-0.8,0.06c-0.78,0.23-1.3,0.73-1.53,1.5C2.14,5.57,2.28,6.24,2.74,6.83
		c0.33,0.42,0.77,0.68,1.29,0.79C4.36,7.68,4.68,7.67,5,7.59c0.02,0,0.05,0,0.06,0.01c0.07,0.07,0.15,0.15,0.22,0.23
		C4.97,7.94,4.64,7.99,4.31,7.97c-0.65-0.04-1.2-0.29-1.65-0.76C1.72,6.25,1.73,4.77,2.57,3.82C3.45,2.82,4.92,2.7,5.94,3.46
		C6.95,4.22,7.1,5.42,6.84,6.18z"/>
	<path class="st0" d="M2.42,7.97c0,0.09-0.07,0.16-0.16,0.16c-0.09,0-0.15-0.07-0.15-0.16c0-0.09,0.07-0.16,0.16-0.16
		C2.35,7.82,2.42,7.89,2.42,7.97z"/>
	<path class="st0" d="M2.58,1.09c-0.15,0-0.31,0-0.46,0c-0.1,0-0.17-0.06-0.17-0.15c0-0.09,0.07-0.16,0.16-0.16
		c0.31,0,0.61,0,0.92,0c0.1,0,0.16,0.07,0.16,0.17c0,0.08-0.07,0.14-0.16,0.14C2.88,1.09,2.73,1.09,2.58,1.09z"/>
	<path class="st0" d="M7.11,1.09c-0.05,0-0.1,0-0.16,0c-0.09,0-0.15-0.07-0.15-0.16c0-0.09,0.07-0.15,0.15-0.16
		c0.11,0,0.21,0,0.32,0c0.09,0,0.15,0.07,0.15,0.16c0,0.09-0.07,0.15-0.15,0.16C7.21,1.09,7.16,1.09,7.11,1.09z"/>
	<path class="st0" d="M6.17,1.09c-0.03,0-0.06,0-0.09,0C5.99,1.08,5.93,1.02,5.94,0.94c0-0.08,0.06-0.15,0.14-0.15
		c0.06,0,0.13,0,0.19,0c0.08,0,0.14,0.08,0.14,0.16c0,0.08-0.06,0.15-0.14,0.15C6.23,1.1,6.2,1.09,6.17,1.09
		C6.17,1.09,6.17,1.09,6.17,1.09z"/>
</g>
</svg>
