<?xml version="1.0" encoding="utf-8"?>
<!-- Generator: Adobe Illustrator 25.4.1, SVG Export Plug-In . SVG Version: 6.00 Build 0)  -->
<svg version="1.1" id="Layer_1" xmlns="http://www.w3.org/2000/svg" xmlns:xlink="http://www.w3.org/1999/xlink" x="0px" y="0px"
	 viewBox="0 0 200 200" style="enable-background:new 0 0 200 200;" xml:space="preserve">
<style type="text/css">
	.st0{fill:#FFFFFF;}
</style>
<g>
	<path class="st0" d="M186.24,33.95c-1.18-3.24-3.53-4.4-6.93-4.39c-46.65,0.05-93.29,0.03-139.94,0.03c-0.34,0-0.67-0.01-1.01,0
		c-1.86,0.05-2.96,0.97-3,2.48c-0.04,1.6,1.07,2.55,3.04,2.57c2.23,0.02,4.47,0,6.77,0c0.07,1.16,0.05,2.17,0.21,3.15
		c0.9,5.54,5.23,9.04,11.23,9.04c25.68,0.01,51.37,0.01,77.05,0c3.54,0,7.08,0.06,10.62-0.04c4.99-0.14,8.98-3.54,9.99-8.44
		c0.24-1.18,0.27-2.41,0.39-3.58c0.2-0.06,0.31-0.12,0.41-0.12c8.26-0.01,16.52,0,24.78-0.05c1.24-0.01,1.33,0.6,1.33,1.57
		c-0.02,3.38-0.02,6.75-0.01,10.13c0.23,19.73,0.13,34.47-0.03,40.24c-0.02,0.88-0.04,3.66-1.52,6.65
		c-1.23,2.48-3.19,4.55-5.81,6.24c-1.08,0.7-1.92,0.82-2.95-0.14c-0.98-0.91-2.15-1.63-3.27-2.36c-3.98-2.61-8.35-4.31-13.07-5.42
		c0-0.67,0-1.28,0-1.89c0-5.28,0.03-10.57-0.01-15.85c-0.02-2.83-1.72-4.62-4.52-4.89c-0.61-0.06-1.23-0.06-1.85-0.06
		c-32.15,0-64.3,0-96.45,0c-0.51,0-1.01-0.01-1.52,0.02c-3.17,0.2-4.9,2.03-4.92,5.22c-0.02,4.33-0.02,8.66,0,12.98
		c0.01,1.96-0.02,3.94,0.17,5.89c0.31,3.14,1.74,5.86,3.79,8.41c-0.41,0.09-0.61,0.18-0.81,0.18c-5.28-0.01-10.57,0.15-15.85-0.1
		c-7.67-0.36-13.87-6.79-13.91-14.47c-0.1-16.97-0.03-33.95-0.06-50.92c0-1.15,0.43-1.45,1.48-1.41c1.85,0.06,3.71,0.04,5.56,0.01
		c1.83-0.02,2.92-1.01,2.89-2.56c-0.03-1.46-1.11-2.45-2.82-2.49c-1.91-0.04-3.82-0.02-5.73-0.01c-4.29,0.01-6.41,2.13-6.41,6.43
		c0,16.69,0,33.38,0.01,50.08c0,0.95,0.01,1.92,0.15,2.86c1.58,10.57,9.76,17.64,20.49,17.64c25.8,0.02,51.59,0.01,77.39,0.01
		c0.7,0,1.41,0,2.41,0c-0.5,0.78-0.79,1.24-1.1,1.7c-14.32,21.21-5.47,50.19,18.3,59.68c2.59,1.03,5.36,1.63,8.08,2.27
		c1.6,0.37,2.8-0.5,3.08-1.86c0.3-1.43-0.54-2.6-2.2-3.04c-0.33-0.09-0.66-0.14-0.99-0.21c-15.67-3-27.66-17.11-28.12-33.1
		c-0.62-21.41,17.39-38.21,38.69-36.11c22.24,2.2,36.9,24.88,29.53,46.04c-4.56,13.09-14.02,20.78-27.6,23.45
		c-1.8,0.35-2.75,1.55-2.45,2.99c0.31,1.49,1.63,2.3,3.37,1.95c16.35-3.25,27.08-12.82,32.09-28.71c0.73-2.33,1.04-4.8,1.54-7.2
		c0-2.47,0-4.95,0-7.42c-0.39-1.97-0.72-3.95-1.19-5.89c-1.55-6.38-4.59-12-8.98-17.05c0.43-0.3,0.77-0.55,1.12-0.79
		c1.09-0.74,3.4-2.55,5.28-5.1c0.78-1.06,2.64-3.87,3.4-7.84c0,0,0.12-0.6,0.2-1.24C186.66,84.41,186.39,49.32,186.24,33.95z
		 M143.75,41.77c-4.78,0.06-9.55,0.02-14.33,0.02c-24.22,0-48.44,0-72.66,0c-4.51,0-6.68-2.37-6.34-7.07c33.02,0,65.93,0,98.83,0
		C150.08,38.65,147.72,41.72,143.75,41.77z M149.35,90.65c-0.89,0-1.82,0-2.75,0c-23.37,0-46.75-0.01-70.12-0.01
		c-2.11,0-3.25,0.95-3.23,2.59c0.03,1.58,1.13,2.44,3.15,2.46c0.39,0,0.79,0,1.18,0c15.51,0,31.02,0,46.52,0c0.6,0,1.2,0,2.05,0
		c-2.51,1.95-4.75,3.72-7.04,5.42c-0.4,0.3-1.03,0.42-1.56,0.42c-18.82,0.02-37.65,0.03-56.47,0c-4.16-0.01-7.26-1.95-9.5-5.69
		c0.58-0.06,0.99-0.14,1.4-0.14c3.54-0.01,7.08,0.01,10.62-0.01c1.72-0.01,2.82-0.98,2.87-2.42c0.05-1.49-1.1-2.6-2.89-2.61
		c-3.76-0.04-7.53-0.01-11.29-0.01c-0.6,0-1.2,0-1.88,0c0-1.99,0-3.81,0-5.72c33,0,65.9,0,98.94,0
		C149.35,86.78,149.35,88.65,149.35,90.65z M149.37,79.65c-32.93,0-65.88,0-99,0c0-1.91,0-3.7,0-5.62c32.99,0,65.94,0,99,0
		C149.37,75.87,149.37,77.69,149.37,79.65z"/>
	<path class="st0" d="M164.73,149.36c2.96-2.97,2.9-7.55-0.19-10.73c-2.35-2.41-4.75-4.79-7.15-7.15c-1.4-1.37-2.85-2.69-4.17-3.93
		c1.29-1.32,2.34-2.39,3.19-3.25c1.22,0.45,2.33,1.23,3.41,1.19c2.11-0.08,4.24-0.5,6.3-1.05c0.85-0.22,1.94-0.99,2.18-1.74
		c0.59-1.85,0.86-3.83,1.03-5.78c0.13-1.42-0.78-2.35-2.18-2.54c-1.34-0.18-2.3,0.5-2.7,1.78c-0.26,0.85-0.28,1.77-0.51,2.64
		c-0.1,0.38-0.35,0.87-0.67,1.03c-1.64,0.8-3.11,0.47-4.48-0.9c-0.48-0.48-1.08-0.88-1.4-1.45c-0.35-0.6-0.55-1.35-0.61-2.04
		c-0.15-1.87,0.78-2.77,2.67-2.71c0.38,0.01,0.78-0.1,1.16-0.22c1.36-0.42,2.06-1.35,1.93-2.77c-0.13-1.33-1.37-2.35-2.75-2.17
		c-1.84,0.23-3.7,0.46-5.45,1c-0.75,0.23-1.54,1.15-1.8,1.93c-0.48,1.48-0.55,3.09-0.88,4.62c-0.41,1.94-0.66,3.8,1.29,5.12
		c-1.2,1.19-2.27,2.25-3.34,3.31c-4.3-3.42-4.88-3.51-8.23-1.52c-0.97-0.84-1.89-1.63-2.85-2.46c1.25-1.29,1.76-2.64,0.54-3.98
		c-1.43-1.58-2.91-0.77-4.33,0.35c-2.08-2.11-4.07-4.18-6.11-6.18c-1.23-1.21-2.68-1.22-3.73-0.15c-1.04,1.05-1,2.5,0.21,3.73
		c2.04,2.06,4.13,4.07,6.17,6.06c-1.42,1.98-1.54,3.09-0.6,4.16c0.98,1.12,2.05,1.07,4.39-0.2c0.82,0.81,1.66,1.64,2.49,2.46
		c-0.17,0-0.34-0.01-0.51-0.01c-0.28,1.53-0.99,3.15-0.71,4.56c0.29,1.46,1.55,2.73,2.3,3.94c-0.93,1-1.95,2.1-3.16,3.39
		c-1.08-1.79-2.62-1.8-4.25-1.5c-1.77,0.32-3.58,0.47-5.29,1c-0.82,0.25-1.8,1.08-2.05,1.87c-0.56,1.75-0.78,3.62-1,5.45
		c-0.16,1.38,0.88,2.61,2.21,2.71c1.43,0.11,2.37-0.62,2.74-1.98c0.21-0.75,0.23-1.56,0.42-2.32c0.1-0.4,0.27-0.9,0.58-1.1
		c1.2-0.79,3.32-0.46,4.37,0.59c0.36,0.36,0.66,0.81,1.08,1.06c1.83,1.07,1.21,2.68,0.94,4.18c-0.29,1.55-1.77,0.77-2.63,1.24
		c-0.18,0.1-0.44,0.05-0.66,0.1c-1.53,0.33-2.46,1.52-2.26,2.86c0.22,1.46,1.46,2.35,3.1,2.13c1.56-0.21,3.1-0.5,4.65-0.77
		c1.38-0.24,2.19-1.03,2.4-2.44c0.22-1.44,0.45-2.88,0.75-4.31c0.4-1.93,0.7-3.81-1.23-5.04c1.15-1.22,2.19-2.31,3.6-3.79
		c0.36,0.55,0.61,1.16,1.04,1.59c3.31,3.36,6.64,6.71,10.01,10.02C157.17,152.32,161.75,152.35,164.73,149.36z M142.59,130.66
		c-0.39-0.39-0.75-0.8-1.12-1.2c1.12-1.12,2.18-2.18,3.32-3.32c0.32,0.29,0.71,0.6,1.06,0.95c4.85,4.84,9.7,9.69,14.54,14.54
		c0.24,0.24,0.49,0.47,0.7,0.72c0.99,1.18,1.01,2.56-0.01,3.46c-1.1,0.96-2.27,0.92-3.34-0.04c-1.04-0.94-2-1.97-3-2.96
		C150.69,138.76,146.64,134.71,142.59,130.66z"/>
	<path class="st0" d="M81.95,123.79c1.43-2.01,2.21-4.27,2.22-6.77c0.01-1.74-0.84-2.85-2.31-2.95c-1.48-0.11-2.33,0.88-2.75,2.57
		c-0.42,1.7-0.93,3.46-1.82,4.95c-2.92,4.87-3.06,9.67,0.09,14.4c2.31,3.46,2.23,6.67,0,10.16c-1.2,1.88-1.81,4.13-2.68,6.21
		c0.15,0.06,0.31,0.13,0.46,0.19c-0.08,1.92,0.69,3.04,2.21,3.18c1.62,0.15,2.43-0.83,2.86-2.8c0.35-1.6,0.91-3.24,1.75-4.63
		c2.98-4.91,3.1-9.76-0.08-14.55C79.64,130.37,79.58,127.12,81.95,123.79z"/>
	<path class="st0" d="M98.81,123.8c1.43-2.01,2.21-4.27,2.23-6.76c0.01-1.75-0.83-2.85-2.29-2.96c-1.49-0.11-2.34,0.86-2.76,2.56
		c-0.42,1.7-0.93,3.47-1.82,4.95c-2.92,4.87-3.07,9.67,0.08,14.4c2.31,3.46,2.24,6.67,0.01,10.16c-1.2,1.88-1.81,4.13-2.68,6.21
		c0.15,0.06,0.31,0.13,0.46,0.19c-0.08,1.93,0.68,3.04,2.19,3.19c1.63,0.16,2.44-0.83,2.88-2.79c0.35-1.6,0.9-3.24,1.74-4.63
		c2.98-4.91,3.11-9.76-0.07-14.55C96.52,130.38,96.44,127.13,98.81,123.8z"/>
	<path class="st0" d="M65,123.93c1.41-2.02,2.27-4.24,2.31-6.74c0.03-1.87-0.78-3.01-2.3-3.12c-1.53-0.11-2.39,0.89-2.77,2.74
		c-0.3,1.45-0.66,3-1.45,4.21c-3.42,5.25-3.39,10.36,0.02,15.58c0.8,1.22,1.19,2.71,1.89,4.35c-0.7,1.66-1.2,3.38-2.09,4.87
		c-1.3,2.16-2.29,4.36-2.32,6.92c-0.03,1.79,0.76,2.88,2.22,3.02c1.58,0.15,2.42-0.8,2.84-2.63c0.36-1.6,0.83-3.27,1.68-4.65
		c3.09-5.01,3.2-9.93-0.08-14.83C62.77,130.35,62.74,127.16,65,123.93z"/>
	<path class="st0" d="M175.08,76.03c-0.09-4-3.41-7.2-7.42-7.15c-4.03,0.05-7.26,3.3-7.26,7.3c0,4.05,3.37,7.38,7.41,7.34
		C171.87,83.47,175.18,80.06,175.08,76.03z M165.49,76.15c0.02-1.25,1.03-2.22,2.29-2.2c1.24,0.02,2.26,1.05,2.24,2.27
		c-0.02,1.19-1.11,2.24-2.31,2.22C166.48,78.43,165.47,77.39,165.49,76.15z"/>
	<path class="st0" d="M24.73,75.9c-0.17,4.02,3.1,7.51,7.14,7.61c4.06,0.1,7.44-3.13,7.54-7.21c0.09-3.98-3.1-7.3-7.14-7.42
		C28.27,68.76,24.89,71.91,24.73,75.9z M32.01,73.95c1.26-0.03,2.28,0.94,2.31,2.18c0.03,1.23-0.98,2.28-2.2,2.31
		c-1.2,0.03-2.29-1.01-2.33-2.2C29.76,75.02,30.76,73.98,32.01,73.95z"/>
	<path class="st0" d="M51.35,64.72c0,0.01,0,0.02,0,0.02c1.24,0,2.47,0,3.71,0c0.11,0,0.22-0.01,0.34-0.02
		c1.43-0.13,2.29-0.87,2.4-2.32c0.11-1.41-0.75-2.56-2.25-2.63c-2.69-0.11-5.39-0.12-8.08,0.02c-1.41,0.07-2.23,1.1-2.17,2.53
		c0.06,1.42,0.9,2.29,2.35,2.38C48.88,64.78,50.12,64.72,51.35,64.72z"/>
	<path class="st0" d="M73.29,64.75c0.11,0,0.22,0,0.34-0.01c1.51-0.14,2.47-1.08,2.49-2.44c0.03-1.35-0.9-2.48-2.39-2.54
		c-2.58-0.1-5.17-0.1-7.75,0c-1.46,0.05-2.45,1.22-2.43,2.52c0.02,1.38,1.08,2.39,2.67,2.46c1.18,0.05,2.36,0.01,3.54,0.01
		c0,0,0,0,0,0.01C70.93,64.75,72.11,64.75,73.29,64.75z"/>
</g>
</svg>
