<?xml version="1.0" encoding="utf-8"?>
<!-- Generator: Adobe Illustrator 25.4.1, SVG Export Plug-In . SVG Version: 6.00 Build 0)  -->
<svg version="1.1" id="Layer_1" xmlns="http://www.w3.org/2000/svg" xmlns:xlink="http://www.w3.org/1999/xlink" x="0px" y="0px"
	 viewBox="0 0 200 200" style="enable-background:new 0 0 200 200;" xml:space="preserve">
<style type="text/css">
	.st0{stroke:#FFFFFF;stroke-width:0.75;stroke-miterlimit:10;}
</style>
<rect width="200" height="200"/>
<g>
	<path class="st0" d="M174.8,42.6c-1-2.8-3-3.8-6-3.8c-40.6,0-81.1,0-121.7,0c-0.3,0-0.6,0-0.9,0c-1.7,0-2.6,0.9-2.6,2.2
		c0,1.4,1,2.2,2.6,2.3c1.9,0,3.9,0,5.9,0c0.1,1,0,1.9,0.2,2.8c0.8,4.8,4.5,7.8,9.7,7.8c22.4,0,44.7,0,67.1,0c3,0,6.2,0.1,9.2,0
		c4.3-0.1,7.8-3,8.7-7.3c0.2-1,0.3-2.1,0.3-3.1c0.2-0.1,0.3-0.1,0.3-0.1c7.2,0,14.4,0,21.6,0c1,0,1.1,0.5,1.1,1.4c0,3,0,5.9,0,8.8
		c0.2,17.1,0.1,30,0,35c0,0.8,0,3.2-1.3,5.8c-1,2.2-2.8,4-5,5.4c-1,0.6-1.7,0.7-2.5-0.1c-0.9-0.8-1.8-1.4-2.9-2.1
		c-3.5-2.3-7.3-3.7-11.4-4.7c0-0.6,0-1.1,0-1.7c0-4.6,0-9.2,0-13.7c0-2.4-1.5-4-3.9-4.3c-0.5-0.1-1-0.1-1.7-0.1c-28,0-55.9,0-83.8,0
		c-0.4,0-0.9,0-1.3,0c-2.8,0.2-4.3,1.7-4.3,4.5c0,3.7,0,7.6,0,11.3c0,1.7,0,3.4,0.2,5.1c0.3,2.7,1.5,5.1,3.3,7.3
		c-0.3,0.1-0.5,0.2-0.7,0.2c-4.6,0-9.2,0.2-13.8-0.1c-6.7-0.3-12.1-5.9-12.1-12.6c-0.1-14.8,0-29.6-0.1-44.3c0-1,0.3-1.3,1.3-1.2
		c1.7,0.1,3.2,0,4.9,0c1.6,0,2.5-0.9,2.5-2.3c0-1.3-1-2.2-2.4-2.2c-1.7,0-3.3,0-5,0c-3.7,0-5.6,1.8-5.6,5.6c0,14.5,0,29,0,43.6
		c0,0.8,0,1.7,0.1,2.5c1.4,9.2,8.5,15.3,17.8,15.3c22.4,0,44.9,0,67.3,0c0.6,0,1.2,0,2.1,0c-0.4,0.7-0.7,1-1,1.5
		c-12.4,18.4-4.8,43.7,15.9,51.9c2.3,0.9,4.7,1.4,7,2c1.4,0.3,2.4-0.4,2.7-1.7c0.3-1.2-0.4-2.3-1.9-2.6c-0.3-0.1-0.6-0.1-0.9-0.2
		c-13.7-2.6-24.1-14.9-24.4-28.8c-0.5-18.6,15.1-33.2,33.7-31.4c19.3,1.9,32.1,21.7,25.7,40c-4,11.4-12.2,18.1-24,20.4
		c-1.6,0.3-2.4,1.4-2.1,2.6c0.3,1.3,1.4,2,3,1.7c14.3-2.8,23.6-11.1,27.9-25c0.6-2,0.9-4.2,1.3-6.3c0-2.2,0-4.3,0-6.4
		c-0.3-1.7-0.6-3.4-1-5.1c-1.4-5.6-4-10.4-7.8-14.9c0.3-0.3,0.7-0.5,1-0.7c1-0.6,3-2.3,4.6-4.4c0.7-1,2.3-3.4,3-6.8
		c0,0,0.1-0.5,0.2-1C175.3,86.4,175,55.9,174.8,42.6z M138,49.3c-4.2,0.1-8.3,0-12.4,0c-21,0-42.1,0-63.2,0c-3.9,0-5.8-2.1-5.5-6.2
		c28.7,0,57.3,0,85.9,0C143.4,46.6,141.4,49.3,138,49.3z M142.8,91.9c-0.8,0-1.6,0-2.4,0c-20.4,0-40.7,0-61,0
		c-1.8,0-2.8,0.8-2.8,2.3c0,1.4,1,2.1,2.8,2.2c0.3,0,0.7,0,1,0c13.5,0,27,0,40.4,0c0.5,0,1,0,1.8,0c-2.2,1.7-4.2,3.2-6.1,4.7
		c-0.3,0.3-0.9,0.3-1.4,0.3c-16.4,0-32.8,0-49.1,0c-3.7,0-6.3-1.7-8.3-5c0.5-0.1,0.9-0.1,1.2-0.1c3,0,6.2,0,9.2,0
		c1.5,0,2.4-0.9,2.5-2.1c0.1-1.3-1-2.3-2.5-2.3c-3.3,0-6.5,0-9.8,0c-0.5,0-1,0-1.7,0c0-1.7,0-3.3,0-5c28.7,0,57.3,0,86,0
		C142.8,88.5,142.8,90.1,142.8,91.9z M142.8,82.3c-28.6,0-57.3,0-86.1,0c0-1.7,0-3.2,0-4.9c28.7,0,57.3,0,86.1,0
		C142.8,79,142.8,80.6,142.8,82.3z"/>
	<path class="st0" d="M156.1,142.9c2.6-2.6,2.5-6.6-0.2-9.3c-2.1-2.1-4.2-4.2-6.2-6.2c-1.2-1.2-2.5-2.3-3.7-3.4
		c1.1-1.1,2-2.1,2.8-2.8c1,0.3,2,1,3,1c1.8-0.1,3.7-0.4,5.5-1c0.8-0.2,1.7-0.9,1.9-1.5c0.5-1.6,0.8-3.3,0.9-5c0.1-1.2-0.7-2-1.9-2.2
		c-1.1-0.2-2,0.4-2.3,1.6c-0.3,0.7-0.3,1.6-0.4,2.3c-0.1,0.3-0.3,0.8-0.6,0.9c-1.4,0.7-2.7,0.4-3.9-0.8c-0.4-0.4-1-0.8-1.2-1.2
		c-0.3-0.5-0.5-1.1-0.5-1.7c-0.1-1.7,0.7-2.4,2.3-2.3c0.3,0,0.7-0.1,1-0.2c1.2-0.3,1.8-1.1,1.7-2.4c-0.1-1.1-1.2-2-2.4-1.9
		c-1.6,0.2-3.2,0.4-4.7,0.9c-0.7,0.2-1.3,1-1.6,1.7c-0.4,1.3-0.5,2.7-0.8,4c-0.3,1.7-0.6,3.3,1.1,4.4c-1,1-2,1.9-2.9,2.9
		c-3.7-3-4.3-3-7.1-1.3c-0.9-0.7-1.7-1.4-2.5-2.2c1-1.1,1.6-2.3,0.4-3.5c-1.2-1.4-2.5-0.7-3.7,0.3c-1.8-1.8-3.6-3.7-5.3-5.4
		c-1-1-2.3-1-3.2-0.2c-0.9,1-0.9,2.2,0.2,3.2c1.7,1.8,3.6,3.6,5.4,5.3c-1.2,1.7-1.3,2.7-0.5,3.7c0.9,1,1.8,1,3.8-0.2
		c0.7,0.7,1.5,1.4,2.2,2.2c-0.2,0-0.3,0-0.4,0c-0.3,1.3-0.9,2.7-0.6,4c0.3,1.3,1.4,2.3,2,3.4c-0.8,0.9-1.7,1.8-2.8,3
		c-1-1.6-2.3-1.6-3.7-1.3c-1.6,0.3-3.1,0.4-4.6,0.9c-0.7,0.2-1.6,1-1.8,1.7c-0.5,1.6-0.7,3.1-0.9,4.7c-0.2,1.2,0.8,2.3,1.9,2.3
		c1.2,0.1,2.1-0.5,2.3-1.7c0.2-0.7,0.2-1.4,0.3-2c0.1-0.3,0.3-0.8,0.5-1c1-0.7,2.9-0.4,3.8,0.5c0.3,0.3,0.6,0.7,1,1
		c1.6,1,1,2.3,0.8,3.7c-0.3,1.4-1.6,0.7-2.3,1c-0.2,0.1-0.3,0.1-0.6,0.1c-1.3,0.3-2.2,1.3-2,2.5c0.2,1.3,1.3,2.1,2.7,1.8
		c1.4-0.2,2.7-0.4,4-0.7c1.2-0.2,1.9-0.9,2.1-2.1c0.2-1.2,0.3-2.5,0.7-3.7c0.3-1.7,0.6-3.3-1-4.3c1-1,1.9-2,3.1-3.3
		c0.3,0.5,0.5,1,0.9,1.4c2.9,3,5.7,5.8,8.7,8.7C149.6,145.4,153.6,145.5,156.1,142.9z M136.9,126.7c-0.3-0.3-0.7-0.7-1-1
		c1-1,1.9-1.9,2.9-2.9c0.3,0.3,0.6,0.5,1,0.8c4.3,4.2,8.4,8.4,12.6,12.6c0.2,0.2,0.4,0.4,0.6,0.6c0.9,1,0.9,2.3,0,3
		c-1,0.9-2,0.8-2.9,0c-0.9-0.8-1.7-1.7-2.6-2.6C144,133.7,140.4,130.1,136.9,126.7z"/>
	<path class="st0" d="M84.1,120.7c1.2-1.7,1.9-3.7,1.9-5.9c0-1.5-0.7-2.4-2-2.5c-1.3-0.1-2,0.8-2.4,2.3c-0.3,1.5-0.8,3-1.6,4.3
		c-2.5,4.3-2.7,8.4,0.1,12.5c2,3,1.9,5.8,0,8.9c-1,1.7-1.6,3.6-2.3,5.4c0.2,0.1,0.3,0.1,0.4,0.2c-0.1,1.7,0.6,2.6,1.9,2.8
		c1.4,0.1,2.1-0.7,2.5-2.4c0.3-1.4,0.8-2.8,1.6-4c2.6-4.3,2.7-8.5-0.1-12.7C82.1,126.4,82.1,123.5,84.1,120.7z"/>
	<path class="st0" d="M98.8,120.7c1.2-1.7,1.9-3.7,1.9-5.9c0-1.6-0.7-2.4-2-2.6c-1.3-0.1-2,0.8-2.4,2.3c-0.3,1.5-0.8,3-1.6,4.3
		c-2.5,4.3-2.7,8.4,0.1,12.5c2,3,1.9,5.8,0,8.9c-1,1.7-1.6,3.6-2.3,5.4c0.2,0.1,0.3,0.1,0.4,0.2c-0.1,1.7,0.6,2.6,1.9,2.8
		c1.4,0.2,2.1-0.7,2.5-2.4c0.3-1.4,0.8-2.8,1.5-4c2.6-4.3,2.7-8.5-0.1-12.7C96.8,126.4,96.7,123.5,98.8,120.7z"/>
	<path class="st0" d="M69.4,120.7c1.2-1.7,2-3.7,2-5.8c0-1.7-0.7-2.6-2-2.7s-2.1,0.8-2.4,2.3c-0.3,1.2-0.6,2.6-1.3,3.7
		c-3,4.5-3,9,0,13.6c0.7,1,1,2.3,1.7,3.8c-0.6,1.5-1,3-1.8,4.3c-1.1,1.9-2,3.8-2,6c0,1.6,0.7,2.5,1.9,2.6c1.4,0.1,2.1-0.7,2.4-2.3
		c0.3-1.4,0.7-2.9,1.5-4c2.7-4.3,2.8-8.6-0.1-12.9C67.5,126.4,67.4,123.6,69.4,120.7z"/>
	<path class="st0" d="M165.2,79.1c-0.1-3.5-3-6.3-6.4-6.3c-3.5,0.1-6.3,2.9-6.3,6.3c0,3.6,3,6.4,6.4,6.3
		C162.4,85.6,165.3,82.6,165.2,79.1z M156.8,79.3c0-1,0.9-1.9,2-1.9c1,0,2,1,1.9,2c0,1-1,1.9-2,1.9
		C157.7,81.2,156.8,80.3,156.8,79.3z"/>
	<path class="st0" d="M34.4,79c-0.2,3.5,2.7,6.5,6.2,6.6c3.6,0.1,6.4-2.7,6.5-6.3c0.1-3.5-2.7-6.3-6.2-6.4
		C37.5,72.8,34.6,75.5,34.4,79z M40.7,77.3c1.1,0,2,0.8,2,1.9c0,1-0.9,2-1.9,2s-2-0.9-2-1.9C38.8,78.2,39.7,77.3,40.7,77.3z"/>
	<path class="st0" d="M57.5,69.3L57.5,69.3c1,0,2.2,0,3.2,0c0.1,0,0.2,0,0.3,0c1.2-0.1,2-0.8,2.1-2c0.1-1.2-0.7-2.3-1.9-2.3
		c-2.3-0.1-4.7-0.1-7,0c-1.2,0.1-1.9,1-1.9,2.2c0.1,1.2,0.8,2,2,2.1C55.4,69.3,56.5,69.3,57.5,69.3z"/>
	<path class="st0" d="M76.6,69.3c0.1,0,0.2,0,0.3,0c1.3-0.1,2.2-1,2.2-2.1s-0.8-2.2-2.1-2.2c-2.3-0.1-4.5-0.1-6.8,0
		c-1.3,0-2.2,1-2.1,2.2c0,1.2,1,2.1,2.3,2.2c1,0.1,2.1,0,3,0l0,0C74.6,69.3,75.6,69.3,76.6,69.3z"/>
</g>
</svg>
