<?xml version="1.0" encoding="utf-8"?>
<!-- Generator: Adobe Illustrator 25.4.1, SVG Export Plug-In . SVG Version: 6.00 Build 0)  -->
<svg version="1.1" id="Layer_1" xmlns="http://www.w3.org/2000/svg" xmlns:xlink="http://www.w3.org/1999/xlink" x="0px" y="0px"
	 viewBox="0 0 200 200" style="enable-background:new 0 0 200 200;" xml:space="preserve">
<style type="text/css">
	.st0{stroke:#FFFFFF;stroke-width:0.25;stroke-miterlimit:10;}
</style>
<g>
	<path class="st0" d="M186.2,34c-1.2-3.2-3.5-4.4-6.9-4.4c-46.7,0-93.3,0-139.9,0c-0.3,0-0.7,0-1,0c-1.9,0-3,1-3,2.5
		c0,1.6,1.1,2.5,3,2.6c2.2,0,4.5,0,6.8,0c0.1,1.2,0,2.2,0.2,3.2c0.9,5.5,5.2,9,11.2,9c25.7,0,51.4,0,77.1,0c3.5,0,7.1,0.1,10.6,0
		c5-0.1,9-3.5,10-8.4c0.2-1.2,0.3-2.4,0.4-3.6c0.2-0.1,0.3-0.1,0.4-0.1c8.3,0,16.5,0,24.8,0c1.2,0,1.3,0.6,1.3,1.6
		c0,3.4,0,6.8,0,10.1c0.2,19.7,0.1,34.5,0,40.2c0,0.9,0,3.7-1.5,6.7c-1.2,2.5-3.2,4.6-5.8,6.2c-1.1,0.7-1.9,0.8-2.9-0.1
		c-1-0.9-2.1-1.6-3.3-2.4c-4-2.6-8.4-4.3-13.1-5.4c0-0.7,0-1.3,0-1.9c0-5.3,0-10.6,0-15.8c0-2.8-1.7-4.6-4.5-4.9
		c-0.6-0.1-1.2-0.1-1.9-0.1c-32.2,0-64.3,0-96.4,0c-0.5,0-1,0-1.5,0c-3.2,0.2-4.9,2-4.9,5.2c0,4.3,0,8.7,0,13c0,2,0,3.9,0.2,5.9
		c0.3,3.1,1.7,5.9,3.8,8.4c-0.4,0.1-0.6,0.2-0.8,0.2c-5.3,0-10.6,0.2-15.9-0.1c-7.7-0.4-13.9-6.8-13.9-14.5c-0.1-17,0-34-0.1-50.9
		c0-1.2,0.4-1.5,1.5-1.4c1.9,0.1,3.7,0,5.6,0c1.8,0,2.9-1,2.9-2.6c0-1.5-1.1-2.5-2.8-2.5c-1.9,0-3.8,0-5.7,0c-4.3,0-6.4,2.1-6.4,6.4
		c0,16.7,0,33.4,0,50.1c0,0.9,0,1.9,0.1,2.9c1.6,10.6,9.8,17.6,20.5,17.6c25.8,0,51.6,0,77.4,0c0.7,0,1.4,0,2.4,0
		c-0.5,0.8-0.8,1.2-1.1,1.7c-14.3,21.2-5.5,50.2,18.3,59.7c2.6,1,5.4,1.6,8.1,2.3c1.6,0.4,2.8-0.5,3.1-1.9c0.3-1.4-0.5-2.6-2.2-3
		c-0.3-0.1-0.7-0.1-1-0.2c-15.7-3-27.7-17.1-28.1-33.1c-0.6-21.4,17.4-38.2,38.7-36.1c22.2,2.2,36.9,24.9,29.5,46
		c-4.6,13.1-14,20.8-27.6,23.4c-1.8,0.4-2.8,1.6-2.4,3c0.3,1.5,1.6,2.3,3.4,1.9c16.4-3.2,27.1-12.8,32.1-28.7c0.7-2.3,1-4.8,1.5-7.2
		c0-2.5,0-4.9,0-7.4c-0.4-2-0.7-3.9-1.2-5.9c-1.6-6.4-4.6-12-9-17.1c0.4-0.3,0.8-0.6,1.1-0.8c1.1-0.7,3.4-2.6,5.3-5.1
		c0.8-1.1,2.6-3.9,3.4-7.8c0,0,0.1-0.6,0.2-1.2C186.7,84.4,186.4,49.3,186.2,34z M143.8,41.8c-4.8,0.1-9.6,0-14.3,0
		c-24.2,0-48.4,0-72.7,0c-4.5,0-6.7-2.4-6.3-7.1c33,0,65.9,0,98.8,0C150.1,38.7,147.7,41.7,143.8,41.8z M149.4,90.7
		c-0.9,0-1.8,0-2.8,0c-23.4,0-46.8,0-70.1,0c-2.1,0-3.2,0.9-3.2,2.6c0,1.6,1.1,2.4,3.2,2.5c0.4,0,0.8,0,1.2,0c15.5,0,31,0,46.5,0
		c0.6,0,1.2,0,2.1,0c-2.5,1.9-4.8,3.7-7,5.4c-0.4,0.3-1,0.4-1.6,0.4c-18.8,0-37.7,0-56.5,0c-4.2,0-7.3-1.9-9.5-5.7
		c0.6-0.1,1-0.1,1.4-0.1c3.5,0,7.1,0,10.6,0c1.7,0,2.8-1,2.9-2.4c0.1-1.5-1.1-2.6-2.9-2.6c-3.8,0-7.5,0-11.3,0c-0.6,0-1.2,0-1.9,0
		c0-2,0-3.8,0-5.7c33,0,65.9,0,98.9,0C149.4,86.8,149.4,88.7,149.4,90.7z M149.4,79.7c-32.9,0-65.9,0-99,0c0-1.9,0-3.7,0-5.6
		c33,0,65.9,0,99,0C149.4,75.9,149.4,77.7,149.4,79.7z"/>
	<path class="st0" d="M164.7,149.4c3-3,2.9-7.6-0.2-10.7c-2.4-2.4-4.8-4.8-7.1-7.1c-1.4-1.4-2.9-2.7-4.2-3.9
		c1.3-1.3,2.3-2.4,3.2-3.2c1.2,0.4,2.3,1.2,3.4,1.2c2.1-0.1,4.2-0.5,6.3-1.1c0.9-0.2,1.9-1,2.2-1.7c0.6-1.8,0.9-3.8,1-5.8
		c0.1-1.4-0.8-2.3-2.2-2.5c-1.3-0.2-2.3,0.5-2.7,1.8c-0.3,0.8-0.3,1.8-0.5,2.6c-0.1,0.4-0.4,0.9-0.7,1c-1.6,0.8-3.1,0.5-4.5-0.9
		c-0.5-0.5-1.1-0.9-1.4-1.4c-0.4-0.6-0.6-1.3-0.6-2c-0.1-1.9,0.8-2.8,2.7-2.7c0.4,0,0.8-0.1,1.2-0.2c1.4-0.4,2.1-1.3,1.9-2.8
		c-0.1-1.3-1.4-2.3-2.8-2.2c-1.8,0.2-3.7,0.5-5.4,1c-0.8,0.2-1.5,1.2-1.8,1.9c-0.5,1.5-0.6,3.1-0.9,4.6c-0.4,1.9-0.7,3.8,1.3,5.1
		c-1.2,1.2-2.3,2.2-3.3,3.3c-4.3-3.4-4.9-3.5-8.2-1.5c-1-0.8-1.9-1.6-2.9-2.5c1.2-1.3,1.8-2.6,0.5-4c-1.4-1.6-2.9-0.8-4.3,0.3
		c-2.1-2.1-4.1-4.2-6.1-6.2c-1.2-1.2-2.7-1.2-3.7-0.2c-1,1.1-1,2.5,0.2,3.7c2,2.1,4.1,4.1,6.2,6.1c-1.4,2-1.5,3.1-0.6,4.2
		c1,1.1,2.1,1.1,4.4-0.2c0.8,0.8,1.7,1.6,2.5,2.5c-0.2,0-0.3,0-0.5,0c-0.3,1.5-1,3.1-0.7,4.6c0.3,1.5,1.6,2.7,2.3,3.9
		c-0.9,1-1.9,2.1-3.2,3.4c-1.1-1.8-2.6-1.8-4.2-1.5c-1.8,0.3-3.6,0.5-5.3,1c-0.8,0.2-1.8,1.1-2.1,1.9c-0.6,1.8-0.8,3.6-1,5.4
		c-0.2,1.4,0.9,2.6,2.2,2.7c1.4,0.1,2.4-0.6,2.7-2c0.2-0.8,0.2-1.6,0.4-2.3c0.1-0.4,0.3-0.9,0.6-1.1c1.2-0.8,3.3-0.5,4.4,0.6
		c0.4,0.4,0.7,0.8,1.1,1.1c1.8,1.1,1.2,2.7,0.9,4.2c-0.3,1.6-1.8,0.8-2.6,1.2c-0.2,0.1-0.4,0.1-0.7,0.1c-1.5,0.3-2.5,1.5-2.3,2.9
		c0.2,1.5,1.5,2.4,3.1,2.1c1.6-0.2,3.1-0.5,4.6-0.8c1.4-0.2,2.2-1,2.4-2.4c0.2-1.4,0.4-2.9,0.8-4.3c0.4-1.9,0.7-3.8-1.2-5
		c1.1-1.2,2.2-2.3,3.6-3.8c0.4,0.6,0.6,1.2,1,1.6c3.3,3.4,6.6,6.7,10,10C157.2,152.3,161.8,152.4,164.7,149.4z M142.6,130.7
		c-0.4-0.4-0.8-0.8-1.1-1.2c1.1-1.1,2.2-2.2,3.3-3.3c0.3,0.3,0.7,0.6,1.1,0.9c4.9,4.8,9.7,9.7,14.5,14.5c0.2,0.2,0.5,0.5,0.7,0.7
		c1,1.2,1,2.6,0,3.5c-1.1,1-2.3,0.9-3.3,0c-1-0.9-2-2-3-3C150.7,138.8,146.6,134.7,142.6,130.7z"/>
	<path class="st0" d="M81.9,123.8c1.4-2,2.2-4.3,2.2-6.8c0-1.7-0.8-2.8-2.3-2.9c-1.5-0.1-2.3,0.9-2.8,2.6c-0.4,1.7-0.9,3.5-1.8,4.9
		c-2.9,4.9-3.1,9.7,0.1,14.4c2.3,3.5,2.2,6.7,0,10.2c-1.2,1.9-1.8,4.1-2.7,6.2c0.2,0.1,0.3,0.1,0.5,0.2c-0.1,1.9,0.7,3,2.2,3.2
		c1.6,0.1,2.4-0.8,2.9-2.8c0.3-1.6,0.9-3.2,1.8-4.6c3-4.9,3.1-9.8-0.1-14.6C79.6,130.4,79.6,127.1,81.9,123.8z"/>
	<path class="st0" d="M98.8,123.8c1.4-2,2.2-4.3,2.2-6.8c0-1.8-0.8-2.8-2.3-3c-1.5-0.1-2.3,0.9-2.8,2.6c-0.4,1.7-0.9,3.5-1.8,4.9
		c-2.9,4.9-3.1,9.7,0.1,14.4c2.3,3.5,2.2,6.7,0,10.2c-1.2,1.9-1.8,4.1-2.7,6.2c0.2,0.1,0.3,0.1,0.5,0.2c-0.1,1.9,0.7,3,2.2,3.2
		c1.6,0.2,2.4-0.8,2.9-2.8c0.3-1.6,0.9-3.2,1.7-4.6c3-4.9,3.1-9.8-0.1-14.6C96.5,130.4,96.4,127.1,98.8,123.8z"/>
	<path class="st0" d="M65,123.9c1.4-2,2.3-4.2,2.3-6.7c0-1.9-0.8-3-2.3-3.1c-1.5-0.1-2.4,0.9-2.8,2.7c-0.3,1.4-0.7,3-1.5,4.2
		c-3.4,5.2-3.4,10.4,0,15.6c0.8,1.2,1.2,2.7,1.9,4.4c-0.7,1.7-1.2,3.4-2.1,4.9c-1.3,2.2-2.3,4.4-2.3,6.9c0,1.8,0.8,2.9,2.2,3
		c1.6,0.1,2.4-0.8,2.8-2.6c0.4-1.6,0.8-3.3,1.7-4.6c3.1-5,3.2-9.9-0.1-14.8C62.8,130.4,62.7,127.2,65,123.9z"/>
	<path class="st0" d="M175.1,76c-0.1-4-3.4-7.2-7.4-7.2c-4,0.1-7.3,3.3-7.3,7.3c0,4.1,3.4,7.4,7.4,7.3
		C171.9,83.5,175.2,80.1,175.1,76z M165.5,76.2c0-1.2,1-2.2,2.3-2.2c1.2,0,2.3,1.1,2.2,2.3c0,1.2-1.1,2.2-2.3,2.2
		C166.5,78.4,165.5,77.4,165.5,76.2z"/>
	<path class="st0" d="M24.7,75.9c-0.2,4,3.1,7.5,7.1,7.6c4.1,0.1,7.4-3.1,7.5-7.2c0.1-4-3.1-7.3-7.1-7.4
		C28.3,68.8,24.9,71.9,24.7,75.9z M32,73.9c1.3,0,2.3,0.9,2.3,2.2c0,1.2-1,2.3-2.2,2.3c-1.2,0-2.3-1-2.3-2.2
		C29.8,75,30.8,74,32,73.9z"/>
	<path class="st0" d="M51.3,64.7C51.3,64.7,51.3,64.7,51.3,64.7c1.2,0,2.5,0,3.7,0c0.1,0,0.2,0,0.3,0c1.4-0.1,2.3-0.9,2.4-2.3
		c0.1-1.4-0.8-2.6-2.2-2.6c-2.7-0.1-5.4-0.1-8.1,0c-1.4,0.1-2.2,1.1-2.2,2.5c0.1,1.4,0.9,2.3,2.3,2.4C48.9,64.8,50.1,64.7,51.3,64.7
		z"/>
	<path class="st0" d="M73.3,64.8c0.1,0,0.2,0,0.3,0c1.5-0.1,2.5-1.1,2.5-2.4c0-1.3-0.9-2.5-2.4-2.5c-2.6-0.1-5.2-0.1-7.8,0
		c-1.5,0-2.5,1.2-2.4,2.5c0,1.4,1.1,2.4,2.7,2.5c1.2,0.1,2.4,0,3.5,0c0,0,0,0,0,0C70.9,64.8,72.1,64.8,73.3,64.8z"/>
</g>
</svg>
