<?xml version="1.0" encoding="utf-8"?>
<!-- Generator: Adobe Illustrator 25.4.1, SVG Export Plug-In . SVG Version: 6.00 Build 0)  -->
<svg version="1.1" id="Layer_1" xmlns="http://www.w3.org/2000/svg" xmlns:xlink="http://www.w3.org/1999/xlink" x="0px" y="0px"
	 viewBox="0 0 200 200" style="enable-background:new 0 0 200 200;" xml:space="preserve">
<style type="text/css">
	.st0{stroke:#FFFFFF;stroke-width:0.25;stroke-miterlimit:10;}
</style>
<g>
	<path class="st0" d="M162.7,118.6c-4.1-22.5-27.9-36.2-49.5-28.6c-1.8,0.6-3.5,1.4-5.3,2.2c0-3.3,0-6.5,0-9.8c0-12.1,0-24.2,0-36.3
		c0-2-0.9-5.7-3.8-7.8c-1.5-1.1-3.1-1.4-4.2-1.5c-17.8,0-35.6-0.1-53.3-0.2c-1.7,0-5,0.4-7.3,2.7c-2.5,2.5-2.7,5.9-2.7,7.4
		c0,14.1,0,28.2,0,42.2c0,20.3,0,40.7,0,61.1c0,2.6,1.1,4.4,3.3,5.6c0.4,0.2,0.6,0.7,0.7,1.2c0.4,1.8,0.5,2.8,0.8,3.8
		c0.3,0.9,1.2,2,3.8,2.9c18,0,36,0,54,0c3.3-1,4.8-3.3,4.6-6.8c0.4,0.2,0.7,0.3,0.9,0.5c5.1,3.4,10.7,5.5,16.8,6.1
		c0.2,0,0.5,0.1,0.7,0.2c2,0,4,0,5.9,0c2.5-0.5,5.1-0.8,7.5-1.5c14.6-4.6,23.9-14.2,27.1-29.4c0.3-1.2,0.4-2.5,0.6-3.8
		c0-2,0-4,0-5.9C163.2,121.4,163,120,162.7,118.6z M40.3,75.5c0-9.6,0-19.2,0-28.9c0-2.1,0.5-3.7,1.6-4.8c1.6-1.6,3.9-1.6,4.7-1.6
		c28.2-0.6,35.9-0.4,51.3,0c0.8,0,3.1,0.1,4.7,1.6c1.1,1.1,1.6,2.6,1.6,4.7c0,9.7,0,19.4,0,29.1c0,0.4,0,0.8,0,1.2
		c-21.4,0-42.6,0-63.9,0C40.3,76.4,40.3,76,40.3,75.5z M40.3,149.5c0-22.4,0-44.8,0-67.2c0-0.4,0-0.9,0-1.4c21.3,0,42.5,0,63.9,0
		c0,0.4,0.1,0.8,0.1,1.2c0,3.8,0,7.7,0,11.5c0,0.7-0.2,1.2-0.8,1.6c-10.9,8.1-15.8,19.1-15.4,32.5c0.3,9.3,3.7,17.3,10.2,24
		c0.1,0.1,0.2,0.3,0.5,0.7c-0.7,0-1.1,0-1.5,0c-18,0-36.1,0-54.1,0C40.8,152.3,40.3,151.8,40.3,149.5z M97.2,159.7
		c-2.9-0.1-22.7,0-50.1,0c-0.1,0-1.3,0.2-2.2-0.6c-0.8-0.7-1-2-0.5-3.1c18.5,0,37,0,55.5,0c0.2,0.8,0.5,2-0.2,2.8
		C99.1,159.8,97.7,159.7,97.2,159.7z M138.3,156.1c0,0.9-0.3,1.3-1.1,1.6c-4.1,1.4-8.4,2.1-12.8,2c-0.3,0-0.6-0.1-1.1-0.1
		c0-0.5,0-0.9,0-1.4c0-5.4,0-10.9,0-16.4c0-0.6-0.3-1.3-0.7-1.7c-2.6-2.8-4.3-6-5.1-9.7c-0.1-0.4-0.1-0.7-0.2-1.3c2.2,0,4.3,0,6.5,0
		c0-0.5,0-1,0-1.4c0-3.1,0-6.3,0-9.4c0-1.4,0.5-1.9,1.9-1.9c3.9,0,7.8,0,11.8,0c2.6,0,4.8,1.9,4.8,4.4c0.1,4.1,0,8.2-0.2,12.2
		c-0.1,2.7-1.3,5-3.1,7c-0.6,0.7-0.8,1.4-0.8,2.2C138.3,146.9,138.2,151.5,138.3,156.1z M108.7,121.7c-0.4-0.4-0.7-0.9-1-1.4
		c-0.6-0.9-1.1-2.1-2-2.7c-0.8-0.5-1.9-0.5-2.9-0.7c2.8-2.9,8.4-2.3,10.5,1.4c0.7,1.1,1.3,1.6,2.6,1.4c1.3-0.1,2.6,0,4.1,0
		c0,1,0,1.9,0,2.8c0,0.9,0,1.8,0,2.9c-1.4,0-2.8,0-4.1,0c-1.1,0-1.9,0.3-2.5,1.3c-2.3,3.7-7.2,4.4-10.7,1.4c0.2-0.1,0.3-0.2,0.4-0.1
		c1.8,0.4,3-0.4,3.8-2.1c0.5-0.9,1.1-1.7,1.8-2.5C109.2,122.8,109.2,122.3,108.7,121.7z M142,155.4c0-3.3,0.1-6.4,0-9.4
		c-0.1-2.2,0.3-4,1.6-5.9c1.9-2.6,2.6-5.8,2.6-9c0-0.6,0-1.1,0-1.9c1.2,0,2.4,0.1,3.5,0c3.3-0.2,5.9-2.8,6.1-6.1
		c0.2-3.1-1.9-6.2-5-6.8c-1.6-0.3-3.4-0.2-5.1-0.2c-0.8,0-1.4-0.2-2.1-0.8c-1.6-1.7-3.6-2.5-6-2.6c-4.1,0-8.2,0-12.3,0
		c-2,0-3.5,0.9-4.5,2.6c-0.4,0.7-0.8,0.9-1.5,0.8c-0.2,0-0.3,0-0.5,0c-1.6,0.2-2.7-0.3-3.8-1.5c-4.9-5.2-14.3-3.6-17.5,3
		c-0.5,1-0.9,2.1-1.4,3.3c1.7,0,3.2,0,4.7,0c0.9,0,1.9,0,2.8,0.3c0.4,0.1,0.8,0.9,0.9,1.4c0,0.4-0.4,1.2-0.8,1.3
		c-0.9,0.3-1.9,0.4-2.9,0.4c-1.5,0.1-3,0-4.5,0c1.5,8.5,11.1,11.9,17.4,7.5c0.1,0.3,0.2,0.5,0.3,0.7c0.9,3.4,2.6,6.4,4.8,9.1
		c0.3,0.4,0.6,0.9,0.6,1.4c0,5.2,0,10.4,0,15.6c0,0.1-0.1,0.2-0.1,0.4c-13.5-2.3-26.5-13.1-27.6-30.6c-1.2-18.5,10.4-33.3,28-36.3
		c17.5-2.9,33.6,7.3,38.3,24.3C162.9,133.1,155,148.6,142,155.4z M146.1,125.4c0-1.9,0-3.7,0-5.6c1.2,0,2.5-0.1,3.7,0
		c1.3,0.1,2.2,1.4,2.2,2.8c0,1.3-1,2.5-2.3,2.7c-0.3,0.1-0.6,0.1-0.9,0.1C148,125.4,147.1,125.4,146.1,125.4z"/>
	<path class="st0" d="M45.7,67c0.2,0,0.4,0.1,0.5,0.1c1,0,1.9,0,3,0c0-5,0-9.9,0-14.8c-1.2,0-2.4,0-3.5,0
		C45.7,57.3,45.7,62.1,45.7,67z"/>
	<path class="st0" d="M45.8,120.3c1.2,0,2.3,0,3.5,0c0-10.8,0-21.4,0-32.1c-1.2,0-2.3,0-3.5,0C45.8,99,45.8,109.6,45.8,120.3z"/>
	<path class="st0" d="M120.1,106.5c1.2,0,2.4,0,3.6,0c0-1.2,0-2.4,0-3.6c-1.2,0-2.4,0-3.6,0C120.1,104.2,120.1,105.3,120.1,106.5z"
		/>
	<path class="st0" d="M127.6,106.5c1.2,0,2.4,0,3.6,0c0-1.2,0-2.4,0-3.6c-1.2,0-2.4,0-3.6,0C127.6,104.2,127.6,105.4,127.6,106.5z"
		/>
</g>
</svg>
