<?xml version="1.0" encoding="utf-8"?>
<!-- Generator: Adobe Illustrator 25.4.1, SVG Export Plug-In . SVG Version: 6.00 Build 0)  -->
<svg version="1.1" id="Layer_1" xmlns="http://www.w3.org/2000/svg" xmlns:xlink="http://www.w3.org/1999/xlink" x="0px" y="0px"
	 viewBox="0 0 200 200" style="enable-background:new 0 0 200 200;" xml:space="preserve">
<style type="text/css">
	.st0{stroke:#FFFFFF;stroke-width:0.25;stroke-miterlimit:10;}
</style>
<g>
	<path class="st0" d="M37.9,160.2c-4.8-0.9-6.7-3.1-6.7-7.9c0-21.4,0.1-42.9-0.1-64.3c0-4.9,3.2-8.3,7.9-7.9c0.5,0,0.9,0,1.5,0
		c-1.8-14.9,2.3-27.7,13.3-37.8c8.9-8.3,19.7-11.9,31.8-11c24.5,1.9,42.2,24.3,38.4,48.8c0.6,0,1.1,0,1.7,0c11.9,0,23.9,0,35.8,0
		c4.8,0,7.4,2.7,7.4,7.5c0,21.6,0,43.1,0,64.7c0,4.8-1.9,7-6.7,7.9c0,0.8,0,1.5,0,2.3c-0.1,3.5-2.9,6.3-6.4,6.4c-0.3,0-0.6,0-0.8,0
		c-36.7,0-73.3,0-109.9,0c-3.8,0-6.6-2.2-7.1-5.6C37.8,162.3,37.9,161.3,37.9,160.2z M82.3,118.4c1.5-2.1,2.9-3.9,4.2-5.9
		c0.8-1.3,1.9-1.9,3.5-2.2c19.9-3.8,33.5-24.1,29.4-44C115.2,45.9,96.7,33,76,36.1c-20.7,3.2-35.2,24-30.8,44.5
		c3.5,16.2,13.7,26.1,29.8,29.8c1.2,0.3,2.1,0.8,2.8,1.8C79.2,114.3,80.7,116.2,82.3,118.4z M44.9,93.3c-0.1,0.1-0.2,0.1-0.3,0.2
		c0,17.7,0,35.4,0,53.2c1.5,0,2.8,0,4.3,0c0-0.6,0-1.1,0-1.7c0-4.3,2.8-7.1,7.1-7.1c3.3,0,6.6,0,9.9,0c14.2,0,28.4,0,42.6,0
		c4.2,0,7,2.8,7.1,7.1c0,0.6,0,1.2,0,1.7c1.6,0,3,0,4.3,0c0-17.8,0-35.5,0-53.2c-0.5,0.2-0.8,0.4-1,0.8
		c-6.3,10.8-15.5,17.5-27.6,20.4c-0.6,0.1-1.2,0.6-1.6,1.1c-1.8,2.4-3.5,4.8-5.2,7.2c-1.5,2.1-3,2.1-4.5,0.1
		c-1.8-2.4-3.5-4.9-5.3-7.3c-0.4-0.5-1-0.9-1.6-1.1c-12-2.8-21.1-9.5-27.4-20.1C45.5,94.1,45.2,93.7,44.9,93.3z M121.6,88.8
		c2.3,0.3,2.8,0.9,2.8,3.2c0,18.6,0,37.2,0,55.8c0,2.7-0.6,3.3-3.3,3.3c-25.9,0-51.8,0-77.7,0c-2.7,0-3.3-0.6-3.3-3.3
		c0-18.5,0-37,0-55.5c0-2.6,0.3-3,2.9-3.5c-0.2-0.6-0.4-1.1-0.6-1.7c-0.9-2.6-0.9-2.6-3.6-2.6c-2.4,0-3.1,0.7-3.1,3.2
		c0,21.6,0,43.2,0,64.8c0,2.4,0.7,3.1,3.1,3.1c40.9,0,81.7,0,122.6,0c2.5,0,3.1-0.7,3.1-3.1c0-21.6,0-43.2,0-64.8
		c0-2.5-0.7-3.2-3.1-3.2c-11.4,0-22.9,0-34.3,0c-1.3,0-3-0.4-3.9,0.2c-0.9,0.7-1,2.5-1.5,3.8C121.6,88.6,121.7,88.7,121.6,88.8z
		 M157.8,160.1c-38.6,0-77,0-115.4,0c-0.3,3.8,0.2,4.4,3.8,4.4c36,0,72,0,108,0c0.5,0,0.9,0,1.4,0c1.3-0.1,2.1-0.9,2.2-2.2
		C157.8,161.6,157.8,160.9,157.8,160.1z M53.4,146.6c19.3,0,38.5,0,57.7,0c0.4-3.7-0.2-4.4-3.8-4.4c-12.3,0-24.7,0-37,0
		c-4.7,0-9.4,0-14.2,0c-1.8,0-2.6,0.8-2.7,2.6C53.4,145.4,53.4,146,53.4,146.6z"/>
	<path class="st0" d="M72.5,73.7c-1.2-2.1-2.7-2.9-4.7-2.6c-1.3,0.2-2.4-0.3-3.3-1.3c-3.3-3.3-6.6-6.6-9.9-9.9
		c-1.6-1.6-1.6-2.6,0-4.1c3.4-3.4,6.8-6.8,10.2-10.2c1.5-1.5,2.5-1.5,4,0c3.2,3.2,6.4,6.5,9.7,9.7c1.1,1.1,1.7,2.2,1.6,3.8
		c-0.1,2.6,0,2.6,2.3,4.4c0.7-0.7,1.4-1.4,2-2.2c0.2-0.3,0.3-0.9,0.2-1.4c-1.5-9.7,7.4-17.6,16.8-14.9c2.6,0.8,3.1,2.5,1.2,4.5
		c-1,1-1.9,2.1-3,2.9c-1.9,1.4-2.1,3.2-1.7,5.3c1.9,0.3,3.7,0.3,5.1-1.6c1-1.3,2.2-2.3,3.4-3.5c1.5-1.4,3.2-1,3.9,0.9
		c3.4,9-4.8,18.9-14.2,17.4c-1.7-0.3-1.7-0.3-2.8,1.3c0.3,0.3,0.7,0.7,1,1.1c5.2,5.2,10.3,10.3,15.5,15.5c1.8,1.8,1.8,2.7,0,4.4
		c-2.5,2.5-5,5-7.6,7.6c-1.8,1.8-2.7,1.8-4.5,0c-5.2-5.2-10.3-10.3-15.5-15.5c-0.3-0.3-0.7-0.7-1.1-1c-1.2,0.7-1.6,1.5-1.3,2.9
		c1.6,9.3-8.4,17.5-17.3,14.2c-2-0.7-2.4-2.5-0.9-4c1-1.1,2.2-2.2,3.2-3.2c2.1-2.1,2.1-2.1,1.7-5.3c-2-0.3-3.7-0.3-5.1,1.6
		c-0.9,1.2-2.2,2.3-3.3,3.4c-1.6,1.5-3.4,1.1-4.1-1c-3.2-8.9,4.6-18.6,14-17.3c1.4,0.2,2.4-0.1,3.2-1.1C71.6,74.2,72.1,74,72.5,73.7
		z M58.9,58c2.4,2.4,4.9,4.8,7.2,7.3c1.1,1.2,2.2,1.7,3.7,1.5c1.6-0.2,2.8,0.4,3.9,1.6c2.1,2.2,4.2,4.3,6.3,6.4
		c0.3,0.3,0.7,0.7,0.9,0.8c1.2-1.2,2.3-2.3,3.6-3.4c-2.6-2.6-5.2-5.1-7.8-7.8c-0.6-0.6-1.2-1.7-1.1-2.5c0.3-2.3-0.6-4-2.3-5.3
		c-0.9-0.7-1.6-1.5-2.4-2.3c-1.4-1.4-2.8-2.8-4.1-4.2C64.2,52.7,61.6,55.3,58.9,58z M83.5,79.9c5.6,5.6,11.1,11.1,16.6,16.6
		c1.8-1.8,3.6-3.6,5.6-5.6c-5.5-5.5-11-11.1-16.5-16.7C87.1,76.4,85.2,78.2,83.5,79.9z M96.4,49.4c-0.1-0.1-0.1-0.2-0.2-0.2
		c-0.4,0.1-0.8,0.2-1.2,0.3c-4.5,1.5-7.1,6.2-5.7,10.8c0.4,1.4,0.2,2.5-0.9,3.5c-1,0.9-2,1.9-3.2,3.1c0.7,0.6,1.2,1.2,1.9,1.6
		c0.4,0.3,1,0.4,1.5,0.6c1.4,0.5,2.1-0.5,2.8-1.4c1.2-1.4,2.4-1.7,4.3-1.2c4.4,1.2,9-1.4,10.4-5.8c0.1-0.4,0.2-0.8,0.3-1.3
		c-0.1-0.1-0.2-0.2-0.3-0.2c-0.7,0.7-1.3,1.5-2.1,2.2c-0.5,0.4-1.3,0.9-1.9,0.9c-2.2,0.1-4.3,0.1-6.5,0c-1.4,0-2.2-0.9-2.3-2.4
		c0-1.2,0.1-2.5,0-3.7c-0.3-2.6,0.4-4.6,2.5-6.2C96.1,49.8,96.2,49.6,96.4,49.4z M58.4,87.6c0.7-0.8,1.3-1.6,2-2.2
		c0.6-0.5,1.4-0.8,2.1-0.9c2-0.1,4.1-0.1,6.1,0c1.6,0,2.4,0.9,2.5,2.5c0,1.9,0.1,3.9,0,5.8c-0.1,0.9-0.6,1.8-1.1,2.6
		s-1.3,1.3-2.1,2.2c3.9-0.1,8.8-4.7,7.4-10.2c-0.6-2.3-0.2-3.8,1.6-5.2c0.3-0.2,0.6-0.4,0.7-0.7c0.1-1,0.3-2,0-2.9
		c-0.3-0.8-1.2-1.4-2-2.3c-1.2,1.3-2.2,2.3-3.2,3.4c-0.9,1-1.9,1-3.1,0.8c-1.6-0.2-3.3-0.4-4.9-0.1C61,81.1,58.2,84.4,58.4,87.6z"/>
	<path class="st0" d="M128.9,120.1c0-9.3,0-18.7,0-28.1c0-2.4,0.7-3.1,3.1-3.1c8.3,0,16.7,0,25,0c2.4,0,3.1,0.7,3.1,3.1
		c0,18.7,0,37.4,0,56.1c0,2.4-0.7,3.1-3.1,3.1c-8.3,0-16.7,0-25,0c-2.4,0-3.1-0.7-3.1-3.1C128.9,138.8,128.9,129.4,128.9,120.1z
		 M155.5,124.4c0-10.4,0-20.7,0-30.9c-7.4,0-14.7,0-22.1,0c0,10.4,0,20.6,0,30.9C140.8,124.4,148.1,124.4,155.5,124.4z M133.4,129
		c0,6,0,11.8,0,17.6c7.4,0,14.8,0,22,0c0-5.9,0-11.7,0-17.6C148.1,129,140.8,129,133.4,129z"/>
	<path class="st0" d="M137.9,97.9c1.4,0,2.8,0,4.3,0c0,1.4,0,2.8,0,4.3c-1.4,0-2.8,0-4.3,0C137.9,100.8,137.9,99.4,137.9,97.9z"/>
	<path class="st0" d="M151.1,102.2c-1.4,0-2.8,0-4.3,0c0-1.4,0-2.8,0-4.3c1.4,0,2.8,0,4.3,0C151.1,99.3,151.1,100.7,151.1,102.2z"/>
	<path class="st0" d="M142.2,106.8c0,1.4,0,2.8,0,4.3c-1.4,0-2.9,0-4.3,0c0-1.4,0-2.8,0-4.3C139.3,106.8,140.7,106.8,142.2,106.8z"
		/>
	<path class="st0" d="M151.1,111.1c-1.4,0-2.8,0-4.3,0c0-1.4,0-2.8,0-4.3c1.4,0,2.8,0,4.3,0C151.1,108.2,151.1,109.6,151.1,111.1z"
		/>
	<path class="st0" d="M142.1,120c-1.4,0-2.8,0-4.2,0c0-1.4,0-2.8,0-4.3c1.4,0,2.8,0,4.2,0C142.1,117.2,142.1,118.6,142.1,120z"/>
	<path class="st0" d="M146.8,120c0-1.4,0-2.8,0-4.3c1.4,0,2.8,0,4.3,0c0,1.4,0,2.8,0,4.3C149.6,120,148.3,120,146.8,120z"/>
	<path class="st0" d="M144.3,144.5c-3.7-0.1-6.6-3.2-6.5-6.9c0.1-3.6,3.2-6.5,6.8-6.4c3.6,0.1,6.5,3.1,6.5,6.8
		C151.1,141.6,148,144.6,144.3,144.5z M146.7,137.8c0-1.2-1-2.2-2.2-2.2c-1.2,0-2.2,1-2.2,2.2c0,1.2,1,2.3,2.3,2.2
		C145.7,140,146.7,139,146.7,137.8z"/>
</g>
</svg>
