<?xml version="1.0" encoding="utf-8"?>
<!-- Generator: Adobe Illustrator 25.4.1, SVG Export Plug-In . SVG Version: 6.00 Build 0)  -->
<svg version="1.1" id="Layer_1" xmlns="http://www.w3.org/2000/svg" xmlns:xlink="http://www.w3.org/1999/xlink" x="0px" y="0px"
	 viewBox="0 0 200 200" style="enable-background:new 0 0 200 200;" xml:space="preserve">
<style type="text/css">
	.st0{fill:#FFFFFF;}
</style>
<g>
	<path class="st0" d="M37.9,160.17c-4.84-0.86-6.74-3.15-6.74-7.94c0-21.43,0.08-42.86-0.06-64.29c-0.03-4.92,3.17-8.35,7.94-7.9
		c0.45,0.04,0.91,0.01,1.46,0.01c-1.83-14.87,2.28-27.66,13.26-37.85c8.93-8.29,19.7-11.92,31.84-10.99
		c24.51,1.88,42.24,24.3,38.38,48.85c0.57,0,1.11,0,1.66,0c11.94,0,23.88,0,35.81,0c4.81,0,7.45,2.66,7.45,7.49
		c0,21.57,0,43.14,0,64.7c0,4.76-1.87,7.02-6.67,7.93c0,0.75,0.02,1.53,0,2.31c-0.13,3.51-2.9,6.29-6.4,6.44
		c-0.28,0.01-0.56,0.01-0.83,0.01c-36.65,0-73.3,0-109.94,0c-3.8,0-6.61-2.19-7.13-5.64C37.77,162.3,37.9,161.27,37.9,160.17z
		 M82.26,118.44c1.49-2.08,2.92-3.95,4.2-5.92c0.85-1.31,1.94-1.93,3.46-2.22c19.88-3.77,33.49-24.13,29.45-43.97
		c-4.17-20.47-22.71-33.38-43.35-30.19C55.32,39.34,40.77,60.11,45.25,80.6c3.53,16.16,13.68,26.09,29.82,29.79
		c1.21,0.28,2.08,0.82,2.77,1.85C79.22,114.27,80.68,116.23,82.26,118.44z M44.94,93.31c-0.12,0.05-0.23,0.1-0.35,0.16
		c0,17.73,0,35.45,0,53.18c1.47,0,2.84,0,4.34,0c0-0.61,0-1.15,0-1.7c0.02-4.34,2.79-7.11,7.12-7.12c3.29-0.01,6.57,0,9.86,0
		c14.21,0,28.41-0.01,42.62,0c4.25,0,7.02,2.8,7.05,7.05c0,0.58,0,1.16,0,1.72c1.59,0,2.99,0,4.33,0c0-17.8,0-35.48,0-53.17
		c-0.5,0.17-0.77,0.45-0.96,0.77c-6.3,10.75-15.5,17.55-27.64,20.39c-0.6,0.14-1.23,0.62-1.6,1.12c-1.77,2.37-3.46,4.8-5.19,7.21
		c-1.51,2.1-2.99,2.11-4.48,0.05c-1.76-2.44-3.47-4.91-5.27-7.32c-0.37-0.5-1.03-0.95-1.63-1.09c-11.99-2.8-21.1-9.5-27.4-20.06
		C45.49,94.1,45.21,93.71,44.94,93.31z M121.63,88.85c2.29,0.29,2.84,0.91,2.84,3.17c0,18.61,0,37.21,0,55.82
		c0,2.73-0.6,3.32-3.34,3.32c-25.91,0-51.82,0-77.74,0c-2.74,0-3.34-0.59-3.34-3.33c0-18.51,0-37.03,0-55.54
		c0-2.57,0.32-2.97,2.9-3.53c-0.21-0.57-0.42-1.13-0.62-1.69c-0.92-2.58-0.92-2.58-3.63-2.57c-2.43,0.01-3.09,0.67-3.09,3.16
		c0,21.61,0,43.23,0,64.84c0,2.44,0.67,3.11,3.14,3.11c40.86,0,81.72,0,122.57,0c2.46,0,3.14-0.67,3.14-3.11
		c0-21.61,0-43.23,0-64.84c0-2.48-0.66-3.15-3.1-3.15c-11.43,0-22.86,0-34.29,0c-1.33,0-3.04-0.41-3.9,0.25
		c-0.92,0.71-1.04,2.46-1.51,3.76C121.64,88.59,121.65,88.69,121.63,88.85z M157.79,160.14c-38.59,0-77.01,0-115.43,0
		c-0.34,3.76,0.19,4.35,3.82,4.35c35.99,0,71.99,0,107.98,0c0.46,0,0.93,0.02,1.39-0.01c1.32-0.09,2.14-0.88,2.23-2.19
		C157.82,161.61,157.79,160.92,157.79,160.14z M53.38,146.63c19.34,0,38.51,0,57.66,0c0.36-3.73-0.2-4.36-3.8-4.36
		c-12.35,0-24.7,0-37.04,0c-4.72,0-9.43-0.01-14.15,0c-1.83,0.01-2.63,0.8-2.67,2.6C53.37,145.42,53.38,145.97,53.38,146.63z"/>
	<path class="st0" d="M72.46,73.72c-1.25-2.11-2.71-2.9-4.73-2.57c-1.34,0.22-2.36-0.34-3.31-1.32c-3.26-3.35-6.6-6.62-9.89-9.93
		c-1.56-1.57-1.57-2.57-0.02-4.12c3.4-3.41,6.8-6.81,10.21-10.21c1.48-1.48,2.52-1.46,4.02,0.04c3.25,3.23,6.45,6.51,9.74,9.7
		c1.11,1.08,1.66,2.2,1.59,3.78c-0.11,2.63-0.03,2.63,2.34,4.43c0.67-0.71,1.43-1.39,2.03-2.18c0.25-0.34,0.3-0.94,0.23-1.39
		c-1.52-9.71,7.39-17.63,16.77-14.88c2.62,0.77,3.08,2.55,1.16,4.48c-0.98,0.99-1.87,2.1-2.97,2.91c-1.87,1.39-2.13,3.17-1.71,5.29
		c1.95,0.29,3.73,0.31,5.13-1.57c0.96-1.29,2.23-2.35,3.4-3.46c1.49-1.4,3.22-0.98,3.94,0.93c3.39,8.96-4.76,18.94-14.23,17.43
		c-1.69-0.27-1.69-0.27-2.85,1.29c0.33,0.35,0.67,0.72,1.02,1.07c5.17,5.17,10.34,10.34,15.51,15.51c1.76,1.76,1.76,2.69,0.03,4.42
		c-2.52,2.52-5.04,5.04-7.56,7.56c-1.83,1.83-2.72,1.84-4.52,0.04c-5.17-5.17-10.34-10.34-15.51-15.51
		c-0.35-0.35-0.72-0.68-1.07-1.01c-1.19,0.7-1.55,1.5-1.32,2.89c1.57,9.35-8.4,17.5-17.32,14.23c-1.99-0.73-2.41-2.47-0.94-4.01
		c1.05-1.11,2.15-2.16,3.23-3.24c2.11-2.11,2.11-2.11,1.73-5.26c-1.96-0.29-3.74-0.31-5.14,1.58c-0.92,1.25-2.17,2.27-3.3,3.36
		c-1.6,1.53-3.36,1.09-4.09-0.97c-3.16-8.92,4.62-18.59,14.01-17.29c1.44,0.2,2.36-0.08,3.22-1.14C71.6,74.2,72.1,73.98,72.46,73.72
		z M58.87,57.98c2.41,2.4,4.9,4.75,7.22,7.26c1.08,1.16,2.19,1.73,3.73,1.49c1.61-0.25,2.79,0.43,3.89,1.6
		c2.05,2.19,4.23,4.27,6.35,6.39c0.35,0.35,0.71,0.67,0.9,0.85c1.23-1.2,2.35-2.28,3.55-3.45c-2.56-2.56-5.22-5.12-7.76-7.8
		c-0.6-0.64-1.2-1.71-1.1-2.5c0.27-2.34-0.61-3.96-2.35-5.35c-0.86-0.69-1.59-1.55-2.37-2.34c-1.38-1.41-2.76-2.82-4.07-4.16
		C64.15,52.69,61.58,55.27,58.87,57.98z M83.47,79.95c5.57,5.58,11.12,11.13,16.59,16.61c1.76-1.76,3.61-3.61,5.58-5.59
		c-5.46-5.53-11-11.14-16.49-16.7C87.06,76.36,85.23,78.19,83.47,79.95z M96.38,49.37c-0.06-0.08-0.11-0.16-0.17-0.24
		c-0.4,0.09-0.8,0.16-1.18,0.28c-4.52,1.48-7.06,6.2-5.71,10.84c0.41,1.42,0.22,2.49-0.89,3.48c-1.03,0.91-1.97,1.92-3.15,3.07
		c0.71,0.62,1.25,1.2,1.88,1.63c0.43,0.29,1,0.36,1.51,0.55c1.42,0.54,2.13-0.52,2.83-1.36c1.18-1.42,2.44-1.74,4.28-1.24
		c4.44,1.23,9-1.38,10.44-5.76c0.14-0.41,0.2-0.85,0.29-1.27c-0.11-0.07-0.22-0.15-0.33-0.22c-0.69,0.73-1.31,1.54-2.08,2.17
		c-0.54,0.44-1.26,0.88-1.92,0.92c-2.17,0.11-4.34,0.08-6.52,0.03c-1.44-0.03-2.25-0.91-2.29-2.4c-0.03-1.25,0.12-2.51-0.04-3.74
		c-0.32-2.56,0.39-4.62,2.52-6.16C96.06,49.8,96.21,49.57,96.38,49.37z M58.44,87.64c0.67-0.76,1.27-1.61,2.04-2.23
		c0.57-0.46,1.36-0.83,2.08-0.87c2.03-0.11,4.07-0.06,6.1-0.03c1.63,0.02,2.45,0.86,2.48,2.5c0.03,1.94,0.12,3.89-0.04,5.82
		c-0.07,0.88-0.56,1.79-1.07,2.55c-0.51,0.76-1.28,1.35-2.08,2.16c3.92-0.05,8.75-4.66,7.4-10.16c-0.56-2.27-0.17-3.84,1.61-5.18
		c0.26-0.19,0.64-0.44,0.66-0.68c0.09-0.96,0.3-2.02-0.01-2.87c-0.31-0.84-1.2-1.45-1.97-2.31c-1.22,1.29-2.23,2.31-3.18,3.37
		c-0.88,0.98-1.87,1.04-3.13,0.84c-1.61-0.25-3.33-0.44-4.9-0.13C61,81.1,58.21,84.42,58.44,87.64z"/>
	<path class="st0" d="M128.91,120.05c0-9.35,0-18.7,0-28.05c0-2.37,0.69-3.05,3.05-3.06c8.33,0,16.66,0,24.99,0
		c2.36,0,3.06,0.69,3.06,3.05c0,18.7,0,37.4,0,56.11c0,2.36-0.7,3.06-3.05,3.06c-8.33,0-16.66,0-24.99,0
		c-2.36,0-3.05-0.69-3.05-3.06C128.91,138.75,128.91,129.4,128.91,120.05z M155.48,124.43c0-10.39,0-20.68,0-30.94
		c-7.42,0-14.74,0-22.05,0c0,10.36,0,20.62,0,30.94C140.79,124.43,148.08,124.43,155.48,124.43z M133.45,129c0,5.96,0,11.8,0,17.61
		c7.42,0,14.75,0,22.04,0c0-5.92,0-11.73,0-17.61C148.13,129,140.84,129,133.45,129z"/>
	<path class="st0" d="M137.88,97.9c1.41,0,2.78,0,4.26,0c0,1.38,0,2.79,0,4.28c-1.37,0-2.77,0-4.26,0
		C137.88,100.77,137.88,99.37,137.88,97.9z"/>
	<path class="st0" d="M151.05,102.21c-1.43,0-2.79,0-4.26,0c0-1.4,0-2.8,0-4.29c1.39,0,2.79,0,4.26,0
		C151.05,99.31,151.05,100.68,151.05,102.21z"/>
	<path class="st0" d="M142.19,106.82c0,1.45,0,2.82,0,4.26c-1.45,0-2.85,0-4.32,0c0-1.42,0-2.79,0-4.26
		C139.26,106.82,140.66,106.82,142.19,106.82z"/>
	<path class="st0" d="M151.05,111.1c-1.44,0-2.8,0-4.27,0c0-1.41,0-2.81,0-4.3c1.4,0,2.8,0,4.27,0
		C151.05,108.2,151.05,109.57,151.05,111.1z"/>
	<path class="st0" d="M142.13,120.02c-1.45,0-2.78,0-4.22,0c0-1.43,0-2.83,0-4.32c1.38,0,2.77,0,4.22,0
		C142.13,117.15,142.13,118.58,142.13,120.02z"/>
	<path class="st0" d="M146.75,119.97c0-1.43,0-2.79,0-4.26c1.4,0,2.8,0,4.29,0c0,1.39,0,2.79,0,4.26
		C149.65,119.97,148.28,119.97,146.75,119.97z"/>
	<path class="st0" d="M144.28,144.48c-3.67-0.09-6.6-3.22-6.47-6.91c0.12-3.61,3.19-6.48,6.84-6.4c3.6,0.07,6.54,3.15,6.47,6.77
		C151.05,141.63,147.97,144.57,144.28,144.48z M146.67,137.78c-0.02-1.19-1.03-2.18-2.22-2.17c-1.19,0-2.19,0.99-2.21,2.19
		c-0.02,1.25,1.04,2.29,2.29,2.24C145.73,139.99,146.69,138.97,146.67,137.78z"/>
</g>
</svg>
