<?xml version="1.0" encoding="utf-8"?>
<!-- Generator: Adobe Illustrator 25.4.1, SVG Export Plug-In . SVG Version: 6.00 Build 0)  -->
<svg version="1.1" id="Layer_1" xmlns="http://www.w3.org/2000/svg" xmlns:xlink="http://www.w3.org/1999/xlink" x="0px" y="0px"
	 viewBox="0 0 200 200" style="enable-background:new 0 0 200 200;" xml:space="preserve">
<g>
	<path d="M162.72,118.55c-4.13-22.49-27.91-36.22-49.48-28.56c-1.77,0.63-3.48,1.4-5.31,2.15c0-3.31,0-6.53,0-9.75
		c0-12.1,0.01-24.19-0.01-36.29c-0.01-4.89-3.17-8.83-7.97-9.35c-3.33-0.36-6.73-0.07-10.14-0.07c0,1.21,0,2.38,0,3.62
		c2.77,0,5.45,0,8.13,0c4.07,0,6.27,2.21,6.27,6.27c0,9.7,0,19.4,0,29.1c0,0.4,0,0.8,0,1.25c-21.36,0-42.59,0-63.92,0
		c0-0.53,0-0.97,0-1.42c0-9.62,0-19.24,0-28.86c0-4.15,2.19-6.35,6.32-6.36c12.59,0,25.18,0,37.77,0c0.49,0,0.98,0,1.54,0
		c0-1.27,0-2.45,0-3.72c-0.52,0-0.97,0-1.42,0c-12.63,0-25.27,0-37.9,0c-6.17,0-10.03,3.87-10.03,10.06c0,14.08,0,28.16,0,42.23
		c0,20.35,0.01,40.71-0.01,61.06c0,2.57,1.07,4.41,3.35,5.6c0.36,0.19,0.63,0.74,0.73,1.18c0.3,1.27,0.31,2.63,0.78,3.82
		c0.65,1.64,2.24,2.33,3.81,2.9c3.88,0,7.76,0,11.64,0c0-1.19,0-2.38,0-3.73c-1.96,0-3.85,0-5.73,0c-1.36,0-2.72,0-4.09,0
		c-2.14,0-2.71-0.58-2.67-2.73c0-0.28,0.04-0.56,0.07-0.91c18.51,0,36.99,0,55.47,0c0.66,2.6-0.13,3.64-2.77,3.64
		c-11.64,0-23.28,0-34.92,0c-0.49,0-0.98,0-1.65,0c0,1.28,0,2.5,0,3.73c12.88,0,25.77,0,38.65,0c3.26-1.01,4.79-3.26,4.6-6.8
		c0.41,0.22,0.66,0.33,0.89,0.48c5.12,3.42,10.7,5.54,16.85,6.12c0.24,0.02,0.47,0.13,0.7,0.2c1.98,0,3.96,0,5.95,0
		c2.5-0.5,5.06-0.76,7.47-1.53c14.59-4.64,23.89-14.23,27.11-29.39c0.26-1.24,0.4-2.51,0.6-3.77c0-1.98,0-3.96,0-5.95
		C163.19,121.38,162.98,119.96,162.72,118.55z M97.28,152.27c-18.04,0-36.08,0-54.12,0c-2.35,0-2.86-0.5-2.86-2.8
		c0-22.42,0-44.83,0-67.25c0-0.45,0-0.89,0-1.42c21.31,0,42.51,0,63.86,0c0.02,0.37,0.05,0.76,0.05,1.16
		c0,3.84-0.01,7.68,0.02,11.52c0.01,0.72-0.19,1.18-0.8,1.64c-10.9,8.08-15.81,19.07-15.39,32.46c0.29,9.27,3.74,17.32,10.19,24.04
		c0.13,0.14,0.25,0.3,0.54,0.66C98.1,152.27,97.69,152.27,97.28,152.27z M138.28,156.11c0.01,0.89-0.28,1.31-1.12,1.6
		c-4.14,1.42-8.39,2.11-12.77,1.97c-0.32-0.01-0.64-0.07-1.1-0.11c0-0.49,0-0.93,0-1.37c0-5.45,0.02-10.9-0.03-16.35
		c-0.01-0.58-0.3-1.28-0.69-1.7c-2.62-2.77-4.32-6.01-5.12-9.73c-0.08-0.36-0.1-0.72-0.17-1.29c2.2,0,4.26,0,6.5,0
		c0-0.53,0-0.96,0-1.4c0-3.14-0.01-6.27,0-9.41c0.01-1.44,0.5-1.93,1.93-1.94c3.92-0.01,7.84-0.03,11.76,0.01
		c2.58,0.02,4.75,1.86,4.81,4.39c0.09,4.08,0.04,8.17-0.16,12.24c-0.13,2.66-1.32,5.02-3.1,7.01c-0.6,0.68-0.79,1.36-0.78,2.22
		C138.27,146.86,138.24,151.49,138.28,156.11z M108.67,121.68c-0.37-0.44-0.67-0.94-1-1.42c-0.64-0.91-1.11-2.06-1.96-2.67
		c-0.75-0.54-1.93-0.48-2.89-0.67c2.76-2.91,8.36-2.26,10.51,1.4c0.66,1.13,1.35,1.55,2.62,1.44c1.31-0.11,2.63-0.03,4.11-0.03
		c0,0.97,0,1.87,0,2.76c0,0.9,0,1.8,0,2.88c-1.43,0-2.78,0.04-4.12-0.01c-1.13-0.04-1.9,0.32-2.53,1.35
		c-2.28,3.71-7.24,4.37-10.73,1.42c0.19-0.06,0.32-0.16,0.44-0.13c1.85,0.36,3-0.45,3.82-2.06c0.46-0.91,1.11-1.74,1.76-2.54
		C109.22,122.77,109.18,122.27,108.67,121.68z M141.97,155.37c0-3.28,0.08-6.37-0.03-9.45c-0.08-2.16,0.26-4.03,1.56-5.88
		c1.86-2.65,2.55-5.78,2.56-9.03c0-0.57,0-1.15,0-1.93c1.22,0,2.36,0.06,3.49-0.01c3.26-0.2,5.85-2.79,6.12-6.07
		c0.25-3.08-1.92-6.17-5.01-6.76c-1.64-0.31-3.37-0.2-5.06-0.19c-0.84,0-1.45-0.19-2.05-0.83c-1.6-1.7-3.64-2.54-5.97-2.56
		c-4.09-0.03-8.17-0.03-12.26,0c-1.96,0.01-3.53,0.86-4.5,2.58c-0.37,0.66-0.8,0.87-1.48,0.79c-0.16-0.02-0.33-0.02-0.49,0
		c-1.56,0.2-2.66-0.27-3.82-1.51c-4.92-5.24-14.3-3.56-17.47,3.01c-0.5,1.03-0.87,2.11-1.36,3.31c1.69,0,3.21-0.03,4.73,0.01
		c0.92,0.02,1.89,0.01,2.75,0.3c0.43,0.14,0.85,0.89,0.89,1.39c0.03,0.43-0.4,1.17-0.78,1.3c-0.92,0.3-1.94,0.39-2.92,0.43
		c-1.48,0.06-2.97,0.02-4.46,0.02c1.53,8.51,11.12,11.86,17.37,7.52c0.11,0.26,0.24,0.49,0.31,0.74c0.94,3.39,2.61,6.39,4.82,9.12
		c0.31,0.39,0.62,0.92,0.63,1.39c0.04,5.2,0.03,10.4,0.02,15.6c0,0.12-0.05,0.24-0.08,0.35c-13.54-2.3-26.5-13.13-27.61-30.6
		c-1.18-18.54,10.4-33.32,28.02-36.28c17.48-2.94,33.63,7.29,38.34,24.29C162.87,133.08,155.03,148.6,141.97,155.37z M146.1,125.39
		c0-1.95,0-3.71,0-5.56c1.23,0,2.46-0.1,3.66,0.03c1.28,0.14,2.22,1.44,2.21,2.75c-0.02,1.3-1,2.47-2.29,2.71
		c-0.28,0.05-0.57,0.07-0.86,0.07C147.96,125.39,147.1,125.39,146.1,125.39z"/>
	<path d="M45.73,67.02c0.21,0.04,0.37,0.09,0.52,0.09c0.95,0.01,1.89,0,3.03,0c0-4.98,0-9.86,0-14.77c-1.23,0-2.36,0-3.55,0
		C45.73,57.27,45.73,62.12,45.73,67.02z"/>
	<path d="M45.76,120.33c1.21,0,2.32,0,3.52,0c0-10.77,0-21.4,0-32.08c-1.22,0-2.35,0-3.52,0C45.76,98.99,45.76,109.64,45.76,120.33z
		"/>
	<path d="M120.12,106.53c1.23,0,2.4,0,3.56,0c0-1.25,0-2.41,0-3.56c-1.24,0-2.37,0-3.56,0
		C120.12,104.19,120.12,105.32,120.12,106.53z"/>
	<path d="M127.58,106.51c1.24,0,2.41,0,3.56,0c0-1.24,0-2.38,0-3.56c-1.21,0-2.35,0-3.56,0
		C127.58,104.23,127.58,105.36,127.58,106.51z"/>
</g>
</svg>
