<?xml version="1.0" encoding="utf-8"?>
<!-- Generator: Adobe Illustrator 25.4.1, SVG Export Plug-In . SVG Version: 6.00 Build 0)  -->
<svg version="1.1" id="Layer_1" xmlns="http://www.w3.org/2000/svg" xmlns:xlink="http://www.w3.org/1999/xlink" x="0px" y="0px"
	 viewBox="0 0 200 200" style="enable-background:new 0 0 200 200;" xml:space="preserve">
<style type="text/css">
	.st0{fill:#FFFFFF;}
</style>
<g>
	<path class="st0" d="M166.42,35.73c-1.5-2.36-3.92-3.47-6.56-4.12c-23.79,0-47.57,0-71.36,0c-5.6,1.22-8.8,5.33-8.67,12.09
		c0.24,13,0.07,26,0.07,39c0,0.51,0,1.01,0,1.5c-3.74,0-7.31-0.4-10.75,0.07c-17.7,2.43-29.52,12.22-35.55,29.02
		c-0.58,1.63-0.17,2.66,1.08,3.1c1.22,0.43,2.18-0.21,2.72-1.82c6.27-18.51,23.92-29.16,43.15-26.03
		c20.01,3.26,34.41,23.3,31.11,43.31c-3.37,20.43-21.09,34.19-41.66,32.34c-15.96-1.43-29.91-13.5-33.31-29.11
		c-0.78-3.57-0.79-7.31-1.05-10.98c-0.13-1.78-1.3-2.82-2.74-2.2c-1.07,0.46-1.26,1.39-1.3,2.42c-0.4,12.04,3.49,22.5,11.84,31.18
		c20.02,20.8,54.54,15.76,67.86-9.88c0.53-1.03,1.12-1.34,2.25-1.33c9.71,0.05,19.42,0.03,29.13,0.02c0.39,0,0.79-0.01,1.18-0.07
		h9.05c0.19,0.04,0.39,0.06,0.6,0.06c1.65,0.03,3.3,0.06,4.94-0.02c4.72-0.22,8.35-3.03,9.59-7.34c0.11-0.38,0.24-0.74,0.37-1.12
		c0-31.89,0-63.77,0-95.66C167.76,38.67,167.28,37.08,166.42,35.73z M112.05,35.72c8.03,0,16.01,0,24.16,0
		c0,2.06,0.06,4.05-0.02,6.04c-0.05,1.18-0.79,1.88-2.01,1.88c-6.67,0.01-13.34,0.02-20.02,0c-1.31,0-2.07-0.76-2.1-2.08
		C112.02,39.65,112.05,37.74,112.05,35.72z M84.51,85.27c-0.25-0.09-0.56-0.48-0.56-0.73c-0.03-6.85-0.02-13.7-0.02-20.76
		c0.56,0,1.03,0,1.51,0c3.34,0,6.68-0.04,10.02,0.01c3.21,0.05,6.07-0.87,8.86-2.47c13.15-7.52,26.4-7.55,39.58-0.06
		c2.88,1.64,5.81,2.59,9.11,2.53c3.29-0.06,6.59-0.01,9.89-0.01c0.48,0,0.95,0,1.45,0c0,21.53,0,42.88,0,64.32
		c-16.08,0-32.1,0-48.21,0c0-1.6,0-3.18,0-4.89c11.65,2.51,21.98-0.07,30.6-8.41c6.06-5.85,9.19-13.14,9.57-21.54
		c0.76-16.73-11.76-31.4-28.49-33.28C110.09,58,94.55,70.39,92.15,87.88C89.54,87,87.01,86.16,84.51,85.27z M112.9,108.6
		c-0.56-0.38-0.99-0.98-1.38-1.55c-2.05-2.96-4.07-5.93-6.08-8.91c-0.36-0.54-0.75-1.12-0.89-1.73c-1.99-8.55,1.86-17.39,9.46-21.84
		c7.58-4.43,17.15-3.42,23.68,2.51c0.36,0.33,0.69,0.69,1.07,1.01c0.91,0.76,2.01,0.75,2.77,0.01c0.82-0.8,0.87-1.95-0.02-2.86
		c-0.9-0.92-1.85-1.82-2.89-2.56c-7.95-5.65-16.5-6.58-25.21-2.26c-8.66,4.3-13.03,11.66-13.42,21.34c-0.01,0.31,0,0.61,0,1.17
		c-1.33-0.91-2.54-1.69-3.69-2.55c-0.2-0.15-0.25-0.63-0.22-0.95C97.1,74.92,110.1,63.3,124.7,63.79
		c13.96,0.47,25.06,10.22,27.32,23.99c2.47,15.02-8.56,29.95-23.63,32.03c-4.07,0.56-8.08,0.41-12.01-0.83
		c-0.46-0.15-0.95-0.72-1.11-1.21c-0.38-1.12-0.57-2.3-0.89-3.71c5.46,2.26,10.84,2.64,16.3,1.14c13.08-3.6,20.66-17.67,16.49-30.51
		c-0.52-1.61-1.47-2.32-2.64-1.98c-1.27,0.37-1.7,1.49-1.2,3.16c3.46,11.53-3.23,23.17-14.9,25.73
		C122.87,112.82,117.64,111.81,112.9,108.6z M157.31,140.28c-1.25,0-2.49-0.01-3.74,0c-0.05,0-0.09,0-0.14,0.01h-9.72
		c-0.34-0.02-0.69-0.01-1.04-0.01c-9.09,0-18.17,0-27.26,0c-0.51,0-1.02,0-1.6,0c0.57-2.37,1.22-4.49,1.56-6.67
		c0.19-1.26,0.7-1.45,1.8-1.45c15.23,0.03,30.46,0.02,45.69,0.02c0.48,0,0.96,0,1.42,0C164.88,137.45,162.39,140.27,157.31,140.28z
		 M164.39,59.24c0,0.13-0.06,0.25-0.13,0.53c-1.12,0-2.27,0-3.41,0c-2.76,0-5.52-0.01-8.28,0c-2.14,0.01-4.11-0.49-5.98-1.58
		c-14.92-8.7-29.86-8.68-44.83-0.08c-1.14,0.65-2.43,1.4-3.68,1.44c-4.66,0.17-9.33,0.07-14.11,0.07c-0.02-0.4-0.06-0.83-0.06-1.26
		c0-5.39-0.01-10.77,0-16.16c0.01-4.14,2.42-6.58,6.53-6.59c5.43-0.01,10.87,0,16.3,0c0.39,0,0.78,0,1.29,0c0,1.95-0.01,3.76,0,5.58
		c0.02,4.01,2.49,6.47,6.52,6.48c6.41,0.01,12.83,0.01,19.24,0c3.95-0.01,6.39-2.44,6.45-6.41c0.03-1.82,0-3.64,0-5.64
		c4.2,0,8.2,0,12.2,0c2.05,0,4.1-0.05,6.14,0.02c3.15,0.1,5.73,2.6,5.77,5.72C164.45,47.31,164.4,53.28,164.39,59.24z"/>
	<path class="st0" d="M64.68,126.84c-0.86,0.96-1.65,1.21-2.97,0.89c-10.07-2.46-19.28,6.87-16.79,16.93
		c0.73,2.95,3.62,3.82,5.83,1.73c1.13-1.07,2.2-2.21,3.31-3.3c1.07-1.05,2.17-1.14,3.06-0.31c0.92,0.87,0.86,2.05-0.22,3.16
		c-1.15,1.18-2.37,2.29-3.47,3.51c-1.82,2.01-0.99,5.05,1.66,5.52c2.06,0.36,4.3,0.55,6.33,0.16c8.04-1.57,12.74-9.35,10.77-17.39
		c-0.11-0.45-0.15-1.15,0.1-1.43c1.37-1.51,2.84-2.93,4.34-4.45c0.96,1.01,1.83,1.94,2.74,2.9c-0.02,0.04-0.06,0.17-0.14,0.27
		c-2.19,3.07-1.96,5.94,0.71,8.62c2.23,2.24,4.44,4.51,6.72,6.7c3.3,3.17,8.28,3.12,11.4-0.06c3.07-3.12,3.07-8.07-0.06-11.31
		c-2.32-2.4-4.71-4.73-7.08-7.09c-1.58-1.58-3.52-2.11-5.64-1.61c-1.04,0.25-1.99,0.89-2.83,1.29c-0.94-0.83-1.9-1.67-3-2.63
		c1.37-1.32,2.69-2.51,3.91-3.8c0.66-0.7,1.24-0.84,2.2-0.6c10.29,2.58,19.71-6.6,17.24-16.74c-0.34-1.41-1.03-2.46-2.47-2.86
		c-1.38-0.38-2.53,0.1-3.5,1.09c-1.06,1.08-2.13,2.15-3.21,3.21c-1.09,1.06-2.18,1.16-3.06,0.31c-0.94-0.9-0.88-2.04,0.21-3.15
		c1.15-1.18,2.37-2.29,3.48-3.51c1.82-2.01,0.96-4.84-1.65-5.56c-2.23-0.62-4.48-0.64-6.73-0.09c-7.8,1.9-12.32,9.5-10.38,17.36
		c0.12,0.48,0.1,1.21-0.19,1.54c-1.32,1.49-2.76,2.89-4.42,4.58c-0.99-1.11-1.83-2.15-2.77-3.08c-0.97-0.97-2.03-1.84-3-2.7
		c1.38-2.37,1.66-4.55,0.34-6.53c-1.82-2.72-3.76-5.4-5.94-7.84c-2.19-2.45-5.84-2.36-8.28-0.12c-0.98,0.9-1.92,1.86-2.84,2.82
		c-2.62,2.71-2.68,6.36,0.12,8.87c2.21,1.98,4.66,3.7,7.1,5.39c1.89,1.31,3.98,1.39,6.1,0.41c0.29-0.13,0.84-0.17,1.02,0
		c1.82,1.75,3.6,3.55,5.5,5.46C66.97,124.6,65.75,125.65,64.68,126.84z M82.4,137.53c0.91-0.97,1.85-1.92,2.83-2.82
		c0.89-0.82,1.99-0.82,2.86,0.04c2.45,2.39,4.9,4.79,7.23,7.28c0.62,0.66,0.82,1.7,1.02,2.14c-0.07,2.14-0.78,3.36-2.22,4.07
		c-1.48,0.73-3.05,0.68-4.25-0.44c-2.6-2.42-5.09-4.96-7.57-7.51C81.49,139.43,81.59,138.39,82.4,137.53z M57.6,114.04
		c-2.12-1.45-4.19-3-6.17-4.64c-1.33-1.1-1.27-2.2-0.08-3.42c0.84-0.86,1.68-1.72,2.55-2.54c0.87-0.82,2-0.98,2.74-0.09
		c1.89,2.28,3.62,4.71,5.39,7.09c0.17,0.23,0.19,0.58,0.24,0.76C62.24,113.33,59.22,115.15,57.6,114.04z M80.49,105.68
		c2.07-3.41,6.64-5.56,10.1-4.44c-1.04,0.91-1.98,1.65-2.81,2.49c-2.49,2.54-2.51,6.21-0.11,8.61c2.41,2.4,6.05,2.38,8.61-0.11
		c0.85-0.83,1.58-1.78,2.5-2.82c1.11,3.54-1.08,8.09-4.57,10.18c-3.92,2.35-9.04,1.68-12.28-1.6
		C78.71,114.74,78.11,109.59,80.49,105.68z M77.75,119.61c0.88,0.89,1.76,1.76,2.53,2.54c-3.45,3.45-6.99,6.98-10.48,10.46
		c-0.76-0.75-1.67-1.65-2.52-2.49C70.75,126.63,74.26,123.11,77.75,119.61z M67.19,146.65c-1.76,2.98-6.15,5.54-10,4.49
		c0.98-0.91,1.89-1.69,2.72-2.54c2.47-2.56,2.49-6.21,0.09-8.61c-2.4-2.39-6.07-2.36-8.61,0.13c-0.85,0.83-1.6,1.76-2.52,2.79
		c-1.01-3.81,1.22-8.27,4.85-10.3c3.98-2.23,8.96-1.48,12.14,1.83C68.99,137.69,69.5,142.73,67.19,146.65z"/>
	<path class="st0" d="M95.94,39.65c-4.38,0.02-7.96,3.61-7.98,7.99c-0.02,4.49,3.52,8.06,7.99,8.07c4.47,0.01,8.06-3.56,8.06-8.02
		C104,43.25,100.36,39.62,95.94,39.65z M96.02,51.69c-2.27,0.02-4.06-1.76-4.06-4.02c0.01-2.17,1.8-3.99,3.96-4.02
		c2.2-0.03,4.08,1.85,4.07,4.06C99.99,49.9,98.22,51.67,96.02,51.69z"/>
	<path class="st0" d="M152.33,39.64c-4.38,0-7.97,3.55-8.01,7.94c-0.04,4.5,3.47,8.09,7.94,8.11c4.47,0.03,8.1-3.54,8.12-7.98
		C160.39,43.32,156.74,39.65,152.33,39.64z M152.36,51.69c-2.22,0.02-3.99-1.7-4.04-3.9c-0.04-2.26,1.73-4.12,3.96-4.14
		c2.19-0.02,4.09,1.88,4.07,4.07C156.34,49.9,154.55,51.68,152.36,51.69z"/>
</g>
</svg>
