<?xml version="1.0" encoding="utf-8"?>
<!-- Generator: Adobe Illustrator 25.4.1, SVG Export Plug-In . SVG Version: 6.00 Build 0)  -->
<svg version="1.1" id="Layer_1" xmlns="http://www.w3.org/2000/svg" xmlns:xlink="http://www.w3.org/1999/xlink" x="0px" y="0px"
	 viewBox="0 0 200 200" style="enable-background:new 0 0 200 200;" xml:space="preserve">
<style type="text/css">
	.st0{stroke:#FFFFFF;stroke-width:0.25;stroke-miterlimit:10;}
</style>
<g>
	<path class="st0" d="M166.4,35.7c-1.5-2.4-3.9-3.5-6.6-4.1c-23.8,0-47.6,0-71.4,0c-5.6,1.2-8.8,5.3-8.7,12.1c0.2,13,0.1,26,0.1,39
		c0,0.5,0,1,0,1.5c-3.7,0-7.3-0.4-10.8,0.1c-17.7,2.4-29.5,12.2-35.5,29c-0.6,1.6-0.2,2.7,1.1,3.1c1.2,0.4,2.2-0.2,2.7-1.8
		c6.3-18.5,23.9-29.2,43.1-26c20,3.3,34.4,23.3,31.1,43.3c-3.4,20.4-21.1,34.2-41.7,32.3c-16-1.4-29.9-13.5-33.3-29.1
		c-0.8-3.6-0.8-7.3-1-11c-0.1-1.8-1.3-2.8-2.7-2.2c-1.1,0.5-1.3,1.4-1.3,2.4c-0.4,12,3.5,22.5,11.8,31.2c20,20.8,54.5,15.8,67.9-9.9
		c0.5-1,1.1-1.3,2.2-1.3c9.7,0.1,19.4,0,29.1,0c0.4,0,0.8,0,1.2-0.1h9.1c0.2,0,0.4,0.1,0.6,0.1c1.6,0,3.3,0.1,4.9,0
		c4.7-0.2,8.4-3,9.6-7.3c0.1-0.4,0.2-0.7,0.4-1.1c0-31.9,0-63.8,0-95.7C167.8,38.7,167.3,37.1,166.4,35.7z M112.1,35.7
		c8,0,16,0,24.2,0c0,2.1,0.1,4,0,6c-0.1,1.2-0.8,1.9-2,1.9c-6.7,0-13.3,0-20,0c-1.3,0-2.1-0.8-2.1-2.1
		C112,39.7,112.1,37.7,112.1,35.7z M84.5,85.3c-0.2-0.1-0.6-0.5-0.6-0.7c0-6.8,0-13.7,0-20.8c0.6,0,1,0,1.5,0c3.3,0,6.7,0,10,0
		c3.2,0,6.1-0.9,8.9-2.5c13.2-7.5,26.4-7.5,39.6-0.1c2.9,1.6,5.8,2.6,9.1,2.5c3.3-0.1,6.6,0,9.9,0c0.5,0,0.9,0,1.4,0
		c0,21.5,0,42.9,0,64.3c-16.1,0-32.1,0-48.2,0c0-1.6,0-3.2,0-4.9c11.7,2.5,22-0.1,30.6-8.4c6.1-5.8,9.2-13.1,9.6-21.5
		c0.8-16.7-11.8-31.4-28.5-33.3c-17.7-2-33.3,10.4-35.7,27.9C89.5,87,87,86.2,84.5,85.3z M112.9,108.6c-0.6-0.4-1-1-1.4-1.6
		c-2.1-3-4.1-5.9-6.1-8.9c-0.4-0.5-0.8-1.1-0.9-1.7c-2-8.6,1.9-17.4,9.5-21.8c7.6-4.4,17.2-3.4,23.7,2.5c0.4,0.3,0.7,0.7,1.1,1
		c0.9,0.8,2,0.8,2.8,0c0.8-0.8,0.9-1.9,0-2.9c-0.9-0.9-1.9-1.8-2.9-2.6c-7.9-5.7-16.5-6.6-25.2-2.3c-8.7,4.3-13,11.7-13.4,21.3
		c0,0.3,0,0.6,0,1.2c-1.3-0.9-2.5-1.7-3.7-2.6c-0.2-0.2-0.2-0.6-0.2-0.9c1-14.5,14-26.1,28.6-25.6c14,0.5,25.1,10.2,27.3,24
		c2.5,15-8.6,29.9-23.6,32c-4.1,0.6-8.1,0.4-12-0.8c-0.5-0.2-0.9-0.7-1.1-1.2c-0.4-1.1-0.6-2.3-0.9-3.7c5.5,2.3,10.8,2.6,16.3,1.1
		c13.1-3.6,20.7-17.7,16.5-30.5c-0.5-1.6-1.5-2.3-2.6-2c-1.3,0.4-1.7,1.5-1.2,3.2c3.5,11.5-3.2,23.2-14.9,25.7
		C122.9,112.8,117.6,111.8,112.9,108.6z M157.3,140.3c-1.2,0-2.5,0-3.7,0c-0.1,0-0.1,0-0.1,0h-9.7c-0.3,0-0.7,0-1,0
		c-9.1,0-18.2,0-27.3,0c-0.5,0-1,0-1.6,0c0.6-2.4,1.2-4.5,1.6-6.7c0.2-1.3,0.7-1.4,1.8-1.4c15.2,0,30.5,0,45.7,0c0.5,0,1,0,1.4,0
		C164.9,137.4,162.4,140.3,157.3,140.3z M164.4,59.2c0,0.1-0.1,0.2-0.1,0.5c-1.1,0-2.3,0-3.4,0c-2.8,0-5.5,0-8.3,0
		c-2.1,0-4.1-0.5-6-1.6c-14.9-8.7-29.9-8.7-44.8-0.1c-1.1,0.7-2.4,1.4-3.7,1.4c-4.7,0.2-9.3,0.1-14.1,0.1c0-0.4-0.1-0.8-0.1-1.3
		c0-5.4,0-10.8,0-16.2c0-4.1,2.4-6.6,6.5-6.6c5.4,0,10.9,0,16.3,0c0.4,0,0.8,0,1.3,0c0,2,0,3.8,0,5.6c0,4,2.5,6.5,6.5,6.5
		c6.4,0,12.8,0,19.2,0c3.9,0,6.4-2.4,6.4-6.4c0-1.8,0-3.6,0-5.6c4.2,0,8.2,0,12.2,0c2.1,0,4.1,0,6.1,0c3.1,0.1,5.7,2.6,5.8,5.7
		C164.4,47.3,164.4,53.3,164.4,59.2z"/>
	<path class="st0" d="M64.7,126.8c-0.9,1-1.7,1.2-3,0.9c-10.1-2.5-19.3,6.9-16.8,16.9c0.7,2.9,3.6,3.8,5.8,1.7
		c1.1-1.1,2.2-2.2,3.3-3.3c1.1-1.1,2.2-1.1,3.1-0.3c0.9,0.9,0.9,2.1-0.2,3.2c-1.2,1.2-2.4,2.3-3.5,3.5c-1.8,2-1,5.1,1.7,5.5
		c2.1,0.4,4.3,0.6,6.3,0.2c8-1.6,12.7-9.4,10.8-17.4c-0.1-0.4-0.2-1.1,0.1-1.4c1.4-1.5,2.8-2.9,4.3-4.4c1,1,1.8,1.9,2.7,2.9
		c0,0-0.1,0.2-0.1,0.3c-2.2,3.1-2,5.9,0.7,8.6c2.2,2.2,4.4,4.5,6.7,6.7c3.3,3.2,8.3,3.1,11.4-0.1c3.1-3.1,3.1-8.1-0.1-11.3
		c-2.3-2.4-4.7-4.7-7.1-7.1c-1.6-1.6-3.5-2.1-5.6-1.6c-1,0.2-2,0.9-2.8,1.3c-0.9-0.8-1.9-1.7-3-2.6c1.4-1.3,2.7-2.5,3.9-3.8
		c0.7-0.7,1.2-0.8,2.2-0.6c10.3,2.6,19.7-6.6,17.2-16.7c-0.3-1.4-1-2.5-2.5-2.9c-1.4-0.4-2.5,0.1-3.5,1.1c-1.1,1.1-2.1,2.2-3.2,3.2
		c-1.1,1.1-2.2,1.2-3.1,0.3c-0.9-0.9-0.9-2,0.2-3.2c1.2-1.2,2.4-2.3,3.5-3.5c1.8-2,1-4.8-1.7-5.6c-2.2-0.6-4.5-0.6-6.7-0.1
		c-7.8,1.9-12.3,9.5-10.4,17.4c0.1,0.5,0.1,1.2-0.2,1.5c-1.3,1.5-2.8,2.9-4.4,4.6c-1-1.1-1.8-2.2-2.8-3.1c-1-1-2-1.8-3-2.7
		c1.4-2.4,1.7-4.6,0.3-6.5c-1.8-2.7-3.8-5.4-5.9-7.8c-2.2-2.4-5.8-2.4-8.3-0.1c-1,0.9-1.9,1.9-2.8,2.8c-2.6,2.7-2.7,6.4,0.1,8.9
		c2.2,2,4.7,3.7,7.1,5.4c1.9,1.3,4,1.4,6.1,0.4c0.3-0.1,0.8-0.2,1,0c1.8,1.8,3.6,3.6,5.5,5.5C67,124.6,65.8,125.7,64.7,126.8z
		 M82.4,137.5c0.9-1,1.8-1.9,2.8-2.8c0.9-0.8,2-0.8,2.9,0c2.4,2.4,4.9,4.8,7.2,7.3c0.6,0.7,0.8,1.7,1,2.1c-0.1,2.1-0.8,3.4-2.2,4.1
		c-1.5,0.7-3.1,0.7-4.2-0.4c-2.6-2.4-5.1-5-7.6-7.5C81.5,139.4,81.6,138.4,82.4,137.5z M57.6,114c-2.1-1.4-4.2-3-6.2-4.6
		c-1.3-1.1-1.3-2.2-0.1-3.4c0.8-0.9,1.7-1.7,2.5-2.5s2-1,2.7-0.1c1.9,2.3,3.6,4.7,5.4,7.1c0.2,0.2,0.2,0.6,0.2,0.8
		C62.2,113.3,59.2,115.2,57.6,114z M80.5,105.7c2.1-3.4,6.6-5.6,10.1-4.4c-1,0.9-2,1.7-2.8,2.5c-2.5,2.5-2.5,6.2-0.1,8.6
		c2.4,2.4,6.1,2.4,8.6-0.1c0.8-0.8,1.6-1.8,2.5-2.8c1.1,3.5-1.1,8.1-4.6,10.2c-3.9,2.3-9,1.7-12.3-1.6
		C78.7,114.7,78.1,109.6,80.5,105.7z M77.8,119.6c0.9,0.9,1.8,1.8,2.5,2.5c-3.4,3.4-7,7-10.5,10.5c-0.8-0.8-1.7-1.6-2.5-2.5
		C70.8,126.6,74.3,123.1,77.8,119.6z M67.2,146.6c-1.8,3-6.2,5.5-10,4.5c1-0.9,1.9-1.7,2.7-2.5c2.5-2.6,2.5-6.2,0.1-8.6
		c-2.4-2.4-6.1-2.4-8.6,0.1c-0.8,0.8-1.6,1.8-2.5,2.8c-1-3.8,1.2-8.3,4.8-10.3c4-2.2,9-1.5,12.1,1.8C69,137.7,69.5,142.7,67.2,146.6
		z"/>
	<path class="st0" d="M95.9,39.7c-4.4,0-8,3.6-8,8c0,4.5,3.5,8.1,8,8.1s8.1-3.6,8.1-8C104,43.2,100.4,39.6,95.9,39.7z M96,51.7
		c-2.3,0-4.1-1.8-4.1-4c0-2.2,1.8-4,4-4c2.2,0,4.1,1.8,4.1,4.1C100,49.9,98.2,51.7,96,51.7z"/>
	<path class="st0" d="M152.3,39.6c-4.4,0-8,3.5-8,7.9c0,4.5,3.5,8.1,7.9,8.1c4.5,0,8.1-3.5,8.1-8C160.4,43.3,156.7,39.7,152.3,39.6z
		 M152.4,51.7c-2.2,0-4-1.7-4-3.9c0-2.3,1.7-4.1,4-4.1c2.2,0,4.1,1.9,4.1,4.1C156.3,49.9,154.6,51.7,152.4,51.7z"/>
</g>
</svg>
