<?xml version="1.0" encoding="utf-8"?>
<!-- Generator: Adobe Illustrator 25.4.1, SVG Export Plug-In . SVG Version: 6.00 Build 0)  -->
<svg version="1.1" id="Layer_1" xmlns="http://www.w3.org/2000/svg" xmlns:xlink="http://www.w3.org/1999/xlink" x="0px" y="0px"
	 viewBox="0 0 300 300" style="enable-background:new 0 0 300 300;" xml:space="preserve">
<style type="text/css">
	.st0{fill:#252525;}
	.st1{fill:#F5F5F5;}
	.st2{fill:url(#SVGID_1_);}
	.st3{fill:url(#SVGID_00000042730821561284346370000013512439695458678970_);}
	.st4{fill:url(#SVGID_00000163788380560921728950000016495364641394025129_);}
</style>
<circle class="st0" cx="150" cy="150" r="150"/>
<path class="st1" d="M79.2,157.3c0.6-2.5,2-4.7,4-6.3c0.6-0.5,4.4-3.4,9-2c2.5,0.9,4.6,2.8,5.6,5.2l11.1-7.7
	c-0.7-1.1-6.7-10.7-17.7-11.5c-4.3-0.3-8.6,0.7-12.2,2.9l0.1-2.9H65.7v50h13.6V157.3z"/>
<path class="st1" d="M143.1,135.6c-13.5-3-26.8,5.4-29.7,18.9c-1.9,8.1,0.6,16.7,6.4,22.7c8.5,8.9,21.7,9.5,30.5,4.8
	c3.3-1.9,6.3-4.5,8.3-7.6l-10.8-7.1c-2.1,2.1-4.7,3.4-7.6,3.9c-2.6,0.4-5.3,0-7.6-1.1l28.3-18.4
	C160.4,150.7,155.6,138.6,143.1,135.6z M127,160.7c-0.1-0.7-1-5.3,2-9c3.1-3.8,9.1-4.8,14.3-2C137.9,153.4,132.5,157,127,160.7z"/>
<path class="st1" d="M65.1,241c4.2,4.7,9.3,8.5,15,11c2.8,1.3,10.4,4.2,24.5,3.1c3.5-0.3,17-1.6,37-11.4c18.4-9,30.4-19.4,38.8-26.8
	c9.9-8.8,19.1-18.5,27.2-28.9c5.1-6.4,9.8-13,14.2-19.9c4.8-7.4,9-15.1,12.6-23.1c4.4-9.8,11.5-26.1,12.5-47.6
	c0.5-11.7-1-19.5-3.8-26.1c-1.7-4.4-4.1-8.5-7.1-11.9c-5.1-5.7-11.9-9.9-19.4-12c-4.4-1.3-8.9-1.8-13.4-1.7
	c-18.7,0.2-35.8,8.1-41.6,11c-17.4,8.5-33.3,19.7-47.2,33.3c3.5-3.1,7.5-6.5,11.8-9.7c6.6-4.9,11.6-8.1,13.2-9.1
	c1.7-0.9,4.6-2.8,8.6-4.9c5.2-2.8,10.6-5.2,16.3-7.2c3.9-1.4,7.7-2.5,11.7-3.2c4.8-1,9.7-1.6,14.6-1.5c5.3,0,10.5,1,15.4,3.1
	c12.5,5.6,17.6,17.3,18.8,20.1c1.6,3.8,2.5,7.7,2.9,11.7c0.5,5.4,0.4,11-0.1,16.4c-0.5,5-1.5,10-2.8,14.8c-1.1,4.6-2.6,9.1-4.3,13.5
	c-2.8,7.3-6.1,14.4-9.9,21.3l-11.2-20.2l-11.8,20.4l-9.4-20.4h-15.9l25.2,50l11.8-20.7l3.1,3.5c-2.5,3.9-5.6,8.6-9.6,13.9
	c0,0-1.7,2.2-4.4,5.4c0,0-5.1,6.2-10.1,11.5c-17,17.9-37.6,30.3-37.6,30.3c-2.8,1.7-5.4,3.2-9.2,5.1c-18.7,9.3-33.7,10.5-33.7,10.5
	c-5,0.5-10,0.3-14.9-0.6c-2.9-0.5-5.8-1.5-8.6-2.7c-5.7-2.8-10.6-7.1-14.2-12.4c-2.2-3-4-6.4-5.3-9.9c0.7,3.5,1.8,7.1,3.2,10.4
	C59.9,233.6,62.2,237.6,65.1,241z"/>
<linearGradient id="SVGID_1_" gradientUnits="userSpaceOnUse" x1="213.9585" y1="790.222" x2="213.9585" y2="703.3326" gradientTransform="matrix(1 0 0 1 0 -664)">
	<stop  offset="0" style="stop-color:#FFFFFF"/>
	<stop  offset="1" style="stop-color:#696969"/>
</linearGradient>
<path class="st2" d="M200.5,44c6.4-0.6,12.8,0,19.1,1.7c6.6,1.7,12.5,4.9,17.6,9.4c5.8,5.3,10.1,12.2,12.4,19.8
	c1,3.3,1.9,6.7,2.3,10.2c0.7,4.8,0.8,9.7,0.6,14.6c-0.2,4.4-0.7,8.7-1.5,13c-0.7,4.6-1.8,9.1-3.1,13.6h14.9c1.3-4.5,2.2-9,2.9-13.6
	c1.3-7.9,2.8-18.7,0.2-31.7c-1-5-2.5-9.9-4.6-14.5c-2.7-6.1-6.8-11.4-11.8-15.6c-10.7-9.2-23-10.6-28.2-11.2
	c-4.4-0.4-8.9-0.4-13.2,0.1c-6.7,0.6-13.4,2-19.7,4c-9.7,2.9-19.1,7-28,12.1c6.5-3.2,13.2-5.9,20.1-8c4.4-1.3,7.7-2,8.7-2.2
	C193.1,44.9,196.8,44.4,200.5,44z"/>
<linearGradient id="SVGID_00000147921920204831324470000013205793021662387335_" gradientUnits="userSpaceOnUse" x1="141.0975" y1="855.7579" x2="141.0975" y2="937.739" gradientTransform="matrix(1 0 0 1 0 -664)">
	<stop  offset="0" style="stop-color:#FFFFFF"/>
	<stop  offset="1" style="stop-color:#696969"/>
</linearGradient>
<path style="fill:url(#SVGID_00000147921920204831324470000013205793021662387335_);" d="M193.8,213.3c-24.8,24.4-47.3,35.2-53,37.8
	c-5.2,2.4-10.6,4.4-16.3,6.1c-6.4,1.9-13.8,4-23.7,4c-4.4,0.1-8.7-0.3-12.9-1.3c-20.1-4.4-34.5-21.9-35.2-42.5
	c-0.8,4.8-0.8,9.7-0.2,14.5c1,6.9,3.5,13.6,7.2,19.5c1.6,2.6,3.4,5,5.5,7.3c2.3,2.5,4.9,4.7,7.6,6.6c4.7,3.1,9.9,5.3,15.4,6.7
	c11.3,2.8,21.5,1.7,27.6,0.5c28.9-5,52.3-21.3,61.4-27.8c11.8-8.5,22.6-18,32.4-28.6c7.3-7.7,14.1-15.9,20.2-24.4h-17.2
	C207,199.3,200.6,206.5,193.8,213.3z"/>
<linearGradient id="SVGID_00000034049676372913779240000009197497235041963449_" gradientUnits="userSpaceOnUse" x1="218.1026" y1="832.3478" x2="278.1928" y2="832.3478" gradientTransform="matrix(1 0 0 1 0 -664)">
	<stop  offset="0" style="stop-color:#FFFFFF"/>
	<stop  offset="0.17" style="stop-color:#FBFBFB"/>
	<stop  offset="0.33" style="stop-color:#EFEFEF"/>
	<stop  offset="0.49" style="stop-color:#DCDCDC"/>
	<stop  offset="0.65" style="stop-color:#C0C0C0"/>
	<stop  offset="0.81" style="stop-color:#9D9D9D"/>
	<stop  offset="0.97" style="stop-color:#727272"/>
	<stop  offset="1" style="stop-color:#696969"/>
</linearGradient>
<path style="fill:url(#SVGID_00000034049676372913779240000009197497235041963449_);" d="M267.6,170.8v-12.3H255v13.1h-11.7
	c2.9-4.9,5.8-10.3,8.7-16.4c3.1-6.6,5.8-13.4,8.2-20.2h-15.1c-2.8,7.8-6.3,15.5-10.1,23c-0.6,1.3-2.5,4.8-5.3,9.5
	c-4.3,7.2-8.3,13.1-11.6,17.5H255c0,5.5,0,11.2,0,16.7h12.5V185h10.6v-14.2L267.6,170.8L267.6,170.8z"/>
<path class="st1" d="M13.1,135.1v50h13.5v-16.4l5.4-5.6L44.4,185h15.8l-19-30.9l17.7-18.8H43.6c-0.2,0.2-7.4,8.5-7.6,8.6l-9.4,10.7
	v-19.5H13.1z"/>
</svg>
