<?xml version="1.0" encoding="utf-8"?>
<!-- Generator: Adobe Illustrator 25.4.1, SVG Export Plug-In . SVG Version: 6.00 Build 0)  -->
<svg version="1.1" id="Layer_1" xmlns="http://www.w3.org/2000/svg" xmlns:xlink="http://www.w3.org/1999/xlink" x="0px" y="0px"
	 viewBox="0 0 278.3 278.3" style="enable-background:new 0 0 278.3 278.3;" xml:space="preserve">
<style type="text/css">
	.st0{fill:#fff;}
</style>
<path class="st0" d="M92.3,149.6c0.4-1.5,1.3-2.8,2.4-3.8c0.4-0.3,2.7-2.1,5.5-1.2c1.5,0.6,2.8,1.7,3.5,3.2l6.8-4.7
	c-0.4-0.7-4.1-6.5-10.8-7c-2.6-0.1-5.2,0.4-7.5,1.8c0-0.6,0-1.2,0.1-1.8h-8.1v30.6h8.3L92.3,149.6L92.3,149.6z"/>
<path class="st0" d="M131.3,136.3c-8.2-1.8-16.4,3.3-18.2,11.5c-1.1,5,0.3,10.2,3.9,14c5.1,5.4,13.3,5.8,18.6,2.9
	c2.1-1.1,3.8-2.7,5.1-4.7l-6.6-4.4c-1.3,1.3-2.8,2.1-4.7,2.4c-1.6,0.2-3.2,0-4.7-0.7l17.3-11.2C141.9,145.5,139,138.1,131.3,136.3z
	 M121.5,151.6c-0.1-0.4-0.6-3.3,1.2-5.5c1.8-2.2,5.6-2.9,8.8-1.3L121.5,151.6z"/>
<path class="st0" d="M83.6,200.8c2.5,2.9,5.6,5.2,9.2,6.7c1.7,0.8,6.4,2.6,14.9,1.9c2.2-0.1,10.4-1,22.7-6.9
	c11.2-5.5,18.6-11.9,23.8-16.4c6-5.4,11.7-11.3,16.7-17.7c3.1-3.9,6-8,8.6-12.2c2.9-4.5,5.5-9.2,7.7-14.1c2.7-6,7-16,7.6-29.1
	c0.3-7.2-0.6-12-2.3-16c-1-2.6-2.5-5.1-4.4-7.3c-3.2-3.5-7.4-6.1-12-7.3c-2.6-0.8-5.4-1-8.1-1c-11.4,0.1-21.9,5-25.4,6.7
	c-10.6,5.2-20.4,12.1-28.8,20.4c2.2-1.9,4.6-4,7.2-6c4-3,7.1-4.9,8.1-5.6c1-0.6,2.8-1.7,5.2-3c3.2-1.7,6.5-3.2,9.9-4.4
	c2.4-0.8,4.7-1.5,7.2-2c2.9-0.7,5.9-1,9-0.9c3.3,0,6.5,0.6,9.5,1.9c7.6,3.4,10.8,10.6,11.5,12.3c1,2.3,1.5,4.7,1.8,7.2
	c0.3,3.3,0.3,6.7-0.1,10c-0.3,3.1-0.9,6-1.7,9c-0.8,2.8-1.6,5.6-2.6,8.3c-1.7,4.4-3.8,8.8-6,13c-2.3-4.1-4.6-8.3-6.8-12.4l-7.2,12.5
	l-5.8-12.5h-9.7c5.1,10.2,10.3,20.4,15.4,30.6l7.2-12.6l1.9,2.2c-1.5,2.4-3.4,5.3-5.9,8.5c0,0-1,1.4-2.6,3.3c0,0-3.1,3.8-6.2,7
	c-6.9,7.1-14.6,13.3-23,18.5c-1.7,1-3.3,2-5.6,3.1c-11.4,5.6-20.6,6.5-20.6,6.5c-3.1,0.3-6.1,0.2-9.1-0.3c-5.8-1-10.8-4.4-14-9.3
	c-1.3-1.9-2.4-3.9-3.3-6c0.4,2.2,1.1,4.3,1.9,6.4C80.4,196.2,81.9,198.7,83.6,200.8z"/>
<path class="st0" d="M166.5,80.3c3.9-0.3,7.9,0,11.7,1c4,1,7.7,3,10.8,5.7c3.6,3.3,6.3,7.5,7.6,12.2c0.7,2,1.1,4.1,1.5,6.3
	c0.4,3,0.6,6,0.3,9c-0.1,2.6-0.4,5.4-0.9,7.9c-0.5,2.8-1.1,5.6-1.9,8.3h9.1c0.8-2.7,1.4-5.6,1.8-8.3c0.8-4.9,1.7-11.4,0.1-19.4
	c-0.6-3.1-1.5-6-2.8-8.9c-1.7-3.7-4.2-6.9-7.2-9.6c-6.6-5.6-14-6.5-17.2-6.8c-2.7-0.3-5.4-0.2-8.1,0.1c-4.1,0.4-8.1,1.3-12.1,2.4
	c-6,1.8-11.7,4.2-17.1,7.4c4-1.9,8.1-3.6,12.3-4.9c2.6-0.8,4.7-1.2,5.3-1.3C162,80.8,164.2,80.4,166.5,80.3z"/>
<path class="st0" d="M162.4,183.8c-15.2,14.9-28.9,21.5-32.5,23.1c-3.2,1.5-6.5,2.7-9.9,3.7c-3.9,1.1-8.4,2.4-14.5,2.4
	c-2.6,0.1-5.3-0.2-7.9-0.8c-12.3-2.7-21.1-13.4-21.5-26c-0.5,2.9-0.6,5.9-0.1,8.9c0.6,4.2,2.2,8.3,4.4,12c1,1.6,2.2,3.1,3.4,4.5
	c1.4,1.5,3,2.8,4.7,4c2.8,1.9,6,3.3,9.5,4.1c5.6,1.3,11.3,1.4,16.9,0.3c17.7-3.1,32-13,37.6-17c7.2-5.1,13.8-11,19.9-17.5
	c4.4-4.7,8.6-9.7,12.4-14.9h-10.6C170.4,175.3,166.6,179.7,162.4,183.8z"/>
<path class="st0" d="M207.5,157.9v-7.6h-7.6v8.1h-7.2c1.7-3,3.5-6.3,5.3-10c1.9-4,3.5-8.2,5-12.4h-9.3c-1.7,4.8-3.8,9.5-6.2,14
	c-0.4,0.8-1.5,3-3.3,5.8c-2.6,4.4-5.1,8.1-7.1,10.7h22.6c0,3.4,0,6.8,0,10.2h7.6v-10.2h6.5v-8.7L207.5,157.9L207.5,157.9z"/>
<path class="st0" d="M51.9,136v30.6h8.3v-10l3.3-3.4l7.6,13.4h9.7l-11.6-19L80,136.1h-9.4c-0.1,0.1-4.5,5.1-4.7,5.3l-5.8,6.5v-12
	L51.9,136L51.9,136z"/>
</svg>
