<?xml version="1.0" encoding="utf-8"?>
<!-- Generator: Adobe Illustrator 25.4.1, SVG Export Plug-In . SVG Version: 6.00 Build 0)  -->
<svg version="1.1" id="Layer_1" xmlns="http://www.w3.org/2000/svg" xmlns:xlink="http://www.w3.org/1999/xlink" x="0px" y="0px"
	 viewBox="0 0 170.1 35.6" style="enable-background:new 0 0 170.1 35.6;" xml:space="preserve">
<style type="text/css">
	.st0{fill:#12491D;}
	.st1{fill:#40A629;}
	.st2{fill:#333333;}
</style>
<g id="Layer_2_00000160164795446778666450000002007470912713284494_">
	<g id="Layer_1-2">
		<path class="st0" d="M17.4,2.9l0.1-0.1c0.4-0.3,0.8-0.5,1.2-0.7L18.8,2l0,0c0.7-0.4,1.4-0.6,2.2-0.7l0,0h0.2h0.3h0.8h0.3l0,0
			l0.2,0l0,0c0.4,0.1,0.8,0.2,1.2,0.4c-1-0.8-2.3-1.3-3.5-1.5c-2.6-0.3-5.2-0.3-7.7,0.1c-0.7,0.1-1.3,0.2-1.9,0.4
			c-0.8,0.3-1.5,0.8-2.1,1.3L1.9,9C1.4,9.5,1,10,0.7,10.6c-0.3,0.6-0.6,1.3-0.7,2V26c0,0.5,0.1,1.1,0.3,1.6c0.3,1.1,0.9,1.8,3.1,4
			c1,1.1,2.1,2.1,3.2,3C7,34.9,7.5,35.1,8,35.3c0.4,0.1,0.9,0.2,1.4,0.3c-0.8-0.3-1.5-0.8-1.9-1.6c-0.4-0.7-0.6-1.5-0.6-2.2
			c-0.1-0.9-0.2-1.8-0.2-2.8V13.5c4.5-4.7,8.1-8.2,10-10c0.1-0.1,0.3-0.2,0.5-0.4L17.4,2.9z"/>
		<path class="st1" d="M33.1,16.9v-3.5c0-1.4-0.4-2.7-1.1-3.9c-0.3-0.4-0.5-0.7-0.9-1c-3.9-3.9-6.8-6.8-7-6.9s-0.5-0.2-0.5-0.2l0,0
			c-0.2-0.1-0.5-0.2-0.7-0.2l-0.3,0l0,0h-0.3h-0.5h-0.3h-0.3h-0.2l0,0c-0.3,0-0.7,0.1-1,0.2c-0.4,0.1-0.9,0.3-1.3,0.5l0,0
			c-0.5,0.2-0.9,0.5-1.3,0.8l-0.1,0.1l-0.3,0.2c-0.1,0.1-0.3,0.2-0.5,0.4l10.2,10L26.7,29H6.6c0,0.9,0,1.8,0.2,2.7
			c0,0.8,0.2,1.6,0.6,2.3c0.5,0.7,1.2,1.3,2,1.5h14.7c0.5-0.1,1-0.2,1.4-0.4c0.1,0,0.2-0.1,0.4-0.2c1.2-0.7,2.3-1.5,3.3-2.6
			c1.2-1.2,2.3-2.5,3.1-4c0.5-1.2,0.8-2.5,0.8-3.8C33.1,22,33.1,19.5,33.1,16.9z"/>
		<rect x="12.8" y="14.1" class="st2" width="3.2" height="3.2"/>
		<rect x="17.1" y="14.1" class="st2" width="3.2" height="3.2"/>
		<rect x="12.8" y="18.2" class="st2" width="3.2" height="3.2"/>
		<rect x="17.1" y="18.2" class="st2" width="3.2" height="3.2"/>
		<path class="st0" d="M57.3,23c0,1.7-0.6,3.4-1.7,4.7C54.5,29,53,30,51.4,30.6c-1.6,0.6-3.3,0.9-5,0.9c-2.1-0.1-4.1-0.4-6.2-0.9
			v-6.4c1.6,0.7,3.4,1.1,5.2,1.1c0.5,0,1.1-0.1,1.6-0.2c0.6-0.1,1.1-0.4,1.5-0.7c0.5-0.3,0.7-0.8,0.7-1.3c-0.1-0.6-0.4-1.1-0.9-1.4
			c-0.7-0.6-1.5-1.1-2.3-1.5c-0.9-0.5-1.8-1.1-2.7-1.8c-0.9-0.7-1.7-1.6-2.3-2.6c-0.6-1.1-1-2.3-0.9-3.5c0-1.6,0.5-3.3,1.6-4.5
			c1-1.2,2.3-2.2,3.8-2.8c1.5-0.6,3.1-0.9,4.8-0.9c1.9,0,3.7,0.3,5.5,0.7v6.5c-1.3-0.5-2.6-0.7-4-0.8c-0.8,0-1.5,0.1-2.2,0.4
			c-0.8,0.3-1.1,0.7-1.1,1.3c0,0.4,0.3,0.8,0.9,1.3s1.3,1,2.2,1.5c0.9,0.6,1.8,1.2,2.6,1.9c0.9,0.7,1.6,1.6,2.2,2.6
			C57,20.6,57.3,21.8,57.3,23z"/>
		<path class="st0" d="M71.3,16.5c-0.5,1.2-0.9,2.5-1.3,3.7c-0.8-0.5-1.7-0.8-2.6-0.8c-1.1,0-2.1,0.4-2.8,1.1
			c-0.8,0.7-1.2,1.7-1.2,2.8c0,1,0.4,2.1,1.1,2.8c0.8,0.7,1.8,1.1,2.9,1c0.9,0.1,1.7-0.2,2.4-0.7l1.3,3.7c-1.4,0.8-3,1.3-4.6,1.3
			c-2.1,0.1-4.1-0.7-5.6-2.2c-1.4-1.5-2.2-3.5-2.1-5.6c0-2.2,0.8-4.3,2.4-5.9c1.5-1.6,3.7-2.5,5.9-2.4
			C68.7,15.2,70.1,15.6,71.3,16.5z"/>
		<path class="st0" d="M86.1,31.5h-5.4l-2.5-5h-0.6v5h-4.8V15.2h6.1c0.7,0,1.3,0,2,0.1c0.6,0.1,1.2,0.2,1.8,0.4
			c0.6,0.2,1.1,0.6,1.6,1c0.5,0.5,0.8,1,1.1,1.6c0.3,0.7,0.4,1.4,0.4,2.2c0,1-0.2,2-0.7,2.9c-0.4,0.9-1.1,1.6-1.9,2.1
			C84.5,28.3,85.4,30.2,86.1,31.5z M81,21c0-0.5-0.2-1.1-0.6-1.4c-0.5-0.3-1-0.5-1.6-0.5c-0.4,0-0.7,0-1.1,0.1v3.6h0.1
			c0.4,0,0.8,0,1.1,0c0.3,0,0.7-0.1,1-0.2c0.3-0.1,0.6-0.3,0.8-0.5C80.9,21.7,81,21.4,81,21z"/>
		<path class="st0" d="M97.9,15.2l4.2,16.2h-4.8l-0.7-2.1h-3.9l-0.5,2.1H87l4.5-16.2L97.9,15.2z M93.6,25.1h2.2l-1.1-4.2L93.6,25.1z
			"/>
		<path class="st0" d="M116.1,20.7c0,1.2-0.3,2.4-0.9,3.4c-0.3,0.6-0.8,1.1-1.3,1.5c-0.5,0.4-1,0.7-1.6,0.8
			c-0.6,0.2-1.1,0.3-1.7,0.4c-0.6,0.1-1.2,0.1-1.9,0.2c-0.2,0-0.4,0-0.5,0v4.5h-4.8V15.2h7.6c1.4,0,2.8,0.6,3.7,1.6
			C115.6,17.9,116.1,19.3,116.1,20.7z M111.7,21c0-1.1-0.8-1.7-2.4-1.7c-0.4,0-0.8,0-1.2,0.1v3.4h0.6c0.3,0,0.7,0,1-0.1
			c0.3,0,0.7-0.1,1-0.2c0.3-0.1,0.6-0.3,0.8-0.5C111.6,21.7,111.7,21.3,111.7,21L111.7,21z"/>
		<path class="st1" d="M141.1,4.1v27.4h-8V21.4h-6.8v10.1h-7.9V4.1h7.9v10.2h6.8V4.1H141.1z"/>
		<path class="st1" d="M152,24.4c0,1.8-0.6,2.6-1.9,2.6s-1.8-0.9-1.8-2.6v-9.3h-5v10.2c-0.1,1.7,0.5,3.3,1.8,4.5
			c1.3,1.1,3,1.7,4.7,1.6c0.9,0,1.8-0.1,2.7-0.3c0.8-0.2,1.5-0.5,2.2-1c0.7-0.5,1.2-1.1,1.6-1.8c0.4-0.8,0.6-1.7,0.6-2.7V15.2H152
			V24.4z"/>
		<polygon class="st1" points="158.3,15.2 158.3,19.2 161.6,19.2 161.6,31.5 166.6,31.5 166.6,19.2 170.1,19.2 170.1,15.2 		"/>
	</g>
</g>
</svg>
