<?xml version="1.0" encoding="utf-8"?>
<!-- Generator: Adobe Illustrator 25.4.1, SVG Export Plug-In . SVG Version: 6.00 Build 0)  -->
<svg version="1.1" id="Layer_1" xmlns="http://www.w3.org/2000/svg" xmlns:xlink="http://www.w3.org/1999/xlink" x="0px" y="0px"
	 viewBox="0 0 358.9 68.5" style="enable-background:new 0 0 358.9 68.5;" xml:space="preserve">
<style type="text/css">
	.st0{fill:#FFFFFF;}
</style>
<rect y="0" width="68.5" height="68.5"/>
<path class="st0" d="M34.2,8.6c-6.7,17.3-13.3,34.1-19.8,50.9c4.9-2.7,10.1-4.3,15.4-5c0-1,0-1.8,0-3.1c-3.4,0.8-6.7,1.5-10,2.3
	c4.8-12.2,9.5-24.4,14.4-37.1c4.9,12.7,9.7,24.8,14.4,37.1c-3.4-0.8-6.7-1.5-10.1-2.3c0,1.1,0,1.7,0,2.3c0,0.2,0.1,0.5,0.2,0.8
	c5.4,0.7,10.4,2.4,15.5,5.4C47.4,42.7,40.9,25.9,34.2,8.6z"/>
<path class="st0" d="M-69.5,25.2c-2.5,6.4-4.8,12.2-7.1,18.2c0.8,0.5,1.4,1,2.1,1.5c2.3,1.9,4,4,3.7,7.3c-0.3,2.7-0.1,5.5-0.1,8.3
	c1,0,1.8,0,2.9,0c0-3.3-0.1-6.5,0-9.7c0.1-1.1,0.5-2.5,1.1-3.3c1.2-1.6,2.8-2.9,4.4-4.3C-64.8,37.3-67.1,31.5-69.5,25.2z"/>
<g>
	<path class="st0" d="M94.5,13.3h1.8c2.6,6.7,5.8,14.2,9.6,22.7l6.7,14.7c0.3,0.5,0.6,0.9,1,1.2c0.2,0.2,1.7,0.6,4.2,1.4v1.7
		c-3.5-0.2-6.1-0.3-7.7-0.3c-1.7,0-4.6,0.1-8.6,0.3v-1.7c2.3-0.5,3.7-0.9,4.1-1.2s0.6-0.6,0.6-1c0-0.4-0.2-1.1-0.6-2l-2.9-7
		c-4.1,0-7-0.1-8.9-0.1L85.8,42l-3,7.3c-0.5,1.2-0.8,1.9-0.8,2.2c0,0.2,0.1,0.5,0.4,0.6s1.4,0.5,3.4,0.9c0.2,0.1,0.5,0.1,0.9,0.3
		v1.7c-3.3-0.2-5.6-0.3-6.9-0.3c-1.7,0-3.9,0.1-6.6,0.3v-1.7c1.8-0.4,2.9-0.8,3.6-1.3c0.5-0.4,1-1,1.5-1.8c1.1-1.9,3.9-8,8.4-18.4
		L94.5,13.3z M86.9,39.1c2.7,0.1,4.6,0.1,5.7,0.1c0.3,0,3.3,0,8.8-0.1l-7.3-17.3L86.9,39.1z"/>
	<path class="st0" d="M119.5,15.7V14c5.1,0.2,9.2,0.3,12.2,0.3c1.8,0,3.4,0,5-0.1c2-0.1,3.4-0.1,4.2-0.1c3.8,0,6.6,0.9,8.5,2.6
		c1.9,1.8,2.8,4.2,2.8,7.2c0,2-0.4,3.8-1.3,5.4c-0.9,1.6-2.1,2.9-3.7,4c-1.2,0.8-2.8,1.5-5,2l9.6,12.5c1.2,1.6,1.9,2.5,2.2,2.7
		c0.5,0.4,1.1,0.8,1.9,1c1.1,0.4,2.9,0.9,5.4,1.5v1.7c-3-0.2-5.2-0.3-6.6-0.3c-1.6,0-3.2,0.1-4.9,0.3c-0.9-1.4-2-3.2-3.5-5.4
		c-1.5-2.2-2.4-3.5-2.7-3.9c-0.2-0.2-0.4-0.5-0.6-0.7l-6.3-8.7c-1.7,0-3.4-0.2-5.2-0.4l0.2,14.5c0,0.6,0.2,1,0.5,1.3
		c0.5,0.4,1.9,0.8,4.3,1.2c0.4,0.1,0.9,0.2,1.6,0.3v1.7c-3.5-0.2-6.5-0.3-9.2-0.3c-2.8,0-6,0.1-9.5,0.3v-1.7l1.2-0.3
		c2.8-0.5,4.3-1,4.7-1.3c0.4-0.3,0.6-0.9,0.7-1.8c0-0.6,0.1-5.5,0.1-14.8l-0.1-13.5c0-2.1-0.1-3.3-0.2-3.6c-0.1-0.3-0.3-0.5-0.6-0.7
		c-0.9-0.5-2.4-0.9-4.5-1.2C120.6,15.9,120.1,15.8,119.5,15.7z M131.5,33.3c2,0.2,3.5,0.3,4.6,0.3c3.5,0,6.1-0.8,7.8-2.3
		c1.7-1.6,2.5-3.7,2.5-6.5c0-2.4-0.7-4.3-2.2-5.7c-1.5-1.4-3.6-2.1-6.5-2.1c-1,0-3,0.1-6,0.4L131.5,33.3z"/>
	<path class="st0" d="M197.2,47.9l1.2,2.2c-3.1,1.9-6.1,3.4-8.9,4.3c-2.8,0.9-5.8,1.4-8.8,1.4c-3.9,0-7.4-0.9-10.5-2.6
		s-5.5-4.2-7.1-7.5c-1.6-3.2-2.4-6.8-2.4-10.7c0-6.4,2.1-11.6,6.3-15.7s9.7-6.1,16.6-6.1c4.2,0,8.9,0.9,14.1,2.6
		c0,1.7-0.1,3-0.1,3.8c0,2.5,0.1,5,0.4,7.8h-2.4c-0.7-3.4-1.5-5.7-2.3-6.9c-0.8-1.3-2.1-2.3-3.9-3c-1.8-0.8-4-1.1-6.7-1.1
		c-5.6,0-9.8,2-12.6,5.9c-2.2,3.1-3.3,7-3.3,11.6c0,5.6,1.5,10,4.6,13.2s7.1,4.8,12.1,4.8c2.1,0,4.2-0.3,6.3-0.8
		C191.8,50.4,194.2,49.4,197.2,47.9z"/>
	<path class="st0" d="M234.4,32.5l0-2.1l0-6.2l-0.1-5.4c0-0.8-0.1-1.3-0.4-1.5c-0.3-0.3-1.1-0.6-2.2-0.8l-3.9-0.9V14
		c4.4,0.2,7.6,0.3,9.6,0.3c2.2,0,5.2-0.1,9-0.3v1.7c-3.2,0.6-4.9,1.1-5.3,1.2c-0.4,0.2-0.7,0.4-0.8,0.6c-0.2,0.4-0.3,1.4-0.4,3.2
		c0,2.9-0.1,7.8-0.1,14.8l0.1,13.7V50c0,0.9,0.2,1.5,0.5,1.7c0.5,0.4,2.5,0.9,6,1.5v1.7c-5.3-0.2-8.6-0.3-10.1-0.3
		c-2.4,0-5.2,0.1-8.6,0.3v-1.7l5.3-1.2c0.3-0.1,0.6-0.3,0.8-0.6c0.3-0.4,0.4-1.2,0.4-2.3l0.1-13.5c-5.1-0.1-8.9-0.1-11.6-0.1
		c-2.9,0-6,0-9.2,0.1l0.1,13.9c0,1,0.1,1.6,0.3,1.9c0.2,0.3,0.7,0.5,1.5,0.8c0.2,0.1,1.8,0.4,4.7,1v1.7c-4.7-0.2-8-0.3-9.9-0.3
		c-2.4,0-5.3,0.1-8.7,0.3v-1.7c2.1-0.5,3.6-0.8,4.6-1c0.8-0.1,1.3-0.3,1.5-0.6c0.3-0.3,0.4-1,0.4-2c0.1-3.7,0.1-8.9,0.1-15.7
		L208,19.6v-0.9c0-0.7-0.1-1.1-0.3-1.4s-0.7-0.5-1.4-0.6l-4.8-0.9V14c3.9,0.2,7.1,0.3,9.7,0.3c2.7,0,5.7-0.1,9-0.3v1.7l-4.9,0.9
		c-0.6,0.1-1,0.4-1.3,0.6c-0.2,0.3-0.4,0.8-0.4,1.5l-0.1,13.7c3,0.1,6.1,0.1,9.4,0.1C227.2,32.5,231.1,32.5,234.4,32.5z"/>
	<path class="st0" d="M260.7,32h7c2.7,0,4.3-0.1,4.8-0.2c0.5-0.1,0.9-0.4,1.2-0.9c0.3-0.4,0.7-1.7,1.1-3.8c0.1-0.2,0.1-0.5,0.3-1
		h1.9c-0.2,3.2-0.3,5.6-0.3,7.3c0,1.8,0.1,4.2,0.3,7.3H275c-0.6-2.8-0.9-4.3-1-4.7c-0.2-0.5-0.5-0.8-1-1s-1.9-0.3-4.3-0.3h-7.9
		l0.1,16.9H273l1.1,0c1.6,0,2.7-0.1,3.1-0.2c0.7-0.2,1.4-0.7,1.9-1.2c0.6-0.6,1.6-2.2,3.1-5c0.1-0.3,0.4-0.7,0.7-1.2h2
		c-0.2,0.6-1.4,4.2-3.6,10.8c-7-0.2-13.4-0.3-19.2-0.3c-4,0-8.5,0.1-13.4,0.3v-1.7l4.7-1c0.8-0.2,1.2-0.4,1.4-0.6
		c0.3-0.4,0.4-1.1,0.4-2.3v-0.5l0.1-6.8c0-1.3,0-3.9,0-7.7c0-5.6,0-9.6-0.1-12.2s-0.1-4-0.3-4.4c-0.1-0.2-0.3-0.4-0.5-0.6
		s-1.1-0.4-2.7-0.7l-3.1-0.7V14c3.6,0.2,7.9,0.3,12.9,0.3c2.8,0,9.3-0.1,19.6-0.3c0,3.3,0.3,6.6,0.7,9.8h-2
		c-0.8-2.6-1.4-4.4-1.9-5.2c-0.3-0.6-0.7-1-1.2-1.2c-0.6-0.2-2-0.4-4.2-0.4H261l-0.2,9.3L260.7,32z"/>
	<path class="st0" d="M288.1,15.7V14c5.1,0.2,9.2,0.3,12.2,0.3c1.8,0,3.4,0,5-0.1c2-0.1,3.5-0.1,4.2-0.1c3.8,0,6.6,0.9,8.5,2.6
		c1.9,1.8,2.8,4.2,2.8,7.2c0,2-0.4,3.8-1.3,5.4c-0.9,1.6-2.1,2.9-3.7,4c-1.2,0.8-2.8,1.5-5,2l9.6,12.5c1.2,1.6,1.9,2.5,2.2,2.7
		c0.5,0.4,1.1,0.8,1.9,1c1.1,0.4,2.9,0.9,5.5,1.5v1.7c-3-0.2-5.2-0.3-6.6-0.3c-1.6,0-3.2,0.1-4.9,0.3c-0.9-1.4-2-3.2-3.5-5.4
		c-1.5-2.2-2.4-3.5-2.7-3.9c-0.2-0.2-0.4-0.5-0.5-0.7l-6.3-8.7c-1.7,0-3.4-0.2-5.2-0.4l0.2,14.5c0,0.6,0.2,1,0.5,1.3
		c0.5,0.4,1.9,0.8,4.3,1.2c0.4,0.1,0.9,0.2,1.6,0.3v1.7c-3.5-0.2-6.5-0.3-9.2-0.3c-2.8,0-6,0.1-9.5,0.3v-1.7l1.2-0.3
		c2.8-0.5,4.3-1,4.7-1.3c0.4-0.3,0.6-0.9,0.6-1.8c0-0.6,0.1-5.5,0.1-14.8l-0.1-13.5c0-2.1-0.1-3.3-0.2-3.6c-0.1-0.3-0.3-0.5-0.6-0.7
		c-0.9-0.5-2.4-0.9-4.5-1.2C289.2,15.9,288.7,15.8,288.1,15.7z M300.1,33.3c2,0.2,3.5,0.3,4.6,0.3c3.5,0,6.1-0.8,7.8-2.3
		c1.7-1.6,2.5-3.7,2.5-6.5c0-2.4-0.7-4.3-2.2-5.7c-1.5-1.4-3.6-2.1-6.5-2.1c-1,0-3,0.1-6,0.4L300.1,33.3z"/>
	<path class="st0" d="M356.8,25h-2.2c-0.5-2.5-1.1-4.3-1.7-5.4c-0.6-1.1-1.6-2-2.9-2.7c-1.3-0.6-2.8-1-4.4-1c-2.3,0-4.1,0.6-5.5,1.9
		s-2,2.8-2,4.6c0,1.6,0.6,3,1.7,4.2c1.1,1.2,3.8,2.7,8,4.5c4.3,1.8,7.1,3.7,8.7,5.6c1.5,2,2.3,4.2,2.3,6.6c0,2.2-0.6,4.2-1.7,6.1
		c-1.1,1.9-2.9,3.4-5.2,4.5c-2.3,1.1-4.8,1.7-7.4,1.7c-1.8,0-3.6-0.2-5.4-0.5c-1.8-0.3-4-0.9-6.5-1.8c0.3-2.7,0.4-6.3,0.4-10.8h2.2
		c0.6,2.9,1.3,4.9,2,6c0.7,1.2,1.7,2.1,3.1,2.8s2.9,1.1,4.5,1.1c2.3,0,4.2-0.6,6-1.9c1.7-1.3,2.6-3,2.6-5.3c0-1.9-0.6-3.5-1.8-5
		c-1.2-1.4-4-3-8.1-4.8c-4.2-1.8-6.9-3.5-8.3-5.2c-1.4-1.6-2.1-3.6-2.1-5.8c0-2,0.6-3.9,1.7-5.7c1.1-1.8,2.8-3.2,5-4.3
		s4.5-1.6,6.8-1.6c2.8,0,6.3,0.7,10.3,2.1c-0.1,2.8-0.1,4.5-0.1,5.1C356.7,21.4,356.7,23,356.8,25z"/>
</g>
</svg>
