<?xml version="1.0" encoding="UTF-8"?>
<!DOCTYPE svg PUBLIC "-//W3C//DTD SVG 1.1//EN" "http://www.w3.org/Graphics/SVG/1.1/DTD/svg11.dtd">
<!-- Creator: CorelDRAW -->
<svg xmlns="http://www.w3.org/2000/svg" xml:space="preserve" width="6.5in" height="6.5in" shape-rendering="geometricPrecision" text-rendering="geometricPrecision" image-rendering="optimizeQuality" fill-rule="evenodd" clip-rule="evenodd"
viewBox="0 0 6.5 6.5"
 xmlns:xlink="http://www.w3.org/1999/xlink">
 <g id="Layer_x0020_1">
  <metadata id="CorelCorpID_0Corel-Layer"/>
  <path fill="#FFC500" d="M1.6081 4.61444l-0.0531457 -0.0654685 0.131047 -0.166362 0.112972 0.140102 -0.190874 0.0917283zm0.139823 -1.7968c-0.00639764,-0.0155079 -0.0122835,-0.0392402 -0.0309016,-0.0517008l-0.00952756 -0.00637402c-0.0274409,-0.0183583 -0.0789094,-0.0108661 -0.0977677,0.0173189l-0.0159331 0.0238071c-0.0200472,-0.00684252 -0.0559331,0.0114724 -0.0715709,0.0348465l-0.00477953 0.00714173c-0.0207795,0.0310512 -0.0174213,0.0705709 -0.00026378,0.0950551 0.023189,0.0330787 0.00656693,0.0100709 0.0105394,0.0454094 0.00106299,0.00943701 0.0139646,0.0377677 0.0219921,0.0431417l0.00952362 0.00637795c0.0286024,0.0191378 0.0652874,0.0145945 0.0858268,-0.00462598l0.00714173 0.00477953c0.0223937,0.0149843 0.0662874,0.00912992 0.0802756,-0.0117795l0.0175276 -0.0261929 0.047622 0.0318622 0.0519646 0.0419094c-0.00831496,0.0200906 -0.0160827,0.0404449 -0.0232835,0.0610787l-0.0422362 -0.00879921 -0.0289567 -0.0042126 -0.0800079 -0.00873622 0.00191339 -0.00112205 -0.00657874 -0.017626c-0.059311,-0.00862992 -0.119677,-0.0132992 -0.177933,-0.0203701 -0.0237835,-0.00288976 -0.0612677,-0.00512205 -0.0857559,-0.00614173 -0.0228543,-0.000956693 -0.0609134,-0.000720472 -0.0827874,-0.00423622 -0.00125591,-0.0180354 -1.9685e-005,-0.025374 -0.0191969,-0.0307677 -0.012311,-0.00346457 -0.0350157,-0.00571654 -0.0486181,-0.00790551 -0.0113976,-0.0106024 -0.0219646,-0.0240039 -0.0332756,-0.0349409 -0.00698031,-0.00674803 -0.0116929,-0.00966535 -0.0147047,-0.0196614 -0.0026378,-0.00877165 -0.00377953,-0.0157402 -0.0143268,-0.0183504l0.00183071 -0.00155118 -0.0109016 -0.0128465 -0.00137008 0.00152756 -0.00042126 -0.0111024c-0.0231417,-0.00570079 -0.000145669,-0.0166654 -0.0227362,-0.0202953 -0.00298819,-0.000484252 -0.0107913,0.00246063 -0.0135,0.00338189l-0.0180079 -0.0156024 -0.0131378 0.00374803 -0.00361811 -0.015811c-0.0211496,-0.00172835 -0.0239961,0.00616142 -0.0348583,0.0195748 -0.00657874,0.00811811 -0.0189961,0.0209882 -0.0266969,0.0292441 -0.00932283,0.00998819 -0.0480787,0.0510945 -0.0519291,0.0605039l0.0190551 0.00732677c-0.00249213,0.00238189 -0.00390551,0.00206299 -0.00455906,0.00611024l-0.00057874 0.0036063c-0.00119685,0.00744094 0.0288583,0.0277008 0.0272559,0.0377008l-0.000586614 0.00361024c-0.00320866,0.0199606 -0.0725748,0.0252677 -0.0929449,0.0302323 -0.0196929,0.00479528 -0.0202717,0.0223701 -0.0334016,0.0331969 -0.00606299,0.005 -0.00403543,-0.000208661 -0.0108976,0.00477559 -0.00251575,0.00183071 -0.00586614,0.00582283 -0.00892126,0.00750394 -0.00620472,0.00341732 -0.0179685,0.0033937 -0.0273386,0.00188583l-0.0126299 -0.0020315 -0.00595669 -0.0116929 -0.0556732 0.0036811 -0.00129528 -0.00567717c-0.0185079,-0.00311024 -0.0322244,0.00211811 -0.044748,-0.00733071 0.00235827,-0.0146654 0.00275591,-0.0365512 0.00288976,-0.0499213 0.00011811,-0.0119055 0.00654724,-0.0413425 -0.00223622,-0.0462165 -0.00275984,0.0171535 -0.00677165,0.041374 -0.012,0.056185 -0.0024252,0.00687008 -0.00484252,0.0200276 -0.00657087,0.0262008 -0.00420472,0.0150197 -0.00228346,0.00862992 -0.0184567,0.00975591 0.000224409,-0.0029252 -0.00974409,-0.0395433 -0.0113268,-0.0444331 -0.00244488,-0.00757087 -0.0096811,-0.0386929 -0.0156024,-0.0413386l0.0053622 0.0880551 -0.0107402 0.00829528c-0.0160512,-0.00652756 -0.0523465,-0.0709291 -0.0684016,-0.0749016l0.0523622 0.0929961 -0.0114843 0.0282047 -0.00654724 -0.00092126 -0.100634 -0.00764961c0.001,0.0110236 0.0393583,0.0156575 0.0508189,0.0181457 0.0182677,0.0039685 0.0342402,0.011063 0.0532598,0.0141181 -0.00185433,0.0115276 0.00140157,0.0143071 -0.000452756,0.0258386 -0.00125197,0.00777953 -0.0719252,0.0726732 -0.0743386,0.0824409 0.0121417,0.000933071 0.0663701,-0.0492244 0.0831929,-0.0569528l0.00867717 0.0112677 -0.0159094 0.063374 -0.00011811 0.00561417c-0.0207323,-0.00333465 -0.0763307,0.00548031 -0.0990197,0.0063937 -0.032248,0.00130315 -0.0666969,0.00397244 -0.105256,-0.00222835 -0.0154488,-0.00248425 -0.0275591,-0.0128228 -0.0400039,-0.0157244 -0.0155,-0.00360236 -0.0313858,-0.00316142 -0.0490433,-0.006l-0.0160591 0.0087126 -0.0159213 -0.00509449c-0.0030748,-0.00817323 -0.00805118,-0.028563 -0.0192441,-0.0303661l-0.0108268 -0.00174016c-0.0066378,-0.00106693 -0.00505906,0.00473622 -0.0116969,0.00367323l-0.0144331 -0.00232283c-0.00414961,-0.000669291 -0.0127126,-0.0124646 -0.0160118,-0.0155315 0.000240157,0.00344882 0.00320866,0.0145827 0.00309055,0.0153071 -0.000488189,0.00305512 -0.00348425,0.00635433 -0.00505906,0.00843701l-0.012626 -0.0020315 0.00790551 0.0152717c-0.016811,-0.00225591 -0.0231693,-0.0177244 -0.0403858,-0.0204921 -0.0188976,-0.00304331 -0.0419646,0.00934252 -0.0578976,0.014748l0.00137795 0.00466535 -0.00224803 0.000748031c0.000759843,0.00745669 0.0185906,0.0340118 0.0185236,0.0344449 -0.000685039,0.00425591 -0.00483071,0.00746063 -0.00715354,0.00995276 0.0212244,0.00341339 0.0224882,0.0165748 0.0412717,0.0195945l0.0036063 0.00057874c0.0126929,0.00204331 0.018185,-0.00420866 0.0300276,-0.00257087l-0.000870079 0.00541339c-0.000677165,0.00421654 -0.00457874,0.00475591 -0.00744488,0.0117598l0.0108268 0.00174016 0.000511811 0.0258465c0.00962992,-0.00542913 0.00480709,-0.0120394 0.0263268,-0.00857874l0.0036063 0.000582677c0.0066378,0.00106693 0.0033189,0.00608661 0.00995669,0.00715354l0.00901969 0.00145276c0.00972047,0.00156299 0.0194567,-0.00749213 0.022748,-0.0148504 0.0080315,0.00147244 0.008,0.00402756 0.0159488,0.00441339l0.0385394 0.00100394 0.00353543 0.00206299c0.00422441,0.000681102 0.00475591,0.000208661 0.00751181,-0.000641732 0.00290157,0.00270079 0.00259055,0.00411417 0.00663386,0.00476772l0.00721654 0.00116142c0.0196339,0.00315354 0.0428386,-0.0171772 0.0506811,-0.0159134 0.00315354,0.000507874 0.00739764,0.00859449 0.0132756,0.00953937 0.00614567,0.000988189 0.0131811,-0.00678346 0.0164646,-0.0103071 0.0291181,0.0046811 0.0361732,0.0119173 0.0492283,-0.00688976 0.0314252,0.00577165 0.0675315,0.0164134 0.100169,0.0216614 0.019,0.00305512 0.0307283,0.00244094 0.0471535,0.00126772 0.00454331,-0.000326772 0.0449331,0.000586614 0.0468937,0.000901575 0.00281496,0.000452756 0.0142244,0.0156378 0.0175709,0.019185 0.00945276,0.0100276 0.011878,0.00776378 0.0294646,0.0105866 0.00282283,0.0083189 0.00985039,0.0145433 0.0214252,0.0164055l0.00180315 0.000291339c0.0194724,0.00312992 0.062,-0.00352756 0.0662795,-0.0208071 0.015378,0.00247244 0.0231181,0.0119055 0.0388701,0.00967717 0.0136142,-0.0019252 0.0138425,-0.0154567 0.0211181,-0.0259409 0.00473228,0.00328346 0.0524291,0.0213858 0.0611181,0.0227874l0.00721654 0.00115748 0.0201457 0.00112598 0.0415669 -0.0282559c0.00534646,0.00373622 0.0139803,0.00783858 0.0226063,0.00922441l0.00902362 0.00145276c0.00549213,0.000885827 0.00672835,0.000240157 0.0111142,-6.29921e-005 0.0163071,0.0122992 0.0687402,0.0517717 0.0910433,0.0553622l0.00361024 0.00057874c0.0089685,0.00144094 0.0205827,-0.00587402 0.0247992,-0.0120157 0.00310236,-0.00452362 0.0155551,-0.0214685 0.0158622,-0.0221654l0.0201457 0.00112598c0.0074252,0.000527559 0.0278228,0.0269488 0.039815,0.028878l0.0072126 0.00116142c0.0167913,0.00270079 0.0488819,-0.0125 0.0681457,-0.00940157l0.0108268 0.00174016c0.023311,0.00375197 0.0411417,0.0158858 0.0725236,0.0209173 0.0117165,0.00188189 0.0313701,0.00329921 0.0391811,0.00835039 0.00663386,0.00429134 0.0152205,0.0152087 0.0252559,0.0168228 0.00547244,0.000877953 0.013378,-0.00525197 0.0228071,-0.00373622 0.0113268,0.00182283 0.0417441,0.0157953 0.0575748,0.020563 0.0187244,0.00564961 0.0513268,0.00778346 0.0630827,0.0117992l0.0244449 0.0083622c0.00547638,0.00109843 0.00775591,-0.00390945 0.00890157,-0.00855118l0.0162402 0.00261024c0.0133228,0.00214173 0.0114567,0.0162992 0.0265354,0.0192087 0.0115787,0.00223228 0.0275079,-0.0031063 0.0292283,0.0138228l0.0180433 0.00290157 0.000405512 -0.00251969c0.00348425,0.0795079 0.0149921,0.156933 0.0337205,0.231496l-0.0989134 0.0237717 -0.0234252 -0.000299213 0.000771654 -0.0259173 -0.00185433 -0.0114213c-0.00287402,-0.0270945 -0.0476535,-0.0583268 -0.0750315,-0.0554213l-0.00569685 0.000606299c-0.00867323,0.00092126 -0.0102835,0.00239764 -0.0167913,0.00466535 -0.0148465,-0.00781496 -0.0345709,-0.0222638 -0.0568504,-0.0198976l-0.0113976 0.0012126c-0.0328307,0.00348425 -0.0675472,0.0422205 -0.0639646,0.075937l0.00302362 0.0284882c-0.0197795,0.00759449 -0.0355984,0.0446496 -0.0326299,0.0726142l0.000909449 0.00854331c0.00394488,0.0371614 0.0318425,0.0653425 0.0607047,0.0731496 0.0389961,0.0105394 0.0114961,0.00351969 0.037189,0.0281142 0.00685827,0.00656299 0.0349213,0.0200512 0.0445276,0.0190276l0.0113976 -0.00120472c0.0342205,-0.0036378 0.0594724,-0.030622 0.0629331,-0.0585433l0.00854331 -0.000909449c0.0267913,-0.00284252 0.0567402,-0.0354606 0.0540827,-0.0604803l-0.00332677 -0.0313425 0.0569803 -0.00604724 0.0452323 -0.000755906c-0.0149488,0.0489055 -0.0360039,0.120181 -0.0431299,0.137996 -0.00940945,0.0235236 -0.070126,0.172213 -0.0834882,0.183012l-0.0352205 0.0284567 -0.00341339 -0.00422441 -0.0056378 0.00455118c0.00169685,0.0038189 0.00308661,0.00449213 -0.000814961,0.00764173l-0.00254724 0.00265354 -0.0324724 0.0229567 -0.00950394 0.00341339 0.0255591 0.0281969 0.00568898 0.00703937c0.0057874,0.00716535 -0.0729055,0.121346 -0.0832874,0.136677 -0.0150433,0.0222165 -0.0300827,0.0477283 -0.0473071,0.068378 -0.0158386,0.0189803 -0.0317205,0.0517795 -0.0516929,0.0679173l-0.011378 -0.0140827c-0.00901575,0.00695669 -0.0206378,0.00735827 -0.0355433,0.0194094l-0.00140945 0.0011378c-0.0032874,0.00265354 -0.00400787,0.00944882 -0.00135827,0.0127362l0.0091063 0.0112598 -0.00704724 0.00569291c-0.00872835,0.00705512 0.00344882,0.0121181 -0.00188976,0.0204055 -0.0038189,0.00591732 -0.0108504,0.0122047 -0.0167126,0.0188268 -0.0113819,0.012874 -0.022311,0.0294528 -0.0322992,0.0390709 -0.0253976,0.0244488 -0.0480709,0.0512402 -0.071937,0.0773543 -0.0230748,0.0252559 -0.0488819,0.0503189 -0.0741417,0.0758386 -0.0109252,0.0110433 -0.0279213,0.0285669 -0.0390906,0.0383504 -0.011878,0.0104016 -0.0292638,0.0301811 -0.0387165,0.0383858 -0.0286142,0.0248228 -0.054626,0.0498346 -0.0814724,0.0750591 -0.0247047,0.0232126 -0.0661693,0.0522913 -0.0873661,0.0757244 -0.0375157,0.0414685 -0.128665,0.110445 -0.17887,0.151004l-0.0887559 0.0717126c-0.00871654,0.00704331 -0.0301811,0.0011063 -0.0353307,0.00526772l-0.0478976 0.0387008c0.00218898,0.0045315 0.0054252,0.0119134 0.000917323,0.0155512l-0.0309921 0.0250433 0.00682677 0.00844882c-0.00533858,0.00451181 -0.00828346,0.00992126 -0.00417323,0.0150079l0.00775197 0.00961024 -0.142028 0.126811 0.000933071 0.00114173 0.153004 -0.113228 0.00650787 0.00805512c0.00708661,0.00877559 0.0083622,0.00450394 0.0138268,0.00318898 0.0107559,-0.00259449 0.0041063,0.0082126 0.0136732,0.00464173 0.00295669,-0.0011063 0.0226339,-0.0204016 0.0284213,-0.0250748 0.00476378,-0.00385433 0.012189,0.00876772 0.0189646,0.00329528l0.0408543 -0.0330079c0.00871654,-0.00704331 0.00742126,-0.0292756 0.0125709,-0.033437l0.0873504 -0.0705748c0.0619724,-0.0500709 0.121106,-0.0931929 0.184016,-0.14402 0.0310039,-0.0250472 0.0627638,-0.0435039 0.0921654,-0.0674528 0.0289724,-0.0235984 0.0644606,-0.0425472 0.0918976,-0.0649213 0.0541535,-0.0441535 0.127079,-0.0777559 0.181323,-0.118697 0.0240984,-0.018185 0.0653898,-0.0347323 0.0905315,-0.0520945 0.0145827,-0.0100709 0.0325315,-0.017315 0.0451575,-0.025 0.00991339,-0.00603543 0.012622,-0.00709843 0.0219685,-0.0128346 0.0133858,-0.00821654 0.0132953,0.00774803 0.0217953,0.00088189l0.00845669 -0.00683071 0.00910236 0.0112677c0.00274016,0.00338976 0.0118858,0.00435827 0.0152756,0.00161811l0.00423228 -0.00341732c0.00319291,-0.00257874 0.0149252,-0.0202992 0.0222126,-0.0272598l-0.0125157 -0.0154921 0.00422835 -0.00341339c0.00402362,-0.00325197 0.017437,-0.00766535 0.0214567,-0.00802756 0.0116378,-0.00939764 0.11913,-0.0527402 0.139031,-0.0601024 0.0233858,-0.00864567 0.0451811,-0.0190354 0.0685551,-0.0270906 0.0113937,-0.00392913 0.0629606,-0.0205315 0.0699803,-0.025315l0.0302559 0.0412677 0.0327874 -0.0317126 0.00845276 -0.00683071 0.0005 0.00215748 0.00995669 -0.00362205 -0.00455118 -0.00563386 0.00677559 -0.00607087 0.0324016 -0.0232559c0.00603937,-0.000543307 0.0426102,-0.0100787 0.0489331,-0.0120709 0.0170472,-0.00538583 0.0326063,-0.00705118 0.0489252,-0.0120591 0.0280433,-0.00860236 0.0688583,-0.0128661 0.0971102,-0.0170906 0.0177953,-0.00265748 0.114425,-0.0109252 0.163654,-0.0153346 0.00588583,0.00332283 0.0117953,0.0066063 0.017748,0.00982677l-0.0759331 0.227917 -0.025189 0.0392795 -0.043 -0.0286142 -0.0212677 -0.00890945c-0.0488346,-0.0236929 -0.148831,0.0190906 -0.172764,0.0684291l-0.00498425 0.0102717c-0.00758661,0.0156378 -0.00677953,0.0199134 -0.00981496,0.0332992 -0.0288504,0.0168701 -0.0740669,0.0349882 -0.0935512,0.0751457l-0.00996457 0.0205394c-0.0287126,0.0591772 0.000185039,0.158689 0.0609528,0.188173l0.0513543 0.0249134c-0.00800394,0.0414409 0.0379646,0.107236 0.0883583,0.131681l0.0154094 0.00747638c0.0669724,0.0324921 0.144028,0.0150354 0.187638,-0.0255354 0.0589173,-0.054811 0.0180709,-0.0157165 0.0867205,-0.0332323 0.0183268,-0.0046811 0.0707008,-0.0378976 0.0791024,-0.0552126l0.0099685 -0.0205433c0.0299213,-0.0616772 0.0109134,-0.132819 -0.0326417,-0.168087l0.00747638 -0.0154055c0.0038937,-0.0080315 0.00647638,-0.0170866 0.00788976,-0.026685 0.0089685,0.0144921 0.0237835,0.0282559 0.0390157,0.0347756l0.00790551 0.00337795c0.0343543,0.0147008 0.0725709,0.00411024 0.0934764,-0.0172677 0.0282362,-0.0288858 0.00868504,-0.00830709 0.042689,-0.0187283 0.00907874,-0.00278346 0.0345512,-0.020685 0.0383465,-0.0295669l0.00450787 -0.0105354c0.0135394,-0.0316378 0.00231496,-0.0668583 -0.0203661,-0.0835039l0.00338189 -0.00790157c0.0105984,-0.0247717 -0.00324803,-0.0668307 -0.026378,-0.0767283l-0.0289724 -0.0123976 0.0225354 -0.0526811 0.0316181 -0.0588071c0.0768189,0.0160472 0.156433,0.0245 0.238012,0.0245 0.21439,0 0.415161,-0.0582244 0.587429,-0.159713l0.155728 0.182961 0.0205748 0.0418858 -0.0467441 0.0219843 -0.018626 0.0135787c-0.0455472,0.0295276 -0.0606969,0.137228 -0.0308701,0.183244l0.00620866 0.00957874c0.00945669,0.0145906 0.0135315,0.0161063 0.0234134,0.0256339 -0.0005,0.0334173 -0.00839764,0.0814843 0.015878,0.118937l0.0124173 0.0191614c0.0357677,0.0551929 0.135874,0.0819764 0.192555,0.0452362l0.0478976 -0.0310433c0.031311,0.0282992 0.111402,0.0230157 0.158406,-0.00744488l0.0143701 -0.00931496c0.0624646,-0.0404843 0.0874094,-0.115449 0.0752677,-0.173764 -0.0158858,-0.0763071 -0.00484646,-0.026937 0.0145315,-0.085378 0.0267402,-0.00364567 0.0516654,-0.014122 0.0684134,-0.0319252l0.0359252 -0.0382008c0.0341417,0.0183819 0.104441,-0.00388976 0.139701,-0.041374l0.0107795 -0.0114606c0.0468583,-0.0498189 0.0526732,-0.122169 0.0290551,-0.171535 -0.0319016,-0.0666969 -0.00882283,-0.0201614 -0.0053622,-0.0851614 0.000925197,-0.0173543 -0.0138465,-0.0723898 -0.0267244,-0.0845039l-0.0152835 -0.0143701c-0.045878,-0.0431535 -0.113476,-0.0459961 -0.156343,-0.0174724l-0.0114567 -0.0107756c-0.0359213,-0.0337874 -0.116925,-0.0364173 -0.14848,-0.00287008l-0.0395197 0.0420157 -0.0763937 -0.0718543 -0.10585 -0.118996c0.00347244,-0.00461417 0.00692126,-0.00926772 0.0103268,-0.0139331l0.0720787 0.0265748 0.0255669 -0.0693307 0.0239094 0.00881496 0.0114606 -0.0310787 0.0262992 0.00969685 0.0114567 -0.0310827 0.22235 0.0819921 0.012126 -0.0254016 0.289248 0.10665 0.0135512 -0.0191614 0.343445 0.126358c0.00928346,0.0034252 0.0204213,-0.0142992 0.0264291,-0.020126l0.400299 0.144421 0.0228661 -0.0145945 0.171402 0.062252c0.0168898,0.00622835 0.0262717,0.00153937 0.0361181,0.00516929l0.162575 0.0599488c0.00384646,-0.00546063 0.00902756,-0.010252 0.0163622,-0.00754724l0.126713 0.0467283 0.00264173 -0.00717717 0.148232 0.0546575 0.00264567 -0.00716929 0.142142 0.0490276 0.021315 0.0085315 0.00175984 -0.00478346 0.150626 0.0555394 0.00175984 -0.00478346 -0.126713 -0.0467244 0.00176378 -0.00477953 -0.0741142 -0.0273307c-0.00555512,-0.00204724 -0.0117165,-0.0173701 -0.0289291,-0.0243622 -0.0145315,-0.00589764 -0.0307008,-0.0112047 -0.045563,-0.0166811 -0.0308465,-0.011378 -0.0632756,-0.020315 -0.0843071,-0.0365197 -0.0346063,-0.0266772 -0.12315,-0.0508425 -0.172764,-0.0691378l-0.0132677 -0.0217402c-0.0859646,-0.0311457 -0.142047,-0.0599724 -0.227445,-0.0914606 -0.00835827,-0.0115276 -0.0139449,-0.0377362 -0.030063,-0.0436772l-0.427953 -0.157807 -0.00467323 -0.0395984 -0.360736 -0.133161 0.00256693 -0.0289409 -0.310846 -0.11461 0.00484252 -0.0361535 -0.300913 -0.111043 0.0132244 -0.0358622 -0.0239134 -0.00881102 0.0114646 -0.0310827 -0.0262992 -0.00969685 0.0264488 -0.0717244 -0.0692087 -0.0255197 0.000429134 -0.00519291 0.101575 0.00945276 0.0220709 0.00784252 -0.00909449 0.0242795 -0.00193307 0.0114134c-0.00602362,0.0265709 0.0262795,0.0705866 0.053126,0.0766693l0.00558661 0.00126772c0.00850787,0.00192913 0.0105079,0.00104724 0.0173976,0.00100787 0.0115315,0.012185 0.0255394,0.0322283 0.0473858,0.0371811l0.0111772 0.00253543c0.0322008,0.00729528 0.0775591,-0.0181614 0.0850551,-0.0512244l0.00633465 -0.0279449c0.0211732,-0.00080315 0.0481063,-0.0307677 0.0543189,-0.058189l0.00190157 -0.00838189c0.00825984,-0.0364409 -0.00904724,-0.072126 -0.0338465,-0.0888268 -0.0335039,-0.0225669 -0.00974016,-0.00704724 -0.0261181,-0.0386142 -0.00437402,-0.0084252 -0.0265787,-0.030248 -0.036,-0.0323898l-0.0111772 -0.0025315c-0.033563,-0.0076063 -0.0661811,0.00978346 -0.0784606,0.0350945l-0.00838189 -0.00189764c-0.0262795,-0.00596063 -0.0651535,0.0152441 -0.0707126,0.0397835l-0.0069685 0.0307362 -0.0558819 -0.0126693 -0.0537362 -0.0173307 0.449331 -0.238417 0.018378 -0.0102087 0.015311 0.027563 0.0735039 -0.0408346 -0.0102087 -0.018378 0.027563 -0.015311 0.0102087 0.018378 0.064315 -0.0357283 -0.0102087 -0.018378 0.027563 -0.015311 0.0102126 0.018378 0.045937 -0.0255236 -0.0255197 -0.0459409 0.220508 -0.122496 0.015311 0.0275669 0.055126 -0.030626 -0.0105118 -0.0200118 0.0237835 0.000614173 0.0142953 0.00408661 0.045937 -0.0255197 -0.0204173 -0.0367559 0.165386 -0.091874 0.0102047 0.018378 0.055126 -0.030626 0.018378 -0.0102087 0.036752 -0.0204173 -0.0106693 -0.0192638 0.115823 -0.0511693 0.0459409 -0.0255197 0.0132677 -0.0193937 0.00408661 -0.0142953 0.00408268 -0.0142913 0.00408268 -0.0142913 0.00408268 -0.0142953 0.00408268 -0.0142913 0.0684016 -0.0500157 -0.0102087 -0.018378 -0.0786063 0.0316457 -0.0142913 -0.00408661 -0.0193976 -0.0132717 -0.0142913 -0.00408268 -0.0142913 -0.00408268 -0.0234803 0.00101969 -0.064311 0.0357283 -0.0959646 0.0653307 -0.015315 -0.027563 -0.027563 0.015311 -0.00408268 0.0142953 -0.0132756 0.0193937 -0.0102087 -0.018378 -0.055126 0.030626 0.0102087 0.018378 -0.165382 0.091874 -0.015311 -0.027563 -0.045937 0.0255197 -0.027563 0.015311 -0.0551299 0.030622 0.015311 0.0275669 -0.064315 0.0357283 -0.0310394 -0.0559134 0.143339 -0.0665866 0.045937 -0.0255236 0.018378 -0.0102087 0.027563 -0.015311 -0.0107244 -0.0194016 0.088311 -0.0357205 0.064315 -0.0357283 0.00408268 -0.0142953 0.00408661 -0.0142913 0.00408268 -0.0142913 -0.0102087 -0.018378 0.018374 -0.0102047 0.0500236 -0.039811 -0.00510236 -0.00918898 -0.0694173 0.0265394 -0.0142953 -0.00408268 -0.0193937 -0.0132717 -0.0142913 -0.00408661 -0.0234764 0.00102362 -0.0459449 0.0255197 -0.0867756 0.0602244 -0.0102087 -0.018374 -0.027563 0.015311 -0.018374 0.0102087 -0.0459409 0.0255197 0.0102087 0.018378 -0.137819 0.076563 -0.255201 -0.459398 0.0102087 0.018374 0.137815 -0.0765551 0.0102087 0.018374 0.0459409 -0.0255236 0.018378 -0.0102087 0.027563 -0.015311 -0.0107087 -0.0193504 0.0974843 -0.040878 0.045937 -0.0255197 0.0132717 -0.0193937 0.00408268 -0.0142953 -0.00101969 -0.0234764 0.00408268 -0.0142953 0.0592126 -0.0449173 -0.0051063 -0.00918504 -0.0602283 0.021437 -0.018374 0.0102047 -0.0102087 -0.0183701 -0.0142913 -0.00408661 -0.0142953 -0.00408268 -0.0142913 -0.00408661 -0.064315 0.0357283 -0.0775866 0.055126 -0.0102087 -0.018374 -0.027563 0.015311 -0.018378 0.0102087 -0.0459409 0.0255197 -0.132713 0.085748 -0.030622 -0.055126 0.064315 -0.0357283 0.015311 0.027563 0.0551299 -0.030626 0.027563 -0.015311 0.0459409 -0.0255197 -0.0204173 -0.036748 0.165378 -0.091874 0.015315 0.027563 0.055126 -0.030626 -0.0105118 -0.0200118 0.0237835 0.000614173 0.0142913 0.00408661 0.0275669 -0.015315 -0.0157953 -0.0284961 0.106654 -0.0460236 0.064315 -0.0357283 0.0132717 -0.0193976 0.00408268 -0.0142913 0.00408268 -0.0142913 -0.00101969 -0.0234803 0.00408268 -0.0142953 0.0684016 -0.0500157 -0.0102087 -0.018378 -0.0786063 0.0316457 -0.0142913 -0.00408268 -0.0142953 -0.00408661 -0.0142913 -0.00407874 -0.0142874 -0.00408661 -0.0142953 -0.00408268 -0.0234803 0.00101969 -0.0459409 0.0255197 -0.10515 0.070437 -0.0102047 -0.018374 -0.036752 0.0204134 -0.018374 0.0102087 -0.0551339 0.030626 0.0102087 0.018374 -0.165378 0.091874 -0.0204173 -0.036752 -0.045937 0.0255197 -0.00408661 0.0142913 -0.0132717 0.0193976 -0.0102087 -0.018378 -0.055126 0.030626 0.015315 0.027563 -0.220512 0.1225 -0.0255197 -0.0459409 -0.0459409 0.0255197 0.0102087 0.018378 -0.0275669 0.015311 -0.0102087 -0.018378 -0.064315 0.0357283 0.0106811 0.019815 -0.0331378 0.00468504 -0.0142953 -0.00408268 -0.064315 0.0357283 0.015311 0.027563 -0.018374 0.0102087 -0.472661 0.274598 0.00315748 0.00568898c-0.0450354,-0.0235591 -0.0918189,-0.0442402 -0.140091,-0.061811l0.0510669 -0.230988 0.0192717 -0.0382953 0.0420236 0.0220472 0.0202835 0.00611024c0.0468819,0.0169921 0.134173,-0.0316457 0.151339,-0.0790118l0.0035748 -0.0098622c0.00544094,-0.0150118 0.00429921,-0.0188425 0.00579134,-0.0313701 0.0247598,-0.0181614 0.0643465,-0.0390354 0.0783189,-0.0775866l0.00714567 -0.0197205c0.0205906,-0.056811 -0.0153071,-0.144988 -0.0736496,-0.166134l-0.0492992 -0.0178701c0.0033622,-0.0386299 -0.0449252,-0.0943661 -0.0933071,-0.111902l-0.0147913 -0.0053622c-0.0642992,-0.0233031 -0.133043,0 -0.169024,0.0412323 -0.0486142,0.0557047 -0.0150157,0.0160866 -0.0760748,0.0386457 -0.0163071,0.00601969 -0.0609961,0.041374 -0.0670197,0.058l-0.00714961 0.0197165c-0.0214606,0.0592165 0.00269685,0.122417 0.0458622,0.150484l-0.0053622 0.0147913c-0.0168031,0.0463622 0.0128504,0.121787 0.0561496,0.13748l0.0542283 0.0196535 -0.0357362 0.0986024 -0.0672323 0.144039c-0.0725354,-0.0175197 -0.14772,-0.0282244 -0.224858,-0.031374l-0.492445 -1.37703c-0.00382677,-0.0107087 -0.0179449,-0.0122598 -0.0291063,-0.00827165l-0.781594 0.279508c-0.0160236,0.00573228 -0.022748,0.0199528 -0.0170236,0.0359724l0.489142 1.3678c0.000566929,0.00159055 0.00107874,0.0028937 0.00157087,0.00398425 -0.108811,0.0993268 -0.198638,0.219106 -0.263402,0.353236l-0.0912323 -0.0451496 -0.0177913 -0.0152362 0.0171969 -0.0194016 0.00589764 -0.00996063c0.0151535,-0.0226457 0.000783465,-0.075315 -0.0220945,-0.090622l-0.00476378 -0.00318898c-0.00725197,-0.00485039 -0.00943307,-0.00474409 -0.015878,-0.00717717zm0.659047 2.02326l-0.0409685 -0.0198819 0.0498268 -0.102701 0.0772402 -0.128638c0.040937,0.0162913 0.0830354,0.030311 0.126106,0.0419213l-0.0275394 0.0979173 -0.0116969 0.0202992 -0.0222362 -0.0133268 -0.010878 -0.00396063c-0.0250512,-0.0107165 -0.0741693,0.0131142 -0.0849961,0.0384252l-0.00225591 0.00526772c-0.00343307,0.00801969 -0.0029252,0.0101457 -0.00412598,0.0169291 -0.0140669,0.00914567 -0.0363071,0.0193071 -0.0451181,0.0399055l-0.00335827 0.00784252zm1.51054 -0.206335c-0.0367205,-0.0178268 -0.083,-0.0220118 -0.110697,-0.00406299l-0.052685 0.0341496 -0.0620827 -0.0957913 -0.0702402 -0.132945c0.0512205,-0.0389016 0.0991339,-0.0819606 0.143193,-0.128685l0.192205 0.138571 0.0275354 0.0328622 -0.0368819 0.0298622 -0.0136417 0.0162047c-0.021189,0.0225276 -0.0253543,0.0693071 -0.0167047,0.109835zm-1.19413 -2.30093l-0.0355276 -0.0993543c-0.00277165,-0.00775197 0.000755906,-0.0152165 0.00850787,-0.0179882l0.10598 -0.0378976c0.00762992,-0.00272835 0.0107598,-0.00124803 0.0134921,0.00638189l0.0378976 0.10598c0.00277165,0.00775197 -0.000759843,0.0152126 -0.00850787,0.0179843l-0.0993583 0.0355315c-0.00772441,0.00275984 -0.0197205,-0.00291339 -0.0224843,-0.0106378zm-0.414681 0.166972l-0.0993583 0.0355315c-0.00775197,0.00277165 -0.0152087,-0.000755906 -0.0179803,-0.00851181l-0.0379016 -0.105976c-0.0036378,-0.0101811 0.00496457,-0.0167205 0.0151378,-0.0203583l0.0927283 -0.0331575c0.00772441,-0.00276378 0.0197205,0.00291339 0.0224803,0.0106378l0.0355315 0.0993543c0.00276378,0.00772441 -0.00291732,0.0197165 -0.0106378,0.0224803zm0.335331 -0.388866l-0.0331614 -0.0927323c-0.00276378,-0.00772441 0.00291732,-0.0197205 0.0106378,-0.0224803l0.0993583 -0.0355315c0.00775197,-0.00277165 0.0152126,0.000755906 0.0179843,0.00850787l0.0367126 0.102669c0.00277165,0.00775197 -0.000755906,0.0152126 -0.00850787,0.0179843l-0.0960433 0.0343504c-0.00894882,0.00319291 -0.00969685,0.0016811 -0.017748,0.0026063 -0.00438583,-0.00680709 -0.0060315,-0.00643307 -0.00923228,-0.015374zm-0.401433 0.162232c-0.00681102,0.00438976 -0.00642913,0.00603937 -0.015378,0.00923622l-0.0960433 0.0343465c-0.00775197,0.00277165 -0.0152087,-0.000755906 -0.0179843,-0.00850787l-0.0367165 -0.102669c-0.00277165,-0.00775197 0.000759843,-0.0152126 0.00850787,-0.0179843l0.0993583 -0.0355315c0.00772047,-0.00275984 0.0197205,0.00291339 0.0224843,0.0106378l0.0331614 0.0927323c0.00151181,0.00422835 0.00283858,0.0147205 0.00261024,0.0177402zm0.323264 -0.380815l-0.0355276 -0.0993543c-0.00275984,-0.00772441 0.00291339,-0.0197205 0.0106378,-0.0224843l0.0927283 -0.0331614c0.0101693,-0.00363386 0.0209685,-0.00403937 0.0246102,0.00614173l0.0379016 0.10598c0.00364173,0.0101811 -0.00496457,0.0167165 -0.0151339,0.0203543l-0.0927323 0.0331614c-0.00772441,0.00276378 -0.0197205,-0.00291732 -0.0224843,-0.0106378zm-0.26826 0.0959331l-0.0355276 -0.0993543c-0.00277165,-0.00775197 0.000755906,-0.0152126 0.00850787,-0.0179882l0.10598 -0.0378976c0.00775197,-0.00277165 0.0152126,0.000759843 0.0179882,0.00850787l0.0355276 0.0993583c0.00276378,0.00772047 -0.00291339,0.0197165 -0.0106339,0.0224803l-0.0993583 0.0355315c-0.00772441,0.00275984 -0.0197205,-0.00291339 -0.0224843,-0.0106378zm-0.146421 0.0710394l-0.0993543 0.0355315c-0.00775197,0.00277165 -0.0152126,-0.000759843 -0.0179843,-0.00851181l-0.0378976 -0.10598c-0.00273228,-0.00762598 -0.00125197,-0.0107598 0.00637795,-0.0134882l0.10598 -0.0378976c0.00775591,-0.00277165 0.0152126,0.000755906 0.0179843,0.00850787l0.0355315 0.0993583c0.00276378,0.00772047 -0.00291732,0.0197205 -0.0106378,0.0224803zm0.299799 -0.48822c-0.00275984,-0.00772441 0.00291339,-0.0197244 0.0106378,-0.0224843l0.0993583 -0.0355276c0.00774803,-0.00277165 0.0152126,0.000755906 0.0179843,0.00850787l0.0367126 0.102669c0.00277165,0.00775197 -0.000755906,0.0152126 -0.00850787,0.0179803l-0.0993583 0.0355315c-0.00772047,0.00276378 -0.0197165,-0.00291339 -0.0224764,-0.0106339l-0.0343504 -0.0960433zm-0.233913 0.191976l-0.0343425 -0.0960472c-0.00276378,-0.00772047 0.00291339,-0.0197165 0.0106339,-0.0224764l0.0993583 -0.0355354c0.00772047,-0.00275984 0.0197205,0.00291339 0.0224803,0.0106378l0.0343465 0.0960433c0.00275984,0.00772441 -0.00291339,0.0197205 -0.0106378,0.0224843l-0.0993583 0.0355276c-0.00772047,0.00276378 -0.0197165,-0.00291339 -0.0224803,-0.0106339zm-0.146421 0.0710394l-0.0993543 0.0355315c-0.00775197,0.00277165 -0.0152165,-0.000759843 -0.0179882,-0.00851181l-0.0367126 -0.102665c-0.00277165,-0.00775197 0.000755906,-0.0152126 0.00850787,-0.0179882l0.0960433 -0.0343465c0.00894488,-0.00319685 0.00970079,-0.0016811 0.0177441,-0.00261024 0.00438976,0.00681102 0.00603937,0.00642913 0.00923228,0.015378l0.0331654 0.0927283c0.00275984,0.00772441 -0.00291339,0.0197205 -0.0106378,0.0224843zm0.299799 -0.488224c-0.00276378,-0.00772441 0.00291732,-0.0197165 0.0106378,-0.0224803l0.0993583 -0.0355315c0.00775197,-0.00277165 0.0152087,0.000755906 0.0179803,0.00850787l0.0379055 0.10598c0.00272835,0.00763386 0.00124409,0.0107598 -0.00638583,0.0134882l-0.10598 0.0379016c-0.00775197,0.00277165 -0.0152126,-0.000759843 -0.0179843,-0.00851181l-0.0355315 -0.0993543zm-0.534394 0.18737c-0.00277165,-0.00775197 0.000759843,-0.0152126 0.00851181,-0.0179843l0.0993543 -0.0355315c0.00772441,-0.00275984 0.0197205,0.00291339 0.0224843,0.0106378l0.0355276 0.0993583c0.00277165,0.00774803 -0.000755906,0.0152126 -0.00850787,0.0179843l-0.105976 0.0378976c-0.00763386,0.00272835 -0.0107638,0.00125197 -0.0134921,-0.00638189l-0.0379016 -0.10598zm0.266134 -0.0914331c-0.00275984,-0.00772441 0.00291732,-0.0197244 0.0106378,-0.0224843l0.0993543 -0.0355315c0.00772441,-0.00276378 0.0197205,0.00291732 0.0224843,0.0106378l0.0355315 0.0993543c0.00277165,0.00775591 -0.000759843,0.0152126 -0.00851181,0.0179843l-0.10598 0.0378976c-0.0101811,0.00364567 -0.0167165,-0.00496063 -0.0203543,-0.015126l-0.0331614 -0.0927323zm0.187484 -0.332264c0.00345276,-0.00298819 0.0101575,-0.00736614 0.015374,-0.00923228l0.0960433 -0.0343465c0.00775197,-0.00277165 0.0152126,0.000759843 0.0179882,0.00851181l0.0367126 0.102665c0.00277165,0.00775591 -0.000755906,0.0152126 -0.00850787,0.0179843l-0.0993583 0.0355315c-0.00772047,0.00276378 -0.0197205,-0.00291339 -0.0224803,-0.0106339l-0.0331654 -0.0927323c-0.00319685,-0.00894882 -0.0016811,-0.00969685 -0.0026063,-0.017748zm-0.266839 0.110366c-0.00275984,-0.00772047 0.00291732,-0.0197205 0.0106417,-0.0224803l0.0993543 -0.0355315c0.00775197,-0.00277165 0.0152126,0.000759843 0.0179843,0.00851181l0.0367165 0.102665c0.00277165,0.00775197 -0.000755906,0.0152126 -0.00851181,0.0179843l-0.0993543 0.0355315c-0.00772047,0.00275984 -0.0197205,-0.00291339 -0.0224803,-0.0106378l-0.0343504 -0.0960433zm-0.26613 0.091437c-0.00277165,-0.00775197 0.000755906,-0.0152126 0.00850787,-0.0179843l0.0960433 -0.0343465c0.00894882,-0.00320079 0.00970079,-0.00168504 0.017748,-0.00261024 0.00438583,0.00681102 0.0060315,0.00642913 0.00923228,0.015374l0.0331614 0.0927323c0.00276378,0.00772047 -0.00291339,0.0197205 -0.0106378,0.0224803l-0.0993583 0.0355315c-0.00774803,0.00277165 -0.0152087,-0.000759843 -0.0179803,-0.00851181l-0.0367165 -0.102665zm0.656575 1.15705l-0.0646772 -0.180858c-0.0221378,-0.0619055 0.0173307,-0.125732 0.0813268,-0.148618l0.013248 -0.00474016c0.043315,-0.0154882 0.120004,0.0222165 0.134886,0.0638268l0.0667205 0.186583c-0.0808268,0.0197913 -0.158323,0.0480591 -0.231504,0.0838071zm-1.66511 0.820543c-0.0157441,-0.00182677 -0.0244961,0.00529921 -0.0285276,0.00464961l-0.00541339 -0.000870079 0.00348031 -0.0216535c0.000641732,-0.00398819 0.0179882,-0.010063 0.0182677,-0.0100157 0.00503543,0.000807087 0.0130551,0.00950394 0.0204921,0.0106969 0.00550394,0.000885827 0.00755906,-0.000559055 0.0114055,-0.00186614l0.0105118 0.0163465c-0.0133189,-0.00168898 -0.0180315,0.00412598 -0.0302165,0.0027126zm-0.089748 0.0170157l0.0245787 -0.0517047 0.0156654 0.0096811 -0.0013937 0.0463268 -0.0172008 -0.000822835 -0.0216496 -0.00348031zm1.52068 1.09584c-0.122087,-0.101839 -0.222874,-0.228319 -0.294835,-0.371764 -0.028937,0.039622 -0.0395906,0.0926772 -0.0426024,0.128752 -0.00402362,0.0482717 0.0155197,0.114965 0.058748,0.168472 0.0668701,0.0827598 0.1855,0.114205 0.278689,0.0745394zm-0.611665 0.210783l-0.00844882 0.00682677c-0.00340945,0.00275591 -0.0150748,0.00151969 -0.0178307,-0.00188583l-0.00568504 -0.00704331c-0.00323228,-0.00399606 -0.000350394,-0.00866929 -0.00233071,-0.0144094l0.0126811 -0.010248c0.00411417,-0.00332677 0.0155315,-0.000948819 0.0189646,0.00329921 0.00547244,0.00677559 0.00864961,0.0186142 0.00264961,0.0234606zm2.2297 -1.86166c0.0936299,0.107768 0.167626,0.23302 0.216602,0.370157l0.0923858 -0.0558898 0.0132677 -0.0194016 0.0132756 -0.0193937 0.00408268 -0.0142913 0.00408268 -0.0142953 -0.00101575 -0.0234764 0.00408268 -0.0142953 -0.00102362 -0.0234803 -0.00101969 -0.0234764 -0.00101969 -0.0234843 -0.00612598 -0.0326654 -0.00101575 -0.0234803 -0.0204173 -0.036752 -0.0193976 -0.0132677 -0.0245 -0.0224606 -0.0193937 -0.0132756 -0.0194016 -0.0132717 -0.0193898 -0.0132677 -0.0142953 -0.00409055 -0.0193976 -0.0132638 -0.0142874 -0.00409055 -0.0142953 -0.00407874 -0.0234764 0.00101575 -0.0234843 0.00102362 -0.104823 0.053252zm0.338591 0.454122l-0.0408386 0.0347087 -0.0204173 -0.036752 0.0565669 -0.0310945 0.00468898 0.0331378zm-0.33687 -0.606402l0.0245 0.0224606 -0.055126 0.030622 -0.0209724 -0.0380197 0.0515984 -0.015063zm0.446102 0.521673l0.0051063 0.00918898 -0.00408661 0.0142913 -0.0224606 0.0245 -0.0209488 -0.0380984 0.0423898 -0.00988189zm-0.335846 -0.582925l0.0142874 0.00408661 0.0051063 0.00918898 -0.0316457 0.0296024 -0.0208898 -0.038189 0.0331417 -0.00468898zm0.446098 0.521677l0.0051063 0.00918898 -0.00408268 0.0142913 -0.0224567 0.0244961 -0.0209528 -0.0380945 0.0423858 -0.00988189zm-0.321555 -0.578839l0.0051063 0.00918898 -0.0316496 0.0296063 -0.0204134 -0.0367559 0.036752 -0.0204134 0.0102047 0.018374zm0.491024 0.472673l0.0102087 0.018374 -0.00408268 0.0142953 -0.0500236 0.0398071 -0.0260709 -0.0470787 0.0699685 -0.0253976zm-0.0653307 -0.0959646l0.0142874 0.00408661 0.0102087 0.018374 -0.00407874 0.0142913 -0.0500236 0.039811 -0.031185 -0.0563307 0.0607913 -0.0202323zm-0.036752 -0.0877953l0.00510236 0.00919291 0.0102087 0.018374 -0.064311 0.0357244 -0.0255197 -0.0459331 0.064311 -0.0357283 0.0102087 0.0183701zm-0.070437 -0.10515l0.0142913 0.00408268 0.0102087 0.018378 -0.00408268 0.0142913 -0.0500236 0.039815 -0.0311811 -0.0563346 0.0607874 -0.0202323zm-0.036748 -0.0877953l0.0051063 0.00918898 0.0102087 0.018374 -0.0643189 0.0357283 -0.0255197 -0.045937 0.0643189 -0.0357283 0.0102047 0.018374zm-0.070437 -0.105154l0.0142953 0.00409055 0.0102047 0.0183701 -0.00408268 0.0142953 -0.0500236 0.039811 -0.0311811 -0.0563346 0.0607874 -0.0202323zm-0.0510394 -0.091874l0.0142913 0.00408268 0.0102087 0.018378 -0.0592126 0.0449134 -0.0260748 -0.0471457 0.0607874 -0.0202283zm0.439969 0.813638l0.0102087 0.018378 -0.027563 0.015311 -0.0102087 -0.018378 0.027563 -0.015311zm-0.039811 -0.0500236l0.0193976 0.0132677 -0.027563 0.015315 -0.0156181 -0.0291969 0.0237835 0.000614173zm-0.030626 -0.055126l0.0193976 0.0132677 -0.027563 0.015315 -0.0156181 -0.0291969 0.0237835 0.000614173zm-0.0172992 -0.0522047l-0.0252598 0.0211614 0.0252598 -0.0211614zm-0.393016 -0.707469l-0.0252559 0.0211614 0.0252559 -0.0211614zm-0.0286339 -0.0304882l-0.0132717 0.0193937 -0.015311 -0.027563 0.0291969 -0.0156142 -0.000614173 0.0237835zm-0.030622 -0.055126l-0.0132717 0.0193937 -0.015315 -0.027563 0.0291969 -0.0156142 -0.000610236 0.0237835zm-0.0316457 -0.0786102l0.0102087 0.018378 -0.027563 0.015315 -0.0102087 -0.018378 0.027563 -0.015315zm0.663535 0.978004l0.0102087 0.018378 -0.027563 0.015315 -0.0102087 -0.018378 0.027563 -0.015315zm-0.039815 -0.0500197l0.0193976 0.0132717 -0.027563 0.015311 -0.015622 -0.0291969 0.0237874 0.000614173zm-0.030622 -0.0551299l0.0193976 0.0132717 -0.0275669 0.015311 -0.0156181 -0.0291929 0.0237874 0.000610236zm-0.0130591 -0.0474331l-0.031311 0.0102638 0.031311 -0.0102638zm-0.393012 -0.707469l-0.031311 0.0102638 0.031311 -0.0102638zm-0.032878 -0.0352559l-0.0132717 0.0193937 -0.015315 -0.027563 0.0291969 -0.0156181 -0.000610236 0.0237874zm-0.030622 -0.055126l-0.0132756 0.0193937 -0.015311 -0.027563 0.0291969 -0.0156181 -0.000610236 0.0237874zm-0.0316496 -0.0786102l0.0102087 0.018378 -0.027563 0.015311 -0.0102087 -0.018378 0.027563 -0.015311zm0.547161 0.790161l0.015311 0.0275669 -0.027563 0.015311 -0.015311 -0.0275669 0.027563 -0.015311zm-0.030626 -0.055126l0.015311 0.027563 -0.027563 0.015311 -0.015311 -0.027563 0.027563 -0.015311zm-0.0347047 -0.0408346l0.0193937 0.0132717 -0.027563 0.015311 -0.0156181 -0.0291969 0.0237874 0.000614173zm-0.030626 -0.0551299l0.0193937 0.0132717 -0.027563 0.015315 -0.0156181 -0.0291969 0.0237874 0.000610236zm-0.0214331 -0.0602283l0.0102047 0.018374 -0.0275669 0.015315 -0.0102047 -0.018378 0.0275669 -0.015311zm-0.030626 -0.055126l0.0102087 0.018374 -0.0275669 0.015311 -0.0102047 -0.018374 0.027563 -0.015311zm-0.030626 -0.055126l0.0102087 0.0183701 -0.027563 0.015311 -0.0102087 -0.0183701 0.027563 -0.015311zm-0.030622 -0.0551339l0.0102047 0.018378 -0.027563 0.015311 -0.0102047 -0.018374 0.027563 -0.015315zm-0.030626 -0.055126l0.0102087 0.018378 -0.027563 0.015311 -0.0102087 -0.018374 0.027563 -0.015315zm-0.0296063 -0.0316457l-0.0132677 0.0193976 -0.015315 -0.0275669 0.0291969 -0.0156181 -0.000614173 0.0237874zm-0.030622 -0.055126l-0.0132717 0.0193937 -0.015311 -0.027563 0.0291929 -0.0156181 -0.000610236 0.0237874zm-0.030622 -0.0551339l-0.0132756 0.0194016 -0.015311 -0.027563 0.0291969 -0.015622 -0.000610236 0.0237835zm-0.0316496 -0.0786024l0.015315 0.027563 -0.027563 0.015311 -0.015315 -0.027563 0.027563 -0.015311zm0.463457 0.596197l0.015311 0.027563 -0.036752 0.0204173 -0.015311 -0.027563 0.036752 -0.0204173zm-0.030626 -0.0551299l0.015315 0.027563 -0.036752 0.0204173 -0.015315 -0.027563 0.036752 -0.0204173zm-0.030622 -0.0551299l0.015311 0.0275669 -0.036752 0.0204173 -0.015311 -0.0275669 0.036752 -0.0204173zm-0.030622 -0.055126l0.0153071 0.027563 -0.036752 0.0204173 -0.015311 -0.027563 0.0367559 -0.0204173zm-0.0255197 -0.045937l0.0102087 0.018374 -0.0367559 0.0204173 -0.0102087 -0.018374 0.0367559 -0.0204173zm-0.030626 -0.055126l0.0102087 0.018374 -0.0367559 0.0204173 -0.0102087 -0.018374 0.0367559 -0.0204173zm-0.030622 -0.055126l0.0102047 0.0183701 -0.0367559 0.0204173 -0.0102047 -0.0183701 0.0367559 -0.0204173zm-0.030626 -0.0551299l0.0102087 0.018374 -0.0367559 0.0204173 -0.0102087 -0.018374 0.0367559 -0.0204173zm-0.030626 -0.0551299l0.0102087 0.018378 -0.0367559 0.0204173 -0.0102087 -0.018378 0.0367559 -0.0204173zm-0.030622 -0.055126l0.015311 0.027563 -0.0367559 0.0204173 -0.015311 -0.027563 0.0367559 -0.0204173zm-0.030626 -0.055126l0.015311 0.027563 -0.036752 0.0204173 -0.015311 -0.027563 0.036752 -0.0204173zm-0.030626 -0.055126l0.015315 0.027563 -0.036752 0.0204173 -0.015315 -0.027563 0.036752 -0.0204173zm-0.030622 -0.055126l0.015311 0.027563 -0.036752 0.0204173 -0.015311 -0.0275669 0.036752 -0.0204134zm0.62985 0.74422l0.0102087 0.018378 -0.027563 0.015311 -0.0102087 -0.018374 0.027563 -0.015315zm-0.0296063 -0.0316417l-0.0120433 0.0205118 -0.00850787 -0.0093189 0.0205512 -0.0111929zm-0.030626 -0.0551299l0.0051063 0.00918898 -0.0132677 0.0193898 -0.015622 -0.0291929 0.0237835 0.000614173zm-0.45426 -0.817724l0.00510236 0.00918504 -0.0132677 0.0194016 -0.015622 -0.0292008 0.0237874 0.000614173zm-0.0214331 -0.0602323l0.0102087 0.018374 -0.027563 0.015315 -0.0102087 -0.018374 0.027563 -0.015315zm-0.0255197 -0.045937l0.0102087 0.018374 -0.0275669 0.015311 -0.0102047 -0.018374 0.027563 -0.015311zm0.500197 0.792201c0.0363031,-0.0201654 -0.0363031,0.0201693 0,0zm-0.0204134 -0.036748c0.0362992,-0.0201654 -0.0363071,0.0201614 0,0zm-0.0112283 -0.0418583l0.0102087 0.018374 -0.018378 0.0102087 -0.0102087 -0.018374 0.018378 -0.0102087zm-0.265409 -0.477772l0.0102087 0.018374 -0.018378 0.0102087 -0.0102087 -0.018374 0.018378 -0.0102087zm-0.0245039 -0.0224606c0.0363031,-0.0201654 -0.0363031,0.0201693 0,0zm-0.0204134 -0.036748c0.0362992,-0.0201693 -0.0363071,0.0201654 0,0zm0.415476 0.574756l-0.027563 0.015311 0.027563 -0.015311zm-0.0187205 -0.0336929l-0.027563 0.015315 0.027563 -0.015315zm-0.0313031 -0.0347087l0.0102087 0.018374 -0.018374 0.0102087 -0.0102087 -0.018374 0.018374 -0.0102087zm-0.260307 -0.468583l-0.0120472 0.0205236 -0.00850394 -0.00932677 0.0205512 -0.0111969zm-0.00952756 -0.0387913l-0.027563 0.015311 0.027563 -0.015311zm-0.0204134 -0.036752l-0.0275669 0.015315 0.0275669 -0.015315zm0.607732 0.704409l0.0102087 0.018378 -0.018378 0.0102087 -0.0102087 -0.018378 0.018378 -0.0102087zm-0.0204173 -0.036748l0.0102087 0.018374 -0.018378 0.0102087 -0.0102087 -0.018374 0.018378 -0.0102087zm-0.0296024 -0.0316496c0.0363031,-0.0201654 -0.0363071,0.0201693 0,0zm-0.464472 -0.836098c0.0363071,-0.0201693 -0.0362992,0.0201654 0,0zm-0.0163307 -0.0510433l0.0102087 0.018378 -0.018378 0.0102087 -0.0102047 -0.018378 0.018374 -0.0102087zm-0.0204173 -0.036752l0.0102087 0.018374 -0.018374 0.0102087 -0.0102087 -0.018374 0.018374 -0.0102087zm0.62474 0.951461l0.0102087 0.018374 -0.027563 0.015315 -0.0102087 -0.018378 0.027563 -0.015311zm-0.0204173 -0.036752l0.0102126 0.018374 -0.0275669 0.015315 -0.0102087 -0.018374 0.027563 -0.015315zm-0.0171378 -0.0331457l-0.031311 0.0102677 0.031311 -0.0102677zm-0.467744 -0.839705l-0.027563 0.015315 0.027563 -0.015315zm-0.0255236 -0.0459409l0.0102087 0.018378 -0.027563 0.015315 -0.0102087 -0.018378 0.027563 -0.015315zm-0.0204134 -0.036748l0.0102087 0.018374 -0.027563 0.015311 -0.0102087 -0.0183701 0.027563 -0.015315z"/>
 </g>
</svg>
