<svg xmlns="http://www.w3.org/2000/svg" xmlns:xlink="http://www.w3.org/1999/xlink" viewBox="0 0 239.87 29.3"><defs><style>.cls-1{fill:url(#linear-gradient);}.cls-2{fill:url(#linear-gradient-2);}.cls-3{fill:url(#linear-gradient-3);}.cls-4{fill:url(#linear-gradient-4);}.cls-5{fill:url(#linear-gradient-5);}.cls-6{fill:url(#linear-gradient-6);}.cls-7{fill:url(#linear-gradient-7);}.cls-8{fill:url(#linear-gradient-8);}.cls-9{fill:url(#linear-gradient-9);}.cls-10{fill:url(#linear-gradient-10);}.cls-11{fill:url(#linear-gradient-11);}.cls-12{fill:url(#linear-gradient-12);}.cls-13{fill:url(#linear-gradient-14);}.cls-14{fill:url(#linear-gradient-26);}.cls-15{fill:url(#linear-gradient-28);}.cls-16{fill:url(#linear-gradient-29);}.cls-17{fill:url(#linear-gradient-30);}.cls-18{fill:url(#linear-gradient-258);}.cls-19{fill:url(#linear-gradient-270);}</style><linearGradient id="linear-gradient" x1="7.14" y1="20.5" x2="8.54" y2="20.5" gradientUnits="userSpaceOnUse"><stop offset="0" stop-color="#855208"/><stop offset="1" stop-color="#f2f91c"/></linearGradient><linearGradient id="linear-gradient-2" x1="0" y1="14.65" x2="29.3" y2="14.65" xlink:href="#linear-gradient"/><linearGradient id="linear-gradient-3" x1="0.05" y1="24.56" x2="10.82" y2="24.56" xlink:href="#linear-gradient"/><linearGradient id="linear-gradient-4" x1="11.5" y1="15.75" x2="27.91" y2="15.75" xlink:href="#linear-gradient"/><linearGradient id="linear-gradient-5" x1="41.59" y1="21.74" x2="240.91" y2="21.74" gradientUnits="userSpaceOnUse"><stop offset="0" stop-color="#f9c510"/><stop offset="1" stop-color="#74c365"/></linearGradient><linearGradient id="linear-gradient-6" x1="41.59" y1="18.9" x2="240.91" y2="18.9" xlink:href="#linear-gradient-5"/><linearGradient id="linear-gradient-7" x1="41.59" y1="10.39" x2="240.91" y2="10.39" xlink:href="#linear-gradient-5"/><linearGradient id="linear-gradient-8" x1="41.59" y1="13.23" x2="240.91" y2="13.23" xlink:href="#linear-gradient-5"/><linearGradient id="linear-gradient-9" x1="41.59" y1="7.55" x2="240.91" y2="7.55" xlink:href="#linear-gradient-5"/><linearGradient id="linear-gradient-10" x1="41.59" y1="16.07" x2="240.91" y2="16.07" xlink:href="#linear-gradient-5"/><linearGradient id="linear-gradient-11" x1="41.59" y1="20.32" x2="240.91" y2="20.32" xlink:href="#linear-gradient-5"/><linearGradient id="linear-gradient-12" x1="41.59" y1="6.14" x2="240.91" y2="6.14" xlink:href="#linear-gradient-5"/><linearGradient id="linear-gradient-14" x1="41.59" y1="4.72" x2="240.91" y2="4.72" xlink:href="#linear-gradient-5"/><linearGradient id="linear-gradient-26" x1="41.59" y1="17.49" x2="240.91" y2="17.49" xlink:href="#linear-gradient-5"/><linearGradient id="linear-gradient-28" x1="41.59" y1="8.97" x2="240.91" y2="8.97" xlink:href="#linear-gradient-5"/><linearGradient id="linear-gradient-29" x1="41.59" y1="11.81" x2="240.91" y2="11.81" xlink:href="#linear-gradient-5"/><linearGradient id="linear-gradient-30" x1="41.59" y1="14.65" x2="240.91" y2="14.65" xlink:href="#linear-gradient-5"/><linearGradient id="linear-gradient-258" x1="41.59" y1="23.16" x2="240.91" y2="23.16" xlink:href="#linear-gradient-5"/><linearGradient id="linear-gradient-270" x1="41.59" y1="24.58" x2="240.91" y2="24.58" xlink:href="#linear-gradient-5"/></defs><g id="Layer_2" data-name="Layer 2"><g id="Layer_1-2" data-name="Layer 1"><path class="cls-1" d="M7.47,21.19l.38-.39.37-.37.26-.27a.17.17,0,0,0,0-.12.91.91,0,0,0,0-.17.57.57,0,0,0,0-.18.6.6,0,0,0,0-.16l-.59.61-.6.61a.41.41,0,0,0-.1.14.25.25,0,0,0,0,.18,1.56,1.56,0,0,0,0,.2,1,1,0,0,0,0,.21Z"/><path class="cls-2" d="M27.86,7.24a13.85,13.85,0,0,1,.34,2.65c.21,7.79-6.57,16.55-11.56,15.68C13.41,25,10.17,20.3,11,16a8.5,8.5,0,0,1,3.46-5.06L14,7.57a22.08,22.08,0,0,1-2.13,1.77,25.4,25.4,0,0,1-2.82,1.85,19.9,19.9,0,0,1-3,1.41,6.64,6.64,0,0,1-2.67.48,2.38,2.38,0,0,1-1.81-1,4.31,4.31,0,0,1-.43-2.93A12.18,12.18,0,0,1,1.8,6.31,11.93,11.93,0,0,1,3,3.72a8.09,8.09,0,0,1,1.7-1.94,4,4,0,0,1,2-.92,3.6,3.6,0,0,1,2.14.47,5.71,5.71,0,0,1,2.31,2.15C9.8.57,8.2.14,7.73.05,4.38-.59.63,4.76.07,9A9.48,9.48,0,0,0,.6,13.43a4.65,4.65,0,0,0,1.83,2.46,2.59,2.59,0,0,0,1.51.36,8.39,8.39,0,0,0,1.93-.31A12.67,12.67,0,0,0,8,15.16c.74-.34,1.47-.71,2.19-1.13-.25.78-2.56,8.36,1.85,13.15a6,6,0,0,0,2.83,1.94C20.32,30.61,29,22.35,29.29,13.8A14.31,14.31,0,0,0,27.86,7.24Z"/><path class="cls-3" d="M10.63,26.7a2,2,0,0,1-.9,1.35,1.87,1.87,0,0,1-1.46.08,2.65,2.65,0,0,1-1.11-.76C5.9,26.14,4.58,25,3.45,23.63c-.77-.9-1.91-2.2-3.39-3.78v1.4L1.8,23l1.79,1.83.22.23-.22.23c-.22.21-.43.42-.63.65s-.32.23-.43.18a1.42,1.42,0,0,1-.38-.29l-2-2.05L.09,25c0,.71,0,1.34,0,1.88a6.27,6.27,0,0,0,.07,1.26,3,3,0,0,0,.09.38,1.49,1.49,0,0,0,.17.36,1.12,1.12,0,0,0,.26.27.57.57,0,0,0,.33.11,1,1,0,0,0,.35-.11,2,2,0,0,0,.35-.25A2.57,2.57,0,0,0,2,28.58l.29-.29L2,26.89l.3.31a.87.87,0,0,0,.33.22.52.52,0,0,0,.37,0,1.17,1.17,0,0,0,.45-.31l.64-.64.58-.57.73.73c.59.6,1.17,1.16,1.75,1.71a2.73,2.73,0,0,0,.91.69A2.1,2.1,0,0,0,9.76,29a1.89,1.89,0,0,0,1.05-1.75A1.3,1.3,0,0,0,10.63,26.7Zm-8.84.39-.3.32c-.11.12-.22.24-.34.35A1.47,1.47,0,0,1,.81,28a.39.39,0,0,1-.28.06c-.09,0-.14-.1-.16-.25a7,7,0,0,1,0-1.09c0-.44,0-.93,0-1.44q.39.4.78.78l.79.78,0,0Z"/><path class="cls-4" d="M27.88,9c0-.4-.09-1-.19-1.65,0,2.64-.33,4.59-.77,4.77a1.24,1.24,0,0,1-.71.08,1.28,1.28,0,0,1-.31-.15L24.57,11c-.16-.13-.33-.26-.49-.37a.6.6,0,0,0-.45-.15.62.62,0,0,0-.42.3,1.6,1.6,0,0,0-.19.57A3.67,3.67,0,0,0,23,12c0,.21,0,.37,0,.48l-1.38-1.1.23,1.11c.59.39,1,.74,1.35,1l1,.8.36.29-.17.21c-.1.12-.16.21-.25.33l-.16.19q-.16.21-.33.15a1.87,1.87,0,0,1-.38-.25l-2.13-1.74.22,1c.12.59.23,1.11.33,1.55A5.94,5.94,0,0,0,22,17.07a3,3,0,0,0,.15.32,1.29,1.29,0,0,0,.22.3c.15.17.27.17.27.23s-.06.1-.31.18h0l-.09-.19c-.06-.14-.13-.28-.2-.42s-.14-.26-.19-.35a1,1,0,0,0-.1-.16.7.7,0,0,0-.16-.13.48.48,0,0,0-.24-.06,1,1,0,0,0-.35.05l-.59.22a2.38,2.38,0,0,1-.57.19.77.77,0,0,1-.56,0,.7.7,0,0,1-.21-.21.16.16,0,0,1,0-.22,1.72,1.72,0,0,1,.25-.14l.24-.15a1.1,1.1,0,0,0,.31-.34.67.67,0,0,0,0-.52,1.32,1.32,0,0,0-.2-.42,7.89,7.89,0,0,0-.46-.65,1.38,1.38,0,0,1,.14.55.68.68,0,0,1-.1.34.66.66,0,0,1-.23.21l-.28.15-.22.15a.29.29,0,0,0-.09.22,1.43,1.43,0,0,0,.1.29,2.69,2.69,0,0,0,.19.38c.08.14.15.26.23.38a1.87,1.87,0,0,0,.2.28,1.33,1.33,0,0,0,.29.29,1,1,0,0,0,.39.17,1.12,1.12,0,0,0,.41,0,3.63,3.63,0,0,0,.45-.1l.45-.14a2.62,2.62,0,0,1,.41-.1,2,2,0,0,1,0,.64c0,.09-.16,1.25-1.08,1.33a1.53,1.53,0,0,1-.71-.13,3.42,3.42,0,0,0,.31.37,1.29,1.29,0,0,1-.27.34c-.18.17-.29.16-.34.14a2.36,2.36,0,0,1-.38-.26L17,18.29l.05.21a.76.76,0,0,1-.08.59.7.7,0,0,1-.34.2l-.38.09a.24.24,0,0,0-.21.23.88.88,0,0,0,.06.29,2.93,2.93,0,0,0,.16.39l.2.44c.07.16.14.32.19.47L11.5,16.85l.12.95L19,24.11v-.49a1.75,1.75,0,0,1,0-.23c0-.07,0-.11,0-.14l-.78-.67-1.22-1a2.34,2.34,0,0,0-.16-.31l-.21-.41a1.75,1.75,0,0,1-.12-.37.22.22,0,0,1,.08-.24l.31-.13a1.45,1.45,0,0,0,.25-.1.65.65,0,0,0,.17-.16.61.61,0,0,0,.06-.3l.85.72.85.72.35.3a1.17,1.17,0,0,0,.33.2.47.47,0,0,0,.33,0,.58.58,0,0,0,.33-.24l.18-.21.15-.17.1-.11.05-.06.11-.14.2,0c1,.05,1.14-1.6,1.15-2h0a5.64,5.64,0,0,1,.79-.68,1.34,1.34,0,0,0,.24-.2,2.75,2.75,0,0,0,.22-.26l.18-.24-.54-1.16.32.25a1.28,1.28,0,0,0,.32.2.53.53,0,0,0,.33,0,.65.65,0,0,0,.32-.24l.29-.36.13-.16c.09-.12.22-.28.4-.49l.5.41c0-.18-.05-.35-.07-.5a4.3,4.3,0,0,0-.07-.43l-.8-.66L24,13.36l-.86-.7a2.35,2.35,0,0,1,.11-.71.78.78,0,0,1,.28-.4.55.55,0,0,1,.42-.07,1.27,1.27,0,0,1,.5.26c.45.38.83.68,1.12.91a6.69,6.69,0,0,0,.72.52.85.85,0,0,0,.47.14.75.75,0,0,0,.41-.2,1.22,1.22,0,0,0,.35-.54A10.5,10.5,0,0,0,27.88,9Zm-4.71,7.19-.19.26a3.11,3.11,0,0,1-.23.28,1.13,1.13,0,0,1-.24.21.28.28,0,0,1-.23,0q-.11,0-.18-.21a6.11,6.11,0,0,1-.25-.9c-.08-.37-.16-.77-.24-1.19l.82.66.82.66,0,0Z"/><path class="cls-5" d="M128.48,21a.74.74,0,0,0-.71.71.69.69,0,0,0,.21.51.71.71,0,0,0,1.21-.51.7.7,0,0,0-.2-.49A.67.67,0,0,0,128.48,21Z"/><path class="cls-6" d="M129,18.41a.71.71,0,0,0-1,0,.68.68,0,0,0-.21.49.69.69,0,0,0,.21.51.68.68,0,0,0,.5.2.69.69,0,0,0,.51-.2.73.73,0,0,0,.2-.51A.71.71,0,0,0,129,18.41Z"/><path class="cls-7" d="M128,10.9a.71.71,0,0,0,1.21-.51.74.74,0,0,0-.2-.5.71.71,0,0,0-1,0,.7.7,0,0,0-.21.5A.69.69,0,0,0,128,10.9Z"/><path class="cls-8" d="M128,13.73a.71.71,0,0,0,1.21-.5.72.72,0,0,0-.2-.5.72.72,0,0,0-1.22.5A.66.66,0,0,0,128,13.73Z"/><path class="cls-9" d="M128.48,8.26a.68.68,0,0,0,.71-.71.7.7,0,0,0-.2-.49.69.69,0,0,0-1,0,.67.67,0,0,0-.21.49.69.69,0,0,0,.21.51A.72.72,0,0,0,128.48,8.26Z"/><path class="cls-10" d="M128,16.57a.71.71,0,0,0,1,0,.7.7,0,0,0,.2-.5.72.72,0,0,0-.2-.5.72.72,0,0,0-1.22.5A.67.67,0,0,0,128,16.57Z"/><path class="cls-11" d="M129.9,21a.68.68,0,0,0,.71-.71.7.7,0,0,0-.2-.49.7.7,0,0,0-.51-.22.68.68,0,0,0-.5.22.67.67,0,0,0-.21.49.69.69,0,0,0,.21.51A.7.7,0,0,0,129.9,21Z"/><path class="cls-12" d="M129.4,6.64a.66.66,0,0,0,.5.2.69.69,0,0,0,.51-.2.73.73,0,0,0,.2-.51.71.71,0,0,0-.2-.49.69.69,0,0,0-.51-.21.67.67,0,0,0-.5.21.68.68,0,0,0-.21.49A.69.69,0,0,0,129.4,6.64Z"/><path class="cls-12" d="M142.67,6.84a.69.69,0,0,0,.51-.2.73.73,0,0,0,.2-.51.71.71,0,0,0-.2-.49.69.69,0,0,0-.51-.21.67.67,0,0,0-.5.21.68.68,0,0,0-.21.49.69.69,0,0,0,.21.51A.66.66,0,0,0,142.67,6.84Z"/><path class="cls-13" d="M144.09,5.43a.69.69,0,0,0,.51-.21.7.7,0,0,0,.2-.5.68.68,0,0,0-.71-.71.7.7,0,0,0-.5.2.69.69,0,0,0-.21.51.72.72,0,0,0,.71.71Z"/><path class="cls-12" d="M145,6.64a.72.72,0,0,0,1,0,.69.69,0,0,0,.21-.51.68.68,0,0,0-.21-.49.7.7,0,0,0-1,0,.68.68,0,0,0-.21.49A.69.69,0,0,0,145,6.64Z"/><path class="cls-7" d="M141.25,11.1a.68.68,0,0,0,.71-.71.74.74,0,0,0-.2-.5.71.71,0,0,0-1,0,.7.7,0,0,0-.21.5.69.69,0,0,0,.21.51A.72.72,0,0,0,141.25,11.1Z"/><path class="cls-9" d="M141.25,8.26a.68.68,0,0,0,.71-.71.7.7,0,0,0-.2-.49.69.69,0,0,0-1,0,.67.67,0,0,0-.21.49.69.69,0,0,0,.21.51A.72.72,0,0,0,141.25,8.26Z"/><path class="cls-6" d="M141.25,19.61a.69.69,0,0,0,.51-.2.73.73,0,0,0,.2-.51.71.71,0,0,0-.2-.49.71.71,0,0,0-1,0,.68.68,0,0,0-.21.49.69.69,0,0,0,.21.51A.68.68,0,0,0,141.25,19.61Z"/><path class="cls-9" d="M123.31,7.05a.66.66,0,0,0-.5-.21.69.69,0,0,0-.51.21.71.71,0,0,0,.51,1.21.69.69,0,0,0,.5-.2.71.71,0,0,0,0-1Z"/><path class="cls-13" d="M146.93,5.43a.66.66,0,0,0,.5-.21.67.67,0,0,0,.21-.5.69.69,0,0,0-.21-.51.73.73,0,0,0-1,0,.69.69,0,0,0-.21.51.67.67,0,0,0,.21.5A.66.66,0,0,0,146.93,5.43Z"/><path class="cls-13" d="M122.81,5.43a.66.66,0,0,0,.5-.21.67.67,0,0,0,.21-.5.69.69,0,0,0-.21-.51.69.69,0,0,0-.5-.2.68.68,0,0,0-.71.71.7.7,0,0,0,.2.5A.69.69,0,0,0,122.81,5.43Z"/><path class="cls-12" d="M123.72,6.64a.69.69,0,0,0,.51.2.66.66,0,0,0,.5-.2.69.69,0,0,0,.21-.51.68.68,0,0,0-.21-.49.67.67,0,0,0-.5-.21.69.69,0,0,0-.51.21.71.71,0,0,0-.2.49A.73.73,0,0,0,123.72,6.64Z"/><path class="cls-8" d="M125.65,12.52a.69.69,0,0,0-.51.21.72.72,0,0,0,0,1,.71.71,0,0,0,1,0,.7.7,0,0,0,0-1A.69.69,0,0,0,125.65,12.52Z"/><path class="cls-13" d="M120,5.43a.66.66,0,0,0,.5-.21.67.67,0,0,0,.21-.5.69.69,0,0,0-.21-.51.73.73,0,0,0-1,0,.69.69,0,0,0-.21.51.67.67,0,0,0,.21.5A.66.66,0,0,0,120,5.43Z"/><path class="cls-8" d="M122.81,12.52a.69.69,0,0,0-.51.21.72.72,0,0,0,0,1,.69.69,0,0,0,.51.21.71.71,0,0,0,0-1.42Z"/><path class="cls-14" d="M142.17,18a.67.67,0,0,0,.5.21.69.69,0,0,0,.51-.21.73.73,0,0,0,0-1,.69.69,0,0,0-.51-.21.67.67,0,0,0-.5.21.7.7,0,0,0,0,1Z"/><path class="cls-9" d="M126.15,7.06a.71.71,0,0,0-1.21.49.71.71,0,0,0,1.21.51.69.69,0,0,0,.21-.51A.67.67,0,0,0,126.15,7.06Z"/><path class="cls-15" d="M130.41,8.48a.67.67,0,0,0-.51-.22.65.65,0,0,0-.5.22.67.67,0,0,0-.21.49.69.69,0,0,0,.21.51.7.7,0,0,0,.5.2.68.68,0,0,0,.71-.71A.7.7,0,0,0,130.41,8.48Z"/><path class="cls-16" d="M130.41,11.31a.69.69,0,0,0-.51-.21.67.67,0,0,0-.5.21.7.7,0,0,0-.21.5.66.66,0,0,0,.21.5.67.67,0,0,0,.5.21.69.69,0,0,0,.51-.21.69.69,0,0,0,.2-.5A.74.74,0,0,0,130.41,11.31Z"/><path class="cls-17" d="M130.41,14.15a.69.69,0,0,0-.51-.21.67.67,0,0,0-.5.21.69.69,0,0,0-.21.5.66.66,0,0,0,.21.5.67.67,0,0,0,.5.21.69.69,0,0,0,.51-.21.69.69,0,0,0,.2-.5A.72.72,0,0,0,130.41,14.15Z"/><path class="cls-14" d="M130.41,17a.69.69,0,0,0-.51-.21.67.67,0,0,0-.5.21.7.7,0,0,0,0,1,.67.67,0,0,0,.5.21.69.69,0,0,0,.51-.21.72.72,0,0,0,0-1Z"/><path class="cls-13" d="M125.65,5.43a.69.69,0,0,0,.5-.21.67.67,0,0,0,.21-.5.71.71,0,0,0-1.22-.5.72.72,0,0,0-.2.5.7.7,0,0,0,.2.5A.69.69,0,0,0,125.65,5.43Z"/><path class="cls-12" d="M126.56,6.64a.69.69,0,0,0,.51.2.68.68,0,0,0,.5-.2.69.69,0,0,0,.2-.51.67.67,0,0,0-.2-.49.71.71,0,0,0-1,0,.67.67,0,0,0-.2.49A.69.69,0,0,0,126.56,6.64Z"/><path class="cls-13" d="M128.48,5.43a.69.69,0,0,0,.51-.21.7.7,0,0,0,.2-.5.72.72,0,0,0-.2-.5.72.72,0,0,0-1.22.5.67.67,0,0,0,.21.5A.69.69,0,0,0,128.48,5.43Z"/><path class="cls-10" d="M144.6,15.57a.69.69,0,0,0-.51-.21.67.67,0,0,0-.5.21.69.69,0,0,0-.21.5.72.72,0,0,0,.71.71.69.69,0,0,0,.51-.21.7.7,0,0,0,.2-.5A.72.72,0,0,0,144.6,15.57Z"/><path class="cls-17" d="M148.35,15.36a.72.72,0,0,0,.71-.71.69.69,0,0,0-.21-.5.7.7,0,0,0-1,0,.69.69,0,0,0-.21.5.72.72,0,0,0,.71.71Z"/><path class="cls-10" d="M150.27,15.57a.67.67,0,0,0-.5-.21.69.69,0,0,0-.51.21.72.72,0,0,0-.2.5.7.7,0,0,0,.2.5.69.69,0,0,0,.51.21.72.72,0,0,0,.71-.71A.69.69,0,0,0,150.27,15.57Z"/><path class="cls-9" d="M146.93,8.26a.69.69,0,0,0,.5-.2.71.71,0,0,0,0-1,.7.7,0,0,0-1,0,.71.71,0,0,0,.5,1.21Z"/><path class="cls-8" d="M150.27,12.73a.67.67,0,0,0-.5-.21.69.69,0,0,0-.51.21.72.72,0,0,0-.2.5.69.69,0,0,0,.2.5.69.69,0,0,0,.51.21.67.67,0,0,0,.5-.21.66.66,0,0,0,.21-.5A.69.69,0,0,0,150.27,12.73Z"/><path class="cls-5" d="M149.77,21a.69.69,0,0,0-.51.21.7.7,0,0,0-.2.5.68.68,0,0,0,.71.71.7.7,0,0,0,.5-.2.69.69,0,0,0,.21-.51.72.72,0,0,0-.71-.71Z"/><path class="cls-9" d="M149.77,8.26a.7.7,0,0,0,.5-.2.69.69,0,0,0,.21-.51.67.67,0,0,0-.21-.49.68.68,0,0,0-.5-.22.7.7,0,0,0-.51.22.7.7,0,0,0-.2.49.68.68,0,0,0,.71.71Z"/><path class="cls-8" d="M147.43,12.73a.7.7,0,0,0-1,0,.69.69,0,0,0-.21.5.71.71,0,0,0,1.42,0A.69.69,0,0,0,147.43,12.73Z"/><path class="cls-5" d="M144.09,22.45a.68.68,0,0,0,.71-.71.7.7,0,0,0-.2-.49.67.67,0,0,0-.51-.22.65.65,0,0,0-.5.22.67.67,0,0,0-.21.49.69.69,0,0,0,.21.51A.7.7,0,0,0,144.09,22.45Z"/><path class="cls-17" d="M151.19,15.36a.67.67,0,0,0,.5-.21.66.66,0,0,0,.21-.5.69.69,0,0,0-.21-.5.67.67,0,0,0-.5-.21.69.69,0,0,0-.51.21.72.72,0,0,0-.2.5.69.69,0,0,0,.2.5A.69.69,0,0,0,151.19,15.36Z"/><path class="cls-11" d="M142.17,20.83a.7.7,0,0,0,.5.2.68.68,0,0,0,.71-.71.7.7,0,0,0-.2-.49.7.7,0,0,0-.51-.22.68.68,0,0,0-.5.22.67.67,0,0,0-.21.49A.69.69,0,0,0,142.17,20.83Z"/><path class="cls-6" d="M144.6,18.41a.69.69,0,0,0-.51-.21.67.67,0,0,0-.5.21.68.68,0,0,0-.21.49.69.69,0,0,0,.21.51.66.66,0,0,0,.5.2.69.69,0,0,0,.51-.2.73.73,0,0,0,.2-.51A.71.71,0,0,0,144.6,18.41Z"/><path class="cls-5" d="M146.93,22.45a.66.66,0,0,0,.5-.21.69.69,0,0,0,.21-.5.67.67,0,0,0-.21-.5.7.7,0,0,0-1,0,.67.67,0,0,0-.21.5.69.69,0,0,0,.21.5A.66.66,0,0,0,146.93,22.45Z"/><path class="cls-10" d="M147.43,15.57a.7.7,0,0,0-1,0,.69.69,0,0,0-.21.5.67.67,0,0,0,.21.5.7.7,0,0,0,1,0,.67.67,0,0,0,.21-.5A.69.69,0,0,0,147.43,15.57Z"/><path class="cls-14" d="M119.06,17a.69.69,0,0,0-.51-.21.67.67,0,0,0-.5.21.7.7,0,0,0,0,1,.67.67,0,0,0,.5.21.69.69,0,0,0,.51-.21.72.72,0,0,0,0-1Z"/><path class="cls-14" d="M145.51,18.2A.66.66,0,0,0,146,18a.7.7,0,0,0,0-1,.7.7,0,0,0-1,0,.7.7,0,0,0,0,1A.66.66,0,0,0,145.51,18.2Z"/><path class="cls-15" d="M154.53,8.48a.72.72,0,0,0-1.22.49.69.69,0,0,0,.21.51A.71.71,0,0,0,154.73,9,.7.7,0,0,0,154.53,8.48Z"/><path class="cls-8" d="M155.44,13.94a.69.69,0,0,0,.51-.21.72.72,0,0,0,0-1,.69.69,0,0,0-.51-.21.67.67,0,0,0-.5.21.7.7,0,0,0,0,1A.67.67,0,0,0,155.44,13.94Z"/><path class="cls-12" d="M147.85,6.64a.72.72,0,0,0,1,0,.69.69,0,0,0,.21-.51.68.68,0,0,0-.21-.49.7.7,0,0,0-1,0,.68.68,0,0,0-.21.49A.69.69,0,0,0,147.85,6.64Z"/><path class="cls-12" d="M153.52,6.64a.68.68,0,0,0,.5.2.69.69,0,0,0,.51-.2.73.73,0,0,0,.2-.51.71.71,0,0,0-.2-.49.71.71,0,0,0-1,0,.68.68,0,0,0-.21.49A.69.69,0,0,0,153.52,6.64Z"/><path class="cls-17" d="M154.53,14.14a.74.74,0,0,0-1,0,.69.69,0,0,0-.21.51.66.66,0,0,0,.21.5.71.71,0,0,0,1.21-.5A.73.73,0,0,0,154.53,14.14Z"/><path class="cls-13" d="M152.61,5.43a.69.69,0,0,0,.5-.21.66.66,0,0,0,.2-.5.68.68,0,0,0-.2-.5.71.71,0,0,0-1,0,.68.68,0,0,0-.2.5.66.66,0,0,0,.2.5A.69.69,0,0,0,152.61,5.43Z"/><path class="cls-13" d="M149.77,5.43a.72.72,0,0,0,.71-.71.69.69,0,0,0-.21-.5.67.67,0,0,0-.5-.21.69.69,0,0,0-.51.21.72.72,0,0,0-.2.5.7.7,0,0,0,.2.5A.69.69,0,0,0,149.77,5.43Z"/><path class="cls-12" d="M150.68,6.64a.69.69,0,0,0,.51.2.66.66,0,0,0,.5-.2.69.69,0,0,0,.21-.51.68.68,0,0,0-.21-.49.67.67,0,0,0-.5-.21.69.69,0,0,0-.51.21.71.71,0,0,0-.2.49A.73.73,0,0,0,150.68,6.64Z"/><path class="cls-9" d="M152.61,8.26a.72.72,0,0,0,.5-.2.69.69,0,0,0,.2-.51.66.66,0,0,0-.2-.49.69.69,0,0,0-1,0,.66.66,0,0,0-.2.49.69.69,0,0,0,.2.51A.73.73,0,0,0,152.61,8.26Z"/><path class="cls-14" d="M154.53,17a.71.71,0,1,0,0,1,.73.73,0,0,0,0-1Z"/><path class="cls-10" d="M152.1,16.57a.71.71,0,0,0,1,0,.66.66,0,0,0,.2-.5.69.69,0,0,0-.2-.51.74.74,0,0,0-1,0,.69.69,0,0,0-.2.51A.66.66,0,0,0,152.1,16.57Z"/><path class="cls-8" d="M152.1,13.73a.71.71,0,0,0,1,0,.73.73,0,0,0,0-1,.71.71,0,0,0-1,0,.73.73,0,0,0,0,1Z"/><path class="cls-6" d="M153.11,18.41a.71.71,0,0,0-1,0,.67.67,0,0,0-.2.49.68.68,0,0,0,.71.71.68.68,0,0,0,.5-.2.69.69,0,0,0,.2-.51A.67.67,0,0,0,153.11,18.41Z"/><path class="cls-5" d="M152.61,21a.67.67,0,0,0-.51.22.66.66,0,0,0-.2.49.69.69,0,0,0,.2.51.74.74,0,0,0,1,0,.69.69,0,0,0,.2-.51.72.72,0,0,0-.7-.71Z"/><path class="cls-11" d="M154,21a.68.68,0,0,0,.71-.71.7.7,0,0,0-.2-.49.69.69,0,0,0-1,0,.67.67,0,0,0-.21.49.69.69,0,0,0,.21.51A.72.72,0,0,0,154,21Z"/><path class="cls-12" d="M120.89,6.64a.72.72,0,0,0,1,0,.69.69,0,0,0,.21-.51.68.68,0,0,0-.21-.49.7.7,0,0,0-1,0,.68.68,0,0,0-.21.49A.69.69,0,0,0,120.89,6.64Z"/><path class="cls-5" d="M94.43,21a.63.63,0,0,0-.5.22.67.67,0,0,0-.21.49.69.69,0,0,0,.21.51.69.69,0,0,0,.5.2.68.68,0,0,0,.71-.71.7.7,0,0,0-.2-.49A.67.67,0,0,0,94.43,21Z"/><path class="cls-7" d="M93.93,10.9a.69.69,0,0,0,.5.2.68.68,0,0,0,.71-.71.74.74,0,0,0-.2-.5.69.69,0,0,0-.51-.21.66.66,0,0,0-.5.21.7.7,0,0,0-.21.5A.69.69,0,0,0,93.93,10.9Z"/><path class="cls-6" d="M94.94,18.41a.69.69,0,0,0-.51-.21.66.66,0,0,0-.5.21.68.68,0,0,0-.21.49.69.69,0,0,0,.21.51.65.65,0,0,0,.5.2.69.69,0,0,0,.51-.2.73.73,0,0,0,.2-.51A.71.71,0,0,0,94.94,18.41Z"/><path class="cls-12" d="M95.35,6.64a.72.72,0,0,0,1,0,.69.69,0,0,0,.21-.51.68.68,0,0,0-.21-.49.7.7,0,0,0-1,0,.68.68,0,0,0-.21.49A.69.69,0,0,0,95.35,6.64Z"/><path class="cls-10" d="M93.93,16.57a.66.66,0,0,0,.5.21.69.69,0,0,0,.51-.21.7.7,0,0,0,.2-.5.72.72,0,0,0-.2-.5.69.69,0,0,0-.51-.21.66.66,0,0,0-.5.21.69.69,0,0,0-.21.5A.67.67,0,0,0,93.93,16.57Z"/><path class="cls-11" d="M95.85,21a.69.69,0,0,0,.5-.2.69.69,0,0,0,.21-.51.71.71,0,0,0-1.42,0,.69.69,0,0,0,.21.51A.69.69,0,0,0,95.85,21Z"/><path class="cls-8" d="M93.93,13.73a.66.66,0,0,0,.5.21.69.69,0,0,0,.51-.21.69.69,0,0,0,.2-.5.72.72,0,0,0-.2-.5.69.69,0,0,0-.51-.21.66.66,0,0,0-.5.21.69.69,0,0,0-.21.5A.66.66,0,0,0,93.93,13.73Z"/><path class="cls-11" d="M118.55,19.61a.68.68,0,0,0-.5.22.67.67,0,0,0-.21.49.69.69,0,0,0,.21.51.7.7,0,0,0,.5.2.68.68,0,0,0,.71-.71.7.7,0,0,0-.2-.49A.7.7,0,0,0,118.55,19.61Z"/><path class="cls-12" d="M106.7,6.64a.72.72,0,0,0,1,0,.69.69,0,0,0,.21-.51.68.68,0,0,0-.21-.49.7.7,0,0,0-1,0,.68.68,0,0,0-.21.49A.69.69,0,0,0,106.7,6.64Z"/><path class="cls-13" d="M105.78,5.43a.69.69,0,0,0,.51-.21.7.7,0,0,0,.2-.5.68.68,0,0,0-.71-.71.69.69,0,0,0-.5.2.69.69,0,0,0-.21.51.67.67,0,0,0,.21.5A.66.66,0,0,0,105.78,5.43Z"/><path class="cls-5" d="M102.94,22.45a.69.69,0,0,0,.51-.21.72.72,0,0,0,.2-.5.7.7,0,0,0-.2-.5.71.71,0,0,0-1,0,.67.67,0,0,0-.21.5.72.72,0,0,0,.71.71Z"/><path class="cls-9" d="M109.12,7.06a.71.71,0,0,0-1.21.49.69.69,0,0,0,.21.51.73.73,0,0,0,1,0,.69.69,0,0,0,.21-.51A.67.67,0,0,0,109.12,7.06Z"/><path class="cls-12" d="M103.86,6.64a.66.66,0,0,0,.5.2.69.69,0,0,0,.51-.2.73.73,0,0,0,.2-.51.71.71,0,0,0-.2-.49.69.69,0,0,0-.51-.21.67.67,0,0,0-.5.21.68.68,0,0,0-.21.49A.69.69,0,0,0,103.86,6.64Z"/><path class="cls-9" d="M102.94,8.26a.68.68,0,0,0,.71-.71.7.7,0,0,0-.2-.49.69.69,0,0,0-1,0,.67.67,0,0,0-.21.49.69.69,0,0,0,.21.51A.72.72,0,0,0,102.94,8.26Z"/><path class="cls-13" d="M102.94,5.43a.69.69,0,0,0,.51-.21.7.7,0,0,0,.2-.5.71.71,0,0,0-1.21-.51.69.69,0,0,0-.21.51.67.67,0,0,0,.21.5A.69.69,0,0,0,102.94,5.43Z"/><path class="cls-9" d="M89.26,7.05a.71.71,0,0,0-1,0,.71.71,0,0,0,1,1,.71.71,0,0,0,0-1Z"/><path class="cls-13" d="M88.76,5.43a.69.69,0,0,0,.5-.21.67.67,0,0,0,.21-.5.69.69,0,0,0-.21-.51.71.71,0,0,0-1.21.51.7.7,0,0,0,.2.5A.69.69,0,0,0,88.76,5.43Z"/><path class="cls-12" d="M89.67,6.64a.68.68,0,0,0,.5.2.68.68,0,0,0,.71-.71.68.68,0,0,0-.2-.5.69.69,0,0,0-.51-.2.68.68,0,0,0-.7.7A.69.69,0,0,0,89.67,6.64Z"/><path class="cls-7" d="M109.12,9.89a.7.7,0,0,0-1,0,.7.7,0,0,0-.21.5.69.69,0,0,0,.21.51.73.73,0,0,0,1,0,.69.69,0,0,0,.21-.51A.7.7,0,0,0,109.12,9.89Z"/><path class="cls-5" d="M91.59,21a.69.69,0,0,0-.5.21.67.67,0,0,0-.21.5.69.69,0,0,0,.21.51.71.71,0,0,0,1.21-.51.7.7,0,0,0-.2-.5A.69.69,0,0,0,91.59,21Z"/><path class="cls-5" d="M88.76,21a.69.69,0,0,0-.51.21.7.7,0,0,0-.2.5.71.71,0,0,0,1.21.51.69.69,0,0,0,.21-.51.67.67,0,0,0-.21-.5A.69.69,0,0,0,88.76,21Z"/><path class="cls-13" d="M85.92,5.43a.72.72,0,0,0,.71-.71.69.69,0,0,0-.21-.51.7.7,0,0,0-.5-.2.68.68,0,0,0-.71.71.7.7,0,0,0,.2.5A.69.69,0,0,0,85.92,5.43Z"/><path class="cls-12" d="M86.83,6.64a.69.69,0,0,0,.51.2.66.66,0,0,0,.5-.2.71.71,0,0,0,0-1,.66.66,0,0,0-.5-.2.69.69,0,0,0-.51.2.74.74,0,0,0,0,1Z"/><path class="cls-12" d="M92.51,6.64a.66.66,0,0,0,.5.2.69.69,0,0,0,.51-.2.74.74,0,0,0,0-1,.69.69,0,0,0-.51-.2.66.66,0,0,0-.5.2.71.71,0,0,0,0,1Z"/><path class="cls-16" d="M96.35,11.31a.7.7,0,0,0-1,0,.7.7,0,0,0-.21.5.71.71,0,0,0,1.42,0A.7.7,0,0,0,96.35,11.31Z"/><path class="cls-17" d="M96.35,14.15a.7.7,0,0,0-1,0,.69.69,0,0,0-.21.5.71.71,0,0,0,1.42,0A.69.69,0,0,0,96.35,14.15Z"/><path class="cls-15" d="M96.35,8.48a.68.68,0,0,0-1,0,.67.67,0,0,0-.21.49.69.69,0,0,0,.21.51.73.73,0,0,0,1,0A.69.69,0,0,0,96.56,9,.67.67,0,0,0,96.35,8.48Z"/><path class="cls-9" d="M92.1,7.05a.71.71,0,1,0-1,1,.71.71,0,0,0,1-1Z"/><path class="cls-13" d="M91.59,5.43a.69.69,0,0,0,.51-.21.7.7,0,0,0,.2-.5.71.71,0,0,0-1.21-.51.69.69,0,0,0-.21.51.67.67,0,0,0,.21.5A.69.69,0,0,0,91.59,5.43Z"/><path class="cls-13" d="M94.43,5.43a.69.69,0,0,0,.51-.21.7.7,0,0,0,.2-.5.72.72,0,0,0-.2-.5A.69.69,0,0,0,94.43,4a.66.66,0,0,0-.5.21.69.69,0,0,0-.21.5.67.67,0,0,0,.21.5A.66.66,0,0,0,94.43,5.43Z"/><path class="cls-14" d="M96.35,17a.7.7,0,0,0-1,0,.7.7,0,0,0,0,1,.7.7,0,0,0,1,0,.7.7,0,0,0,0-1Z"/><path class="cls-9" d="M94.43,8.26a.68.68,0,0,0,.71-.71.7.7,0,0,0-.2-.49.7.7,0,0,0-.51-.22.74.74,0,0,0-.71.71.69.69,0,0,0,.21.51A.69.69,0,0,0,94.43,8.26Z"/><path class="cls-10" d="M117.13,16.78a.69.69,0,0,0,.51-.21.7.7,0,0,0,.2-.5.72.72,0,0,0-.2-.5.69.69,0,0,0-.51-.21.67.67,0,0,0-.5.21.69.69,0,0,0-.21.5.72.72,0,0,0,.71.71Z"/><path class="cls-8" d="M117.13,13.94a.69.69,0,0,0,.51-.21.69.69,0,0,0,.2-.5.72.72,0,0,0-.2-.5.69.69,0,0,0-.51-.21.67.67,0,0,0-.5.21.69.69,0,0,0-.21.5.66.66,0,0,0,.21.5A.67.67,0,0,0,117.13,13.94Z"/><path class="cls-7" d="M117.13,11.1a.68.68,0,0,0,.71-.71.74.74,0,0,0-.2-.5.69.69,0,0,0-.51-.21.67.67,0,0,0-.5.21.7.7,0,0,0-.21.5.69.69,0,0,0,.21.51A.7.7,0,0,0,117.13,11.1Z"/><path class="cls-12" d="M109.53,6.64a.69.69,0,0,0,.51.2.65.65,0,0,0,.5-.2.69.69,0,0,0,.21-.51.68.68,0,0,0-.21-.49.66.66,0,0,0-.5-.21.69.69,0,0,0-.51.21.71.71,0,0,0-.2.49A.73.73,0,0,0,109.53,6.64Z"/><path class="cls-9" d="M117.13,8.26a.68.68,0,0,0,.71-.71.7.7,0,0,0-.2-.49.7.7,0,0,0-.51-.22.68.68,0,0,0-.5.22.67.67,0,0,0-.21.49.69.69,0,0,0,.21.51A.7.7,0,0,0,117.13,8.26Z"/><path class="cls-5" d="M117.13,22.45a.68.68,0,0,0,.71-.71.7.7,0,0,0-.2-.49.67.67,0,0,0-.51-.22.65.65,0,0,0-.5.22.67.67,0,0,0-.21.49.69.69,0,0,0,.21.51A.7.7,0,0,0,117.13,22.45Z"/><path class="cls-6" d="M117.13,19.61a.69.69,0,0,0,.51-.2.73.73,0,0,0,.2-.51.71.71,0,0,0-.2-.49.69.69,0,0,0-.51-.21.67.67,0,0,0-.5.21.68.68,0,0,0-.21.49.69.69,0,0,0,.21.51A.66.66,0,0,0,117.13,19.61Z"/><path class="cls-8" d="M120,13.94a.72.72,0,0,0,.71-.71.69.69,0,0,0-.21-.5.7.7,0,0,0-1,0,.69.69,0,0,0-.21.5.72.72,0,0,0,.71.71Z"/><path class="cls-16" d="M119.06,11.31a.69.69,0,0,0-.51-.21.67.67,0,0,0-.5.21.7.7,0,0,0-.21.5.66.66,0,0,0,.21.5.67.67,0,0,0,.5.21.69.69,0,0,0,.51-.21.69.69,0,0,0,.2-.5A.74.74,0,0,0,119.06,11.31Z"/><path class="cls-17" d="M119.06,14.15a.69.69,0,0,0-.51-.21.67.67,0,0,0-.5.21.69.69,0,0,0-.21.5.66.66,0,0,0,.21.5.67.67,0,0,0,.5.21.69.69,0,0,0,.51-.21.69.69,0,0,0,.2-.5A.72.72,0,0,0,119.06,14.15Z"/><path class="cls-15" d="M118.55,9.68a.68.68,0,0,0,.71-.71.7.7,0,0,0-.2-.49.67.67,0,0,0-.51-.22.65.65,0,0,0-.5.22.67.67,0,0,0-.21.49.69.69,0,0,0,.21.51A.7.7,0,0,0,118.55,9.68Z"/><path class="cls-12" d="M118.55,6.84a.69.69,0,0,0,.51-.2.73.73,0,0,0,.2-.51.71.71,0,0,0-.2-.49.69.69,0,0,0-.51-.21.67.67,0,0,0-.5.21.68.68,0,0,0-.21.49.69.69,0,0,0,.21.51A.66.66,0,0,0,118.55,6.84Z"/><path class="cls-9" d="M120.47,7.06a.71.71,0,0,0-1.21.49.69.69,0,0,0,.21.51.73.73,0,0,0,1,0,.69.69,0,0,0,.21-.51A.67.67,0,0,0,120.47,7.06Z"/><path class="cls-7" d="M120.47,9.89a.7.7,0,0,0-1,0,.7.7,0,0,0-.21.5.69.69,0,0,0,.21.51.73.73,0,0,0,1,0,.69.69,0,0,0,.21-.51A.7.7,0,0,0,120.47,9.89Z"/><path class="cls-8" d="M109.12,12.73a.7.7,0,0,0-1,0,.69.69,0,0,0-.21.5.71.71,0,0,0,1.42,0A.69.69,0,0,0,109.12,12.73Z"/><path class="cls-13" d="M108.62,5.43a.66.66,0,0,0,.5-.21.67.67,0,0,0,.21-.5.69.69,0,0,0-.21-.5.7.7,0,0,0-1,0,.69.69,0,0,0-.21.5.67.67,0,0,0,.21.5A.66.66,0,0,0,108.62,5.43Z"/><path class="cls-10" d="M105.28,16.57a.66.66,0,0,0,.5.21.69.69,0,0,0,.51-.21.7.7,0,0,0,.2-.5.72.72,0,0,0-.2-.5.69.69,0,0,0-.51-.21.66.66,0,0,0-.5.21.69.69,0,0,0-.21.5A.67.67,0,0,0,105.28,16.57Z"/><path class="cls-8" d="M105.28,13.73a.66.66,0,0,0,.5.21.69.69,0,0,0,.51-.21.69.69,0,0,0,.2-.5.72.72,0,0,0-.2-.5.69.69,0,0,0-.51-.21.66.66,0,0,0-.5.21.69.69,0,0,0-.21.5A.66.66,0,0,0,105.28,13.73Z"/><path class="cls-11" d="M107.2,21a.69.69,0,0,0,.5-.2.69.69,0,0,0,.21-.51.71.71,0,0,0-1.42,0,.69.69,0,0,0,.21.51A.69.69,0,0,0,107.2,21Z"/><path class="cls-6" d="M109.12,18.41a.7.7,0,0,0-1,0,.68.68,0,0,0-.21.49.69.69,0,0,0,.21.51.73.73,0,0,0,1,0,.69.69,0,0,0,.21-.51A.68.68,0,0,0,109.12,18.41Z"/><path class="cls-10" d="M109.12,15.57a.7.7,0,0,0-1,0,.69.69,0,0,0-.21.5.67.67,0,0,0,.21.5.7.7,0,0,0,1,0,.67.67,0,0,0,.21-.5A.69.69,0,0,0,109.12,15.57Z"/><path class="cls-7" d="M105.28,10.9a.69.69,0,0,0,.5.2.68.68,0,0,0,.71-.71.74.74,0,0,0-.2-.5.69.69,0,0,0-.51-.21.66.66,0,0,0-.5.21.7.7,0,0,0-.21.5A.69.69,0,0,0,105.28,10.9Z"/><path class="cls-5" d="M108.62,22.45a.69.69,0,0,0,.5-.2.69.69,0,0,0,.21-.51.67.67,0,0,0-.21-.49.68.68,0,0,0-1,0,.67.67,0,0,0-.21.49.69.69,0,0,0,.21.51A.69.69,0,0,0,108.62,22.45Z"/><path class="cls-17" d="M107.7,14.15a.7.7,0,0,0-1,0,.69.69,0,0,0-.21.5.71.71,0,0,0,1.42,0A.69.69,0,0,0,107.7,14.15Z"/><path class="cls-6" d="M106.29,18.41a.69.69,0,0,0-.51-.21.66.66,0,0,0-.5.21.68.68,0,0,0-.21.49.69.69,0,0,0,.21.51.65.65,0,0,0,.5.2.69.69,0,0,0,.51-.2.73.73,0,0,0,.2-.51A.71.71,0,0,0,106.29,18.41Z"/><path class="cls-9" d="M105.78,6.84a.66.66,0,0,0-.5.21.71.71,0,0,0,.5,1.21.71.71,0,0,0,.51-1.21A.69.69,0,0,0,105.78,6.84Z"/><path class="cls-14" d="M107.2,16.78a.66.66,0,0,0-.5.21.7.7,0,0,0,0,1,.7.7,0,0,0,1,0,.7.7,0,0,0,0-1A.66.66,0,0,0,107.2,16.78Z"/><path class="cls-5" d="M105.78,21a.63.63,0,0,0-.5.22.67.67,0,0,0-.21.49.69.69,0,0,0,.21.51.69.69,0,0,0,.5.2.68.68,0,0,0,.71-.71.7.7,0,0,0-.2-.49A.67.67,0,0,0,105.78,21Z"/><path class="cls-16" d="M107.7,11.31a.7.7,0,0,0-1,0,.7.7,0,0,0-.21.5.71.71,0,0,0,1.42,0A.7.7,0,0,0,107.7,11.31Z"/><path class="cls-15" d="M107.7,8.48a.68.68,0,0,0-1,0,.67.67,0,0,0-.21.49.69.69,0,0,0,.21.51.73.73,0,0,0,1,0,.69.69,0,0,0,.21-.51A.67.67,0,0,0,107.7,8.48Z"/><path class="cls-7" d="M208.44,9.89a.7.7,0,0,0-1,0,.7.7,0,0,0-.21.5.69.69,0,0,0,.21.51.73.73,0,0,0,1,0,.69.69,0,0,0,.21-.51A.7.7,0,0,0,208.44,9.89Z"/><path class="cls-5" d="M213.62,21a.67.67,0,0,0-.51.22.7.7,0,0,0-.2.49.68.68,0,0,0,.71.71.7.7,0,0,0,.5-.2.69.69,0,0,0,.21-.51.67.67,0,0,0-.21-.49A.65.65,0,0,0,213.62,21Z"/><path class="cls-9" d="M214.12,7.06a.68.68,0,0,0-.5-.22.7.7,0,0,0-.51.22.7.7,0,0,0-.2.49.68.68,0,0,0,.71.71.7.7,0,0,0,.5-.2.69.69,0,0,0,.21-.51A.67.67,0,0,0,214.12,7.06Z"/><path class="cls-5" d="M210.78,21a.63.63,0,0,0-.5.22.67.67,0,0,0-.21.49.69.69,0,0,0,.21.51.73.73,0,0,0,1,0,.69.69,0,0,0,.21-.51.67.67,0,0,0-.21-.49A.63.63,0,0,0,210.78,21Z"/><path class="cls-13" d="M213.62,5.43a.72.72,0,0,0,.71-.71.69.69,0,0,0-.21-.5.67.67,0,0,0-.5-.21.69.69,0,0,0-.51.21.72.72,0,0,0-.2.5.7.7,0,0,0,.2.5A.69.69,0,0,0,213.62,5.43Z"/><path class="cls-9" d="M211.28,7.05a.7.7,0,0,0-1,0,.71.71,0,1,0,1,0Z"/><path class="cls-12" d="M211.69,6.64a.69.69,0,0,0,.51.2.66.66,0,0,0,.5-.2.69.69,0,0,0,.21-.51.68.68,0,0,0-.21-.49.67.67,0,0,0-.5-.21.69.69,0,0,0-.51.21.71.71,0,0,0-.2.49A.73.73,0,0,0,211.69,6.64Z"/><path class="cls-13" d="M210.78,5.43a.66.66,0,0,0,.5-.21.67.67,0,0,0,.21-.5.69.69,0,0,0-.21-.51.73.73,0,0,0-1,0,.69.69,0,0,0-.21.51.67.67,0,0,0,.21.5A.66.66,0,0,0,210.78,5.43Z"/><path class="cls-12" d="M214.53,6.64a.69.69,0,0,0,.51.2.68.68,0,0,0,.5-.2.69.69,0,0,0,.2-.51.67.67,0,0,0-.2-.49.71.71,0,0,0-1,0,.67.67,0,0,0-.2.49A.69.69,0,0,0,214.53,6.64Z"/><path class="cls-12" d="M217.37,6.64a.66.66,0,0,0,.5.2.69.69,0,0,0,.51-.2.73.73,0,0,0,.2-.51.71.71,0,0,0-.2-.49.69.69,0,0,0-.51-.21.67.67,0,0,0-.5.21.68.68,0,0,0-.21.49A.69.69,0,0,0,217.37,6.64Z"/><path class="cls-5" d="M225,22.45a.7.7,0,0,0,.5-.2.69.69,0,0,0,.21-.51.67.67,0,0,0-.21-.49A.65.65,0,0,0,225,21a.67.67,0,0,0-.51.22.7.7,0,0,0-.2.49.68.68,0,0,0,.71.71Z"/><path class="cls-6" d="M225,19.61a.66.66,0,0,0,.5-.2.69.69,0,0,0,.21-.51.68.68,0,0,0-.21-.49.67.67,0,0,0-.5-.21.69.69,0,0,0-.51.21.71.71,0,0,0-.2.49.73.73,0,0,0,.2.51A.69.69,0,0,0,225,19.61Z"/><path class="cls-15" d="M218.38,8.48a.67.67,0,0,0-.51-.22.65.65,0,0,0-.5.22.67.67,0,0,0-.21.49.69.69,0,0,0,.21.51.7.7,0,0,0,.5.2.68.68,0,0,0,.71-.71A.7.7,0,0,0,218.38,8.48Z"/><path class="cls-11" d="M217.87,19.61a.68.68,0,0,0-.5.22.67.67,0,0,0-.21.49.69.69,0,0,0,.21.51.7.7,0,0,0,.5.2.68.68,0,0,0,.71-.71.7.7,0,0,0-.2-.49A.7.7,0,0,0,217.87,19.61Z"/><path class="cls-13" d="M216.45,5.43a.69.69,0,0,0,.51-.21.66.66,0,0,0,.2-.5.68.68,0,0,0-.2-.5.72.72,0,0,0-1.22.5.67.67,0,0,0,.21.5A.69.69,0,0,0,216.45,5.43Z"/><path class="cls-5" d="M216.45,21a.74.74,0,0,0-.71.71.69.69,0,0,0,.21.51.74.74,0,0,0,1,0,.69.69,0,0,0,.2-.51.66.66,0,0,0-.2-.49A.67.67,0,0,0,216.45,21Z"/><path class="cls-9" d="M217,7.06a.69.69,0,0,0-1,0,.67.67,0,0,0-.21.49.69.69,0,0,0,.21.51.74.74,0,0,0,1,0,.69.69,0,0,0,.2-.51A.66.66,0,0,0,217,7.06Z"/><path class="cls-16" d="M84,12.31a.71.71,0,0,0,1.21-.5.7.7,0,0,0-.21-.5.7.7,0,0,0-1,0,.7.7,0,0,0-.21.5A.66.66,0,0,0,84,12.31Z"/><path class="cls-8" d="M208.44,12.73a.7.7,0,0,0-1,0,.69.69,0,0,0-.21.5.71.71,0,0,0,1.42,0A.69.69,0,0,0,208.44,12.73Z"/><path class="cls-10" d="M208.44,15.57a.7.7,0,0,0-1,0,.69.69,0,0,0-.21.5.67.67,0,0,0,.21.5.7.7,0,0,0,1,0,.67.67,0,0,0,.21-.5A.69.69,0,0,0,208.44,15.57Z"/><path class="cls-12" d="M206.52,6.84a.69.69,0,0,0,.51-.2.73.73,0,0,0,.2-.51.71.71,0,0,0-.2-.49.69.69,0,0,0-.51-.21.67.67,0,0,0-.5.21.68.68,0,0,0-.21.49.69.69,0,0,0,.21.51A.66.66,0,0,0,206.52,6.84Z"/><path class="cls-9" d="M208.44,7.06a.71.71,0,0,0-1.21.49.69.69,0,0,0,.21.51.73.73,0,0,0,1,0,.69.69,0,0,0,.21-.51A.67.67,0,0,0,208.44,7.06Z"/><path class="cls-9" d="M205.1,8.26a.68.68,0,0,0,.71-.71.7.7,0,0,0-.2-.49.7.7,0,0,0-.51-.22.68.68,0,0,0-.5.22.67.67,0,0,0-.21.49.69.69,0,0,0,.21.51A.7.7,0,0,0,205.1,8.26Z"/><path class="cls-6" d="M208.44,18.41a.7.7,0,0,0-1,0,.68.68,0,0,0-.21.49.69.69,0,0,0,.21.51.73.73,0,0,0,1,0,.69.69,0,0,0,.21-.51A.68.68,0,0,0,208.44,18.41Z"/><path class="cls-14" d="M206,18a.67.67,0,0,0,.5.21A.69.69,0,0,0,207,18a.73.73,0,0,0,0-1,.69.69,0,0,0-.51-.21.67.67,0,0,0-.5.21.7.7,0,0,0,0,1Z"/><path class="cls-15" d="M206.52,9.68a.68.68,0,0,0,.71-.71.7.7,0,0,0-.2-.49.67.67,0,0,0-.51-.22.65.65,0,0,0-.5.22.67.67,0,0,0-.21.49.69.69,0,0,0,.21.51A.7.7,0,0,0,206.52,9.68Z"/><path class="cls-16" d="M206,12.31a.67.67,0,0,0,.5.21.69.69,0,0,0,.51-.21.69.69,0,0,0,.2-.5.74.74,0,0,0-.2-.5.69.69,0,0,0-.51-.21.67.67,0,0,0-.5.21.7.7,0,0,0-.21.5A.66.66,0,0,0,206,12.31Z"/><path class="cls-13" d="M207.94,5.43a.66.66,0,0,0,.5-.21.67.67,0,0,0,.21-.5.69.69,0,0,0-.21-.51.73.73,0,0,0-1,0,.69.69,0,0,0-.21.51.67.67,0,0,0,.21.5A.66.66,0,0,0,207.94,5.43Z"/><path class="cls-5" d="M207.94,22.45a.69.69,0,0,0,.5-.2.69.69,0,0,0,.21-.51.67.67,0,0,0-.21-.49.68.68,0,0,0-1,0,.67.67,0,0,0-.21.49.69.69,0,0,0,.21.51A.69.69,0,0,0,207.94,22.45Z"/><path class="cls-11" d="M206,20.83a.7.7,0,0,0,.5.2.68.68,0,0,0,.71-.71.7.7,0,0,0-.2-.49.7.7,0,0,0-.51-.22.68.68,0,0,0-.5.22.67.67,0,0,0-.21.49A.69.69,0,0,0,206,20.83Z"/><path class="cls-17" d="M206,15.15a.67.67,0,0,0,.5.21.69.69,0,0,0,.51-.21.69.69,0,0,0,.2-.5.72.72,0,0,0-.2-.5.69.69,0,0,0-.51-.21.67.67,0,0,0-.5.21.69.69,0,0,0-.21.5A.66.66,0,0,0,206,15.15Z"/><path class="cls-12" d="M208.86,6.64a.72.72,0,0,0,1,0,.69.69,0,0,0,.21-.51.68.68,0,0,0-.21-.49.7.7,0,0,0-1,0,.68.68,0,0,0-.21.49A.69.69,0,0,0,208.86,6.64Z"/><path class="cls-16" d="M226.89,11.31a.71.71,0,0,0-1,0,.74.74,0,0,0-.2.5.69.69,0,0,0,.2.5.71.71,0,0,0,1,0,.66.66,0,0,0,.21-.5A.7.7,0,0,0,226.89,11.31Z"/><path class="cls-13" d="M236.32,5.43a.72.72,0,0,0,.71-.71.69.69,0,0,0-.21-.5.67.67,0,0,0-.5-.21.69.69,0,0,0-.51.21.72.72,0,0,0-.2.5.7.7,0,0,0,.2.5A.69.69,0,0,0,236.32,5.43Z"/><path class="cls-9" d="M236.32,8.26a.7.7,0,0,0,.5-.2.69.69,0,0,0,.21-.51.67.67,0,0,0-.21-.49.68.68,0,0,0-.5-.22.7.7,0,0,0-.51.22.7.7,0,0,0-.2.49.68.68,0,0,0,.71.71Z"/><path class="cls-16" d="M238.24,11.31a.67.67,0,0,0-.5-.21.69.69,0,0,0-.51.21.74.74,0,0,0-.2.5.69.69,0,0,0,.2.5.69.69,0,0,0,.51.21.67.67,0,0,0,.5-.21.66.66,0,0,0,.21-.5A.7.7,0,0,0,238.24,11.31Z"/><path class="cls-15" d="M238.24,8.48a.65.65,0,0,0-.5-.22.67.67,0,0,0-.51.22A.7.7,0,0,0,237,9a.68.68,0,0,0,.71.71.7.7,0,0,0,.5-.2.69.69,0,0,0,.21-.51A.67.67,0,0,0,238.24,8.48Z"/><path class="cls-8" d="M233.48,13.94a.72.72,0,0,0,.71-.71.69.69,0,0,0-.21-.5.7.7,0,0,0-1,0,.69.69,0,0,0-.21.5.72.72,0,0,0,.71.71Z"/><path class="cls-7" d="M236.32,11.1a.7.7,0,0,0,.5-.2.69.69,0,0,0,.21-.51.7.7,0,0,0-.21-.5.67.67,0,0,0-.5-.21.69.69,0,0,0-.51.21.74.74,0,0,0-.2.5.68.68,0,0,0,.71.71Z"/><path class="cls-8" d="M236.32,13.94a.67.67,0,0,0,.5-.21.66.66,0,0,0,.21-.5.69.69,0,0,0-.21-.5.67.67,0,0,0-.5-.21.69.69,0,0,0-.51.21.72.72,0,0,0-.2.5.69.69,0,0,0,.2.5A.69.69,0,0,0,236.32,13.94Z"/><path class="cls-10" d="M225,16.78a.72.72,0,0,0,.71-.71.69.69,0,0,0-.21-.5.67.67,0,0,0-.5-.21.69.69,0,0,0-.51.21.72.72,0,0,0-.2.5.7.7,0,0,0,.2.5A.69.69,0,0,0,225,16.78Z"/><path class="cls-8" d="M230.64,13.94a.69.69,0,0,0,.51-.21.69.69,0,0,0,.2-.5.72.72,0,0,0-.2-.5.69.69,0,0,0-.51-.21.67.67,0,0,0-.5.21.69.69,0,0,0-.21.5.66.66,0,0,0,.21.5A.67.67,0,0,0,230.64,13.94Z"/><path class="cls-12" d="M237.23,6.64a.69.69,0,0,0,.51.2.66.66,0,0,0,.5-.2.69.69,0,0,0,.21-.51.68.68,0,0,0-.21-.49.67.67,0,0,0-.5-.21.69.69,0,0,0-.51.21.71.71,0,0,0-.2.49A.73.73,0,0,0,237.23,6.64Z"/><path class="cls-5" d="M236.32,21a.67.67,0,0,0-.51.22.7.7,0,0,0-.2.49.68.68,0,0,0,.71.71.7.7,0,0,0,.5-.2.69.69,0,0,0,.21-.51.67.67,0,0,0-.21-.49A.65.65,0,0,0,236.32,21Z"/><path class="cls-10" d="M236.32,16.78a.72.72,0,0,0,.71-.71.69.69,0,0,0-.21-.5.67.67,0,0,0-.5-.21.69.69,0,0,0-.51.21.72.72,0,0,0-.2.5.7.7,0,0,0,.2.5A.69.69,0,0,0,236.32,16.78Z"/><path class="cls-14" d="M238.24,17a.67.67,0,0,0-.5-.21.69.69,0,0,0-.51.21.73.73,0,0,0,0,1,.69.69,0,0,0,.51.21.67.67,0,0,0,.5-.21.7.7,0,0,0,0-1Z"/><path class="cls-17" d="M238.24,14.15a.67.67,0,0,0-.5-.21.69.69,0,0,0-.51.21.72.72,0,0,0-.2.5.69.69,0,0,0,.2.5.69.69,0,0,0,.51.21.67.67,0,0,0,.5-.21.66.66,0,0,0,.21-.5A.69.69,0,0,0,238.24,14.15Z"/><path class="cls-11" d="M237.74,21a.7.7,0,0,0,.5-.2.69.69,0,0,0,.21-.51.67.67,0,0,0-.21-.49.68.68,0,0,0-.5-.22.7.7,0,0,0-.51.22.7.7,0,0,0-.2.49.68.68,0,0,0,.71.71Z"/><path class="cls-6" d="M236.82,18.41a.67.67,0,0,0-.5-.21.69.69,0,0,0-.51.21.71.71,0,0,0-.2.49.73.73,0,0,0,.2.51.69.69,0,0,0,.51.2.66.66,0,0,0,.5-.2.69.69,0,0,0,.21-.51A.68.68,0,0,0,236.82,18.41Z"/><path class="cls-13" d="M225,5.43a.72.72,0,0,0,.71-.71.69.69,0,0,0-.21-.5A.67.67,0,0,0,225,4a.69.69,0,0,0-.51.21.72.72,0,0,0-.2.5.7.7,0,0,0,.2.5A.69.69,0,0,0,225,5.43Z"/><path class="cls-12" d="M225.88,6.64a.69.69,0,0,0,.51.2.68.68,0,0,0,.5-.2.69.69,0,0,0,.21-.51.72.72,0,0,0-.71-.7.69.69,0,0,0-.51.21.71.71,0,0,0-.2.49A.73.73,0,0,0,225.88,6.64Z"/><path class="cls-7" d="M228.31,9.89a.71.71,0,0,0-1.21.5.69.69,0,0,0,.2.51.74.74,0,0,0,1,0,.69.69,0,0,0,.2-.51A.69.69,0,0,0,228.31,9.89Z"/><path class="cls-9" d="M228.31,7.06a.69.69,0,0,0-1,0,.66.66,0,0,0-.2.49.69.69,0,0,0,.2.51.74.74,0,0,0,1,0,.69.69,0,0,0,.2-.51A.66.66,0,0,0,228.31,7.06Z"/><path class="cls-16" d="M142.17,12.31a.67.67,0,0,0,.5.21.69.69,0,0,0,.51-.21.69.69,0,0,0,.2-.5.74.74,0,0,0-.2-.5.69.69,0,0,0-.51-.21.67.67,0,0,0-.5.21.7.7,0,0,0-.21.5A.66.66,0,0,0,142.17,12.31Z"/><path class="cls-8" d="M225,13.94a.67.67,0,0,0,.5-.21.66.66,0,0,0,.21-.5.69.69,0,0,0-.21-.5.67.67,0,0,0-.5-.21.69.69,0,0,0-.51.21.72.72,0,0,0-.2.5.69.69,0,0,0,.2.5A.69.69,0,0,0,225,13.94Z"/><path class="cls-7" d="M225,11.1a.7.7,0,0,0,.5-.2.69.69,0,0,0,.21-.51.7.7,0,0,0-.21-.5.67.67,0,0,0-.5-.21.69.69,0,0,0-.51.21.74.74,0,0,0-.2.5.68.68,0,0,0,.71.71Z"/><path class="cls-13" d="M227.8,5.43a.69.69,0,0,0,.51-.21.66.66,0,0,0,.2-.5.69.69,0,0,0-.2-.51.74.74,0,0,0-1,0,.69.69,0,0,0-.2.51.66.66,0,0,0,.2.5A.69.69,0,0,0,227.8,5.43Z"/><path class="cls-8" d="M227.8,13.94a.69.69,0,0,0,.51-.21.65.65,0,0,0,.2-.5.68.68,0,0,0-.2-.5.71.71,0,0,0-1,0,.68.68,0,0,0-.2.5.65.65,0,0,0,.2.5A.69.69,0,0,0,227.8,13.94Z"/><path class="cls-14" d="M226.89,17a.71.71,0,0,0-1,0,.73.73,0,0,0,0,1,.71.71,0,1,0,1-1Z"/><path class="cls-17" d="M226.89,14.15a.71.71,0,0,0-1,0,.72.72,0,0,0-.2.5.69.69,0,0,0,.2.5.71.71,0,0,0,1,0,.66.66,0,0,0,.21-.5A.69.69,0,0,0,226.89,14.15Z"/><path class="cls-11" d="M226.39,19.61a.7.7,0,0,0-.51.22.7.7,0,0,0-.2.49.71.71,0,0,0,1.21.51.69.69,0,0,0,.21-.51.67.67,0,0,0-.21-.49A.7.7,0,0,0,226.39,19.61Z"/><path class="cls-7" d="M205.1,11.1a.68.68,0,0,0,.71-.71.74.74,0,0,0-.2-.5.69.69,0,0,0-.51-.21.67.67,0,0,0-.5.21.7.7,0,0,0-.21.5.69.69,0,0,0,.21.51A.7.7,0,0,0,205.1,11.1Z"/><path class="cls-15" d="M226.39,9.68a.72.72,0,0,0,.5-.2A.69.69,0,0,0,227.1,9a.71.71,0,0,0-1.22-.49.7.7,0,0,0-.2.49.68.68,0,0,0,.71.71Z"/><path class="cls-9" d="M225,8.26a.7.7,0,0,0,.5-.2.69.69,0,0,0,.21-.51.67.67,0,0,0-.21-.49.68.68,0,0,0-.5-.22.7.7,0,0,0-.51.22.7.7,0,0,0-.2.49.68.68,0,0,0,.71.71Z"/><path class="cls-10" d="M173.38,16.57a.69.69,0,0,0,.51.21.72.72,0,0,0,.71-.71.69.69,0,0,0-.21-.5.67.67,0,0,0-.5-.21.69.69,0,0,0-.51.21.72.72,0,0,0-.2.5A.7.7,0,0,0,173.38,16.57Z"/><path class="cls-12" d="M174.8,6.64a.69.69,0,0,0,.51.2.66.66,0,0,0,.5-.2.69.69,0,0,0,.21-.51.68.68,0,0,0-.21-.49.67.67,0,0,0-.5-.21.69.69,0,0,0-.51.21.71.71,0,0,0-.2.49A.73.73,0,0,0,174.8,6.64Z"/><path class="cls-5" d="M173.89,21a.67.67,0,0,0-.51.22.7.7,0,0,0-.2.49.68.68,0,0,0,.71.71.7.7,0,0,0,.5-.2.69.69,0,0,0,.21-.51.67.67,0,0,0-.21-.49A.65.65,0,0,0,173.89,21Z"/><path class="cls-13" d="M176.73,5.43a.69.69,0,0,0,.5-.21.67.67,0,0,0,.21-.5.71.71,0,0,0-1.22-.5.72.72,0,0,0-.2.5.7.7,0,0,0,.2.5A.69.69,0,0,0,176.73,5.43Z"/><path class="cls-8" d="M173.38,13.73a.69.69,0,0,0,.51.21.67.67,0,0,0,.5-.21.66.66,0,0,0,.21-.5.69.69,0,0,0-.21-.5.67.67,0,0,0-.5-.21.69.69,0,0,0-.51.21.72.72,0,0,0-.2.5A.69.69,0,0,0,173.38,13.73Z"/><path class="cls-9" d="M173.89,8.26a.7.7,0,0,0,.5-.2.71.71,0,0,0,0-1,.67.67,0,0,0-.5-.21.69.69,0,0,0-.51.21.71.71,0,0,0,.51,1.21Z"/><path class="cls-7" d="M173.38,10.9a.73.73,0,0,0,.51.2.7.7,0,0,0,.5-.2.69.69,0,0,0,.21-.51.7.7,0,0,0-.21-.5.67.67,0,0,0-.5-.21.69.69,0,0,0-.51.21.74.74,0,0,0-.2.5A.73.73,0,0,0,173.38,10.9Z"/><path class="cls-13" d="M188.08,5.43a.72.72,0,0,0,.71-.71.69.69,0,0,0-.21-.5.67.67,0,0,0-.5-.21.69.69,0,0,0-.51.21.72.72,0,0,0-.2.5.7.7,0,0,0,.2.5A.69.69,0,0,0,188.08,5.43Z"/><path class="cls-7" d="M188.08,11.1a.7.7,0,0,0,.5-.2.69.69,0,0,0,.21-.51.7.7,0,0,0-.21-.5.67.67,0,0,0-.5-.21.69.69,0,0,0-.51.21.74.74,0,0,0-.2.5.68.68,0,0,0,.71.71Z"/><path class="cls-9" d="M188.08,8.26a.7.7,0,0,0,.5-.2.69.69,0,0,0,.21-.51.67.67,0,0,0-.21-.49.68.68,0,0,0-.5-.22.7.7,0,0,0-.51.22.7.7,0,0,0-.2.49.68.68,0,0,0,.71.71Z"/><path class="cls-8" d="M188.08,13.94a.67.67,0,0,0,.5-.21.66.66,0,0,0,.21-.5.69.69,0,0,0-.21-.5.67.67,0,0,0-.5-.21.69.69,0,0,0-.51.21.72.72,0,0,0-.2.5.69.69,0,0,0,.2.5A.69.69,0,0,0,188.08,13.94Z"/><path class="cls-5" d="M188.08,22.45a.7.7,0,0,0,.5-.2.69.69,0,0,0,.21-.51.67.67,0,0,0-.21-.49.65.65,0,0,0-.5-.22.67.67,0,0,0-.51.22.7.7,0,0,0-.2.49.68.68,0,0,0,.71.71Z"/><path class="cls-13" d="M179.56,5.43a.69.69,0,0,0,.51-.21.7.7,0,0,0,.2-.5.72.72,0,0,0-.2-.5.69.69,0,0,0-.51-.21.67.67,0,0,0-.5.21.69.69,0,0,0-.21.5.72.72,0,0,0,.71.71Z"/><path class="cls-10" d="M188.08,16.78a.72.72,0,0,0,.71-.71.69.69,0,0,0-.21-.5.67.67,0,0,0-.5-.21.69.69,0,0,0-.51.21.72.72,0,0,0-.2.5.7.7,0,0,0,.2.5A.69.69,0,0,0,188.08,16.78Z"/><path class="cls-6" d="M188.08,19.61a.66.66,0,0,0,.5-.2.69.69,0,0,0,.21-.51.68.68,0,0,0-.21-.49.67.67,0,0,0-.5-.21.69.69,0,0,0-.51.21.71.71,0,0,0-.2.49.73.73,0,0,0,.2.51A.69.69,0,0,0,188.08,19.61Z"/><path class="cls-6" d="M174.39,18.41a.67.67,0,0,0-.5-.21.69.69,0,0,0-.51.21.71.71,0,0,0-.2.49.73.73,0,0,0,.2.51.69.69,0,0,0,.51.2.66.66,0,0,0,.5-.2.69.69,0,0,0,.21-.51A.68.68,0,0,0,174.39,18.41Z"/><path class="cls-16" d="M146,11.31a.7.7,0,0,0-1,0,.7.7,0,0,0-.21.5.71.71,0,0,0,1.42,0A.7.7,0,0,0,146,11.31Z"/><path class="cls-8" d="M144.09,12.52a.67.67,0,0,0-.5.21.69.69,0,0,0-.21.5.66.66,0,0,0,.21.5.67.67,0,0,0,.5.21.69.69,0,0,0,.51-.21.69.69,0,0,0,.2-.5.72.72,0,0,0-.2-.5A.69.69,0,0,0,144.09,12.52Z"/><path class="cls-11" d="M175.31,21a.7.7,0,0,0,.5-.2.69.69,0,0,0,.21-.51.67.67,0,0,0-.21-.49.68.68,0,0,0-.5-.22.7.7,0,0,0-.51.22.7.7,0,0,0-.2.49.68.68,0,0,0,.71.71Z"/><path class="cls-7" d="M143.59,10.9a.7.7,0,0,0,.5.2.68.68,0,0,0,.71-.71.74.74,0,0,0-.2-.5.69.69,0,0,0-.51-.21.67.67,0,0,0-.5.21.7.7,0,0,0-.21.5A.69.69,0,0,0,143.59,10.9Z"/><path class="cls-15" d="M142.67,8.26a.65.65,0,0,0-.5.22A.67.67,0,0,0,142,9a.69.69,0,0,0,.21.51.7.7,0,0,0,.5.2.68.68,0,0,0,.71-.71.7.7,0,0,0-.2-.49A.67.67,0,0,0,142.67,8.26Z"/><path class="cls-9" d="M144.09,8.26a.68.68,0,0,0,.71-.71.7.7,0,0,0-.2-.49.7.7,0,0,0-.51-.22.68.68,0,0,0-.5.22.67.67,0,0,0-.21.49.69.69,0,0,0,.21.51A.7.7,0,0,0,144.09,8.26Z"/><path class="cls-9" d="M154.94,8.06a.7.7,0,0,0,.5.2.68.68,0,0,0,.71-.71.7.7,0,0,0-.2-.49.7.7,0,0,0-.51-.22.68.68,0,0,0-.5.22.67.67,0,0,0-.21.49A.69.69,0,0,0,154.94,8.06Z"/><path class="cls-8" d="M205.1,13.94a.69.69,0,0,0,.51-.21.69.69,0,0,0,.2-.5.72.72,0,0,0-.2-.5.69.69,0,0,0-.51-.21.67.67,0,0,0-.5.21.69.69,0,0,0-.21.5.66.66,0,0,0,.21.5A.67.67,0,0,0,205.1,13.94Z"/><path class="cls-17" d="M175.81,14.15a.67.67,0,0,0-.5-.21.69.69,0,0,0-.51.21.72.72,0,0,0-.2.5.69.69,0,0,0,.2.5.69.69,0,0,0,.51.21.67.67,0,0,0,.5-.21.66.66,0,0,0,.21-.5A.69.69,0,0,0,175.81,14.15Z"/><path class="cls-16" d="M175.81,11.31a.67.67,0,0,0-.5-.21.69.69,0,0,0-.51.21.74.74,0,0,0-.2.5.69.69,0,0,0,.2.5.69.69,0,0,0,.51.21.67.67,0,0,0,.5-.21.66.66,0,0,0,.21-.5A.7.7,0,0,0,175.81,11.31Z"/><path class="cls-14" d="M175.81,17a.67.67,0,0,0-.5-.21.69.69,0,0,0-.51.21.72.72,0,0,0,0,1,.69.69,0,0,0,.51.21.67.67,0,0,0,.5-.21.7.7,0,0,0,0-1Z"/><path class="cls-13" d="M168.21,5.43a.69.69,0,0,0,.51-.21.7.7,0,0,0,.2-.5.72.72,0,0,0-.2-.5.69.69,0,0,0-.51-.21.67.67,0,0,0-.5.21.69.69,0,0,0-.21.5.72.72,0,0,0,.71.71Z"/><path class="cls-13" d="M171.05,5.43a.66.66,0,0,0,.5-.21.67.67,0,0,0,.21-.5.69.69,0,0,0-.21-.51.73.73,0,0,0-1,0,.69.69,0,0,0-.21.51.67.67,0,0,0,.21.5A.66.66,0,0,0,171.05,5.43Z"/><path class="cls-15" d="M175.81,8.48a.65.65,0,0,0-.5-.22.67.67,0,0,0-.51.22.7.7,0,0,0-.2.49.68.68,0,0,0,.71.71.7.7,0,0,0,.5-.2A.69.69,0,0,0,176,9,.67.67,0,0,0,175.81,8.48Z"/><path class="cls-13" d="M173.89,5.43a.72.72,0,0,0,.71-.71.69.69,0,0,0-.21-.51.7.7,0,0,0-.5-.2.68.68,0,0,0-.71.71.7.7,0,0,0,.2.5A.69.69,0,0,0,173.89,5.43Z"/><path class="cls-17" d="M145.51,15.36a.72.72,0,0,0,.71-.71.69.69,0,0,0-.21-.5.7.7,0,0,0-1,0,.69.69,0,0,0-.21.5.72.72,0,0,0,.71.71Z"/><path class="cls-16" d="M189,12.31a.71.71,0,0,0,1,0,.66.66,0,0,0,.21-.5.7.7,0,0,0-.21-.5.71.71,0,0,0-1.21.5A.65.65,0,0,0,189,12.31Z"/><path class="cls-14" d="M189,18a.71.71,0,1,0,0-1,.72.72,0,0,0,0,1Z"/><path class="cls-17" d="M189,15.15a.71.71,0,0,0,1,0,.66.66,0,0,0,.21-.5.71.71,0,0,0-1.22-.5.68.68,0,0,0-.2.5A.65.65,0,0,0,189,15.15Z"/><path class="cls-11" d="M189,20.83a.74.74,0,0,0,1,0,.69.69,0,0,0,.21-.51.67.67,0,0,0-.21-.49.69.69,0,0,0-1,0,.66.66,0,0,0-.2.49A.69.69,0,0,0,189,20.83Z"/><path class="cls-10" d="M191.42,15.57a.71.71,0,0,0-1,0,.68.68,0,0,0-.2.5.66.66,0,0,0,.2.5.71.71,0,0,0,1,0,.66.66,0,0,0,.2-.5A.68.68,0,0,0,191.42,15.57Z"/><path class="cls-5" d="M190.91,22.45a.73.73,0,0,0,.51-.2.69.69,0,0,0,.2-.51.66.66,0,0,0-.2-.49.69.69,0,0,0-1,0,.66.66,0,0,0-.2.49.69.69,0,0,0,.2.51A.72.72,0,0,0,190.91,22.45Z"/><path class="cls-6" d="M191.42,18.41a.71.71,0,0,0-1,0,.67.67,0,0,0-.2.49.69.69,0,0,0,.2.51.68.68,0,0,0,.5.2.68.68,0,0,0,.71-.71A.67.67,0,0,0,191.42,18.41Z"/><path class="cls-8" d="M191.42,12.73a.71.71,0,0,0-1,0,.68.68,0,0,0-.2.5.65.65,0,0,0,.2.5.71.71,0,0,0,1,0,.65.65,0,0,0,.2-.5A.68.68,0,0,0,191.42,12.73Z"/><path class="cls-6" d="M205.1,19.61a.69.69,0,0,0,.51-.2.73.73,0,0,0,.2-.51.71.71,0,0,0-.2-.49.69.69,0,0,0-.51-.21.67.67,0,0,0-.5.21.68.68,0,0,0-.21.49.69.69,0,0,0,.21.51A.66.66,0,0,0,205.1,19.61Z"/><path class="cls-15" d="M189.5,8.26a.67.67,0,0,0-.51.22.66.66,0,0,0-.2.49.69.69,0,0,0,.2.51.74.74,0,0,0,1,0,.69.69,0,0,0,.21-.51.74.74,0,0,0-.71-.71Z"/><path class="cls-12" d="M197.51,6.64a.72.72,0,0,0,1,0,.71.71,0,0,0,0-1,.73.73,0,0,0-1,0,.71.71,0,0,0,0,1Z"/><path class="cls-10" d="M205.1,16.78a.69.69,0,0,0,.51-.21.7.7,0,0,0,.2-.5.72.72,0,0,0-.2-.5.69.69,0,0,0-.51-.21.67.67,0,0,0-.5.21.69.69,0,0,0-.21.5.72.72,0,0,0,.71.71Z"/><path class="cls-13" d="M196.59,5.43a.66.66,0,0,0,.5-.21.67.67,0,0,0,.21-.5.69.69,0,0,0-.21-.51.73.73,0,0,0-1,0,.69.69,0,0,0-.21.51.67.67,0,0,0,.21.5A.66.66,0,0,0,196.59,5.43Z"/><path class="cls-9" d="M190.91,8.26a.73.73,0,0,0,.51-.2.69.69,0,0,0,.2-.51.66.66,0,0,0-.2-.49.69.69,0,0,0-1,0,.66.66,0,0,0-.2.49.69.69,0,0,0,.2.51A.72.72,0,0,0,190.91,8.26Z"/><path class="cls-7" d="M190.41,10.9a.74.74,0,0,0,1,0,.69.69,0,0,0,.2-.51.71.71,0,1,0-1.41,0A.69.69,0,0,0,190.41,10.9Z"/><path class="cls-8" d="M194.26,12.73a.69.69,0,0,0-.51-.21.67.67,0,0,0-.5.21.69.69,0,0,0-.21.5.66.66,0,0,0,.21.5.67.67,0,0,0,.5.21.69.69,0,0,0,.51-.21.69.69,0,0,0,.2-.5A.72.72,0,0,0,194.26,12.73Z"/><path class="cls-17" d="M192.33,15.36a.69.69,0,0,0,.51-.21.69.69,0,0,0,.2-.5.72.72,0,0,0-.2-.5.69.69,0,0,0-.51-.21.67.67,0,0,0-.5.21.69.69,0,0,0-.21.5.66.66,0,0,0,.21.5A.67.67,0,0,0,192.33,15.36Z"/><path class="cls-5" d="M196.59,21a.66.66,0,0,0-.5.21.67.67,0,0,0-.21.5.69.69,0,0,0,.21.51.73.73,0,0,0,1,0,.69.69,0,0,0,.21-.51.67.67,0,0,0-.21-.5A.66.66,0,0,0,196.59,21Z"/><path class="cls-8" d="M197.09,12.73a.7.7,0,0,0-1,0,.69.69,0,0,0-.21.5.71.71,0,0,0,1.42,0A.69.69,0,0,0,197.09,12.73Z"/><path class="cls-9" d="M197.09,7.05a.7.7,0,0,0-1,0,.71.71,0,1,0,1,0Z"/><path class="cls-13" d="M193.75,5.43a.69.69,0,0,0,.51-.21.7.7,0,0,0,.2-.5.68.68,0,0,0-.71-.71.7.7,0,0,0-.5.2.69.69,0,0,0-.21.51.72.72,0,0,0,.71.71Z"/><path class="cls-13" d="M190.91,5.43a.69.69,0,0,0,.51-.21.66.66,0,0,0,.2-.5.69.69,0,0,0-.2-.51.74.74,0,0,0-1,0,.69.69,0,0,0-.2.51.66.66,0,0,0,.2.5A.69.69,0,0,0,190.91,5.43Z"/><path class="cls-12" d="M191.83,6.64a.66.66,0,0,0,.5.2.69.69,0,0,0,.51-.2.74.74,0,0,0,0-1,.69.69,0,0,0-.51-.2.66.66,0,0,0-.5.2.71.71,0,0,0,0,1Z"/><path class="cls-12" d="M194.67,6.64a.72.72,0,0,0,1,0,.71.71,0,0,0,0-1,.73.73,0,0,0-1,0,.71.71,0,0,0,0,1Z"/><path class="cls-5" d="M193.75,21a.72.72,0,0,0-.71.71.69.69,0,0,0,.21.51.7.7,0,0,0,.5.2.68.68,0,0,0,.71-.71.7.7,0,0,0-.2-.5A.69.69,0,0,0,193.75,21Z"/><path class="cls-12" d="M189,6.64a.69.69,0,0,0,.51.2.68.68,0,0,0,.5-.2.69.69,0,0,0,.21-.51.72.72,0,0,0-.71-.7.69.69,0,0,0-.51.21.67.67,0,0,0-.2.49A.69.69,0,0,0,189,6.64Z"/><path class="cls-10" d="M194.26,15.57a.69.69,0,0,0-.51-.21.67.67,0,0,0-.5.21.69.69,0,0,0-.21.5.72.72,0,0,0,.71.71.69.69,0,0,0,.51-.21.7.7,0,0,0,.2-.5A.72.72,0,0,0,194.26,15.57Z"/><path class="cls-9" d="M193.75,8.26a.71.71,0,0,0,.51-1.21.69.69,0,0,0-.51-.21.67.67,0,0,0-.5.21.71.71,0,0,0,0,1A.7.7,0,0,0,193.75,8.26Z"/><path class="cls-17" d="M195.17,15.36a.72.72,0,0,0,.71-.71.69.69,0,0,0-.21-.5.7.7,0,0,0-1,0,.69.69,0,0,0-.21.5.72.72,0,0,0,.71.71Z"/><path class="cls-10" d="M197.09,15.57a.7.7,0,0,0-1,0,.69.69,0,0,0-.21.5.67.67,0,0,0,.21.5.7.7,0,0,0,1,0,.67.67,0,0,0,.21-.5A.69.69,0,0,0,197.09,15.57Z"/><path class="cls-16" d="M53.28,11.1a.67.67,0,0,0-.5.21.7.7,0,0,0,0,1,.67.67,0,0,0,.5.21.69.69,0,0,0,.51-.21.72.72,0,0,0,0-1A.69.69,0,0,0,53.28,11.1Z"/><path class="cls-10" d="M131.32,15.36a.67.67,0,0,0-.5.21.69.69,0,0,0-.21.5.72.72,0,0,0,.71.71.69.69,0,0,0,.51-.21.7.7,0,0,0,.2-.5.72.72,0,0,0-.2-.5A.69.69,0,0,0,131.32,15.36Z"/><path class="cls-6" d="M131.32,18.2a.67.67,0,0,0-.5.21.68.68,0,0,0-.21.49.69.69,0,0,0,.21.51.66.66,0,0,0,.5.2.69.69,0,0,0,.51-.2.73.73,0,0,0,.2-.51.71.71,0,0,0-.2-.49A.69.69,0,0,0,131.32,18.2Z"/><path class="cls-18" d="M143.18,22.66a.69.69,0,0,0-.51-.21.67.67,0,0,0-.5.21.7.7,0,0,0-.21.5.69.69,0,0,0,.21.51.7.7,0,0,0,.5.2.68.68,0,0,0,.71-.71A.74.74,0,0,0,143.18,22.66Z"/><path class="cls-5" d="M131.32,21a.65.65,0,0,0-.5.22.67.67,0,0,0-.21.49.69.69,0,0,0,.21.51.7.7,0,0,0,.5.2.68.68,0,0,0,.71-.71.7.7,0,0,0-.2-.49A.67.67,0,0,0,131.32,21Z"/><path class="cls-5" d="M141.76,21.25a.72.72,0,0,0-1.22.49.69.69,0,0,0,.21.51.71.71,0,0,0,1.21-.51A.7.7,0,0,0,141.76,21.25Z"/><path class="cls-7" d="M131.32,9.68a.67.67,0,0,0-.5.21.7.7,0,0,0-.21.5.69.69,0,0,0,.21.51.7.7,0,0,0,.5.2.68.68,0,0,0,.71-.71.74.74,0,0,0-.2-.5A.69.69,0,0,0,131.32,9.68Z"/><path class="cls-9" d="M131.32,6.84a.68.68,0,0,0-.5.22.67.67,0,0,0-.21.49.69.69,0,0,0,.21.51.7.7,0,0,0,.5.2.68.68,0,0,0,.71-.71.7.7,0,0,0-.2-.49A.7.7,0,0,0,131.32,6.84Z"/><path class="cls-8" d="M131.32,12.52a.67.67,0,0,0-.5.21.69.69,0,0,0-.21.5.66.66,0,0,0,.21.5.67.67,0,0,0,.5.21.69.69,0,0,0,.51-.21.69.69,0,0,0,.2-.5.72.72,0,0,0-.2-.5A.69.69,0,0,0,131.32,12.52Z"/><path class="cls-10" d="M125.65,15.36a.68.68,0,0,0-.71.71.7.7,0,0,0,.2.5.71.71,0,0,0,1,0,.67.67,0,0,0,.21-.5.69.69,0,0,0-.21-.51A.72.72,0,0,0,125.65,15.36Z"/><path class="cls-17" d="M124.73,14.14a.7.7,0,0,0-.5-.2.68.68,0,0,0-.71.71.69.69,0,0,0,.2.5.69.69,0,0,0,.51.21.67.67,0,0,0,.5-.21.66.66,0,0,0,.21-.5A.69.69,0,0,0,124.73,14.14Z"/><path class="cls-10" d="M122.81,15.36a.68.68,0,0,0-.71.71.7.7,0,0,0,.2.5.69.69,0,0,0,.51.21.66.66,0,0,0,.5-.21.67.67,0,0,0,.21-.5.69.69,0,0,0-.21-.51A.69.69,0,0,0,122.81,15.36Z"/><path class="cls-12" d="M170.14,5.64a.69.69,0,0,0-.51-.21.66.66,0,0,0-.5.21.68.68,0,0,0-.21.49.69.69,0,0,0,.21.51.65.65,0,0,0,.5.2.69.69,0,0,0,.51-.2.73.73,0,0,0,.2-.51A.71.71,0,0,0,170.14,5.64Z"/><path class="cls-18" d="M130.41,22.66a.69.69,0,0,0-.51-.21.67.67,0,0,0-.5.21.7.7,0,0,0-.21.5.69.69,0,0,0,.21.51.7.7,0,0,0,.5.2.68.68,0,0,0,.71-.71A.74.74,0,0,0,130.41,22.66Z"/><path class="cls-17" d="M127.57,14.14a.74.74,0,0,0-1,0,.69.69,0,0,0-.2.51.65.65,0,0,0,.2.5.71.71,0,0,0,1,0,.65.65,0,0,0,.2-.5A.69.69,0,0,0,127.57,14.14Z"/><path class="cls-19" d="M131.32,23.87a.67.67,0,0,0-.5.21.7.7,0,0,0-.21.5.66.66,0,0,0,.21.5.67.67,0,0,0,.5.21.69.69,0,0,0,.51-.21.69.69,0,0,0,.2-.5.74.74,0,0,0-.2-.5A.69.69,0,0,0,131.32,23.87Z"/><path class="cls-17" d="M121.89,14.14a.73.73,0,0,0-1,0,.69.69,0,0,0-.21.51.71.71,0,0,0,1.42,0A.69.69,0,0,0,121.89,14.14Z"/><path class="cls-17" d="M157.37,14.14a.73.73,0,0,0-.51-.2.7.7,0,0,0-.5.2.69.69,0,0,0-.21.51.66.66,0,0,0,.21.5.67.67,0,0,0,.5.21.69.69,0,0,0,.51-.21.69.69,0,0,0,.2-.5A.73.73,0,0,0,157.37,14.14Z"/><path class="cls-10" d="M155.44,15.36a.7.7,0,0,0-.5.2.69.69,0,0,0-.21.51.72.72,0,0,0,.71.71.69.69,0,0,0,.51-.21.7.7,0,0,0,.2-.5.68.68,0,0,0-.71-.71Z"/><path class="cls-5" d="M155.44,21a.65.65,0,0,0-.5.22.67.67,0,0,0-.21.49.69.69,0,0,0,.21.51.7.7,0,0,0,.5.2.68.68,0,0,0,.71-.71.7.7,0,0,0-.2-.49A.67.67,0,0,0,155.44,21Z"/><path class="cls-6" d="M155.44,18.2a.67.67,0,0,0-.5.21.68.68,0,0,0-.21.49.69.69,0,0,0,.21.51.66.66,0,0,0,.5.2.69.69,0,0,0,.51-.2.73.73,0,0,0,.2-.51.71.71,0,0,0-.2-.49A.69.69,0,0,0,155.44,18.2Z"/><path class="cls-9" d="M168.21,6.84a.68.68,0,0,0-.5.22.67.67,0,0,0-.21.49.69.69,0,0,0,.21.51.7.7,0,0,0,.5.2.68.68,0,0,0,.71-.71.7.7,0,0,0-.2-.49A.7.7,0,0,0,168.21,6.84Z"/><path class="cls-10" d="M158.28,15.36a.69.69,0,0,0-.5.2.69.69,0,0,0-.21.51.67.67,0,0,0,.21.5.7.7,0,0,0,1,0,.67.67,0,0,0,.21-.5.69.69,0,0,0-.21-.51A.69.69,0,0,0,158.28,15.36Z"/><path class="cls-8" d="M158.28,12.52a.72.72,0,1,0,.5.21A.66.66,0,0,0,158.28,12.52Z"/><path class="cls-19" d="M144.09,23.87a.67.67,0,0,0-.5.21.7.7,0,0,0-.21.5.66.66,0,0,0,.21.5.67.67,0,0,0,.5.21.69.69,0,0,0,.51-.21.69.69,0,0,0,.2-.5.74.74,0,0,0-.2-.5A.69.69,0,0,0,144.09,23.87Z"/><path class="cls-19" d="M146.93,23.87a.72.72,0,0,0-.71.71.7.7,0,0,0,.21.5.7.7,0,0,0,1,0,.7.7,0,0,0,.21-.5.72.72,0,0,0-.71-.71Z"/><path class="cls-18" d="M148.85,22.66a.7.7,0,0,0-1,0,.67.67,0,0,0-.21.5.69.69,0,0,0,.21.51.73.73,0,0,0,1,0,.69.69,0,0,0,.21-.51A.67.67,0,0,0,148.85,22.66Z"/><path class="cls-18" d="M146,22.66a.7.7,0,0,0-1,0,.67.67,0,0,0-.21.5.69.69,0,0,0,.21.51.73.73,0,0,0,1,0,.69.69,0,0,0,.21-.51A.67.67,0,0,0,146,22.66Z"/><path class="cls-18" d="M154,22.45a.69.69,0,0,0-.5.21.7.7,0,0,0-.21.5.69.69,0,0,0,.21.51.71.71,0,0,0,1.21-.51.74.74,0,0,0-.2-.5A.69.69,0,0,0,154,22.45Z"/><path class="cls-19" d="M152.61,23.87a.7.7,0,0,0-.71.71.65.65,0,0,0,.2.5.71.71,0,0,0,1,0,.65.65,0,0,0,.2-.5.7.7,0,0,0-.7-.71Z"/><path class="cls-19" d="M149.77,23.87a.69.69,0,0,0-.51.21.73.73,0,0,0,0,1,.69.69,0,0,0,.51.21.67.67,0,0,0,.5-.21.7.7,0,0,0,0-1A.67.67,0,0,0,149.77,23.87Z"/><path class="cls-18" d="M151.69,22.66a.67.67,0,0,0-.5-.21.69.69,0,0,0-.51.21.7.7,0,0,0-.2.5.68.68,0,0,0,.71.71.7.7,0,0,0,.5-.2.69.69,0,0,0,.21-.51A.67.67,0,0,0,151.69,22.66Z"/><path class="cls-19" d="M128.48,23.87a.69.69,0,0,0-.5.21.7.7,0,0,0-.21.5.66.66,0,0,0,.21.5.71.71,0,0,0,1.21-.5.74.74,0,0,0-.2-.5A.69.69,0,0,0,128.48,23.87Z"/><path class="cls-10" d="M97.27,15.36a.66.66,0,0,0-.5.21.69.69,0,0,0-.21.5.67.67,0,0,0,.21.5.7.7,0,0,0,1,0,.67.67,0,0,0,.21-.5.69.69,0,0,0-.21-.5A.66.66,0,0,0,97.27,15.36Z"/><path class="cls-6" d="M97.27,18.2a.66.66,0,0,0-.5.21.68.68,0,0,0-.21.49.69.69,0,0,0,.21.51.73.73,0,0,0,1,0A.69.69,0,0,0,98,18.9a.68.68,0,0,0-.21-.49A.66.66,0,0,0,97.27,18.2Z"/><path class="cls-5" d="M97.27,21a.63.63,0,0,0-.5.22.67.67,0,0,0-.21.49.69.69,0,0,0,.21.51.73.73,0,0,0,1,0,.69.69,0,0,0,.21-.51.67.67,0,0,0-.21-.49A.63.63,0,0,0,97.27,21Z"/><path class="cls-19" d="M102.94,23.87a.69.69,0,0,0-.5.21.7.7,0,0,0,0,1,.71.71,0,1,0,.5-1.21Z"/><path class="cls-18" d="M95.85,22.45a.66.66,0,0,0-.5.21.7.7,0,0,0-.21.5.69.69,0,0,0,.21.51.73.73,0,0,0,1,0,.69.69,0,0,0,.21-.51.7.7,0,0,0-.21-.5A.66.66,0,0,0,95.85,22.45Z"/><path class="cls-9" d="M97.27,6.84a.74.74,0,0,0-.71.71.69.69,0,0,0,.21.51.73.73,0,0,0,1,0A.69.69,0,0,0,98,7.55a.74.74,0,0,0-.71-.71Z"/><path class="cls-7" d="M97.27,9.68a.66.66,0,0,0-.5.21.7.7,0,0,0-.21.5.69.69,0,0,0,.21.51.73.73,0,0,0,1,0,.69.69,0,0,0,.21-.51.7.7,0,0,0-.21-.5A.66.66,0,0,0,97.27,9.68Z"/><path class="cls-8" d="M97.27,12.52a.66.66,0,0,0-.5.21.69.69,0,0,0-.21.5.71.71,0,0,0,1.42,0,.69.69,0,0,0-.21-.5A.66.66,0,0,0,97.27,12.52Z"/><path class="cls-18" d="M87.84,22.66a.67.67,0,0,0-.5-.21.69.69,0,0,0-.51.21.7.7,0,0,0-.2.5.68.68,0,0,0,.71.71.7.7,0,0,0,.5-.2.69.69,0,0,0,.21-.51A.67.67,0,0,0,87.84,22.66Z"/><path class="cls-19" d="M88.76,23.87a.69.69,0,0,0-.51.21.72.72,0,0,0,0,1,.71.71,0,0,0,1,0,.7.7,0,0,0,0-1A.69.69,0,0,0,88.76,23.87Z"/><path class="cls-19" d="M94.43,23.87a.66.66,0,0,0-.5.21.7.7,0,0,0-.21.5.72.72,0,0,0,.71.71.69.69,0,0,0,.51-.21.69.69,0,0,0,.2-.5.74.74,0,0,0-.2-.5A.69.69,0,0,0,94.43,23.87Z"/><path class="cls-19" d="M85.92,23.87a.69.69,0,0,0-.51.21.74.74,0,0,0-.2.5.69.69,0,0,0,.2.5.69.69,0,0,0,.51.21.67.67,0,0,0,.5-.21.66.66,0,0,0,.21-.5.7.7,0,0,0-.21-.5A.67.67,0,0,0,85.92,23.87Z"/><path class="cls-18" d="M90.68,22.66a.71.71,0,0,0-1,0,.66.66,0,0,0-.2.5.69.69,0,0,0,.2.51.74.74,0,0,0,1,0,.69.69,0,0,0,.2-.51A.66.66,0,0,0,90.68,22.66Z"/><path class="cls-18" d="M93.52,22.66a.69.69,0,0,0-.51-.21.72.72,0,0,0-.71.71.69.69,0,0,0,.21.51.7.7,0,0,0,.5.2.68.68,0,0,0,.71-.71A.7.7,0,0,0,93.52,22.66Z"/><path class="cls-19" d="M91.59,23.87a.69.69,0,0,0-.5.21.7.7,0,0,0,0,1,.71.71,0,1,0,.5-1.21Z"/><path class="cls-19" d="M105.78,23.87a.66.66,0,0,0-.5.21.7.7,0,0,0-.21.5.72.72,0,0,0,.71.71.69.69,0,0,0,.51-.21.69.69,0,0,0,.2-.5.74.74,0,0,0-.2-.5A.69.69,0,0,0,105.78,23.87Z"/><path class="cls-19" d="M117.13,23.87a.67.67,0,0,0-.5.21.7.7,0,0,0-.21.5.66.66,0,0,0,.21.5.67.67,0,0,0,.5.21.69.69,0,0,0,.51-.21.69.69,0,0,0,.2-.5.74.74,0,0,0-.2-.5A.69.69,0,0,0,117.13,23.87Z"/><path class="cls-18" d="M119.06,22.66a.69.69,0,0,0-.51-.21.67.67,0,0,0-.5.21.7.7,0,0,0-.21.5.69.69,0,0,0,.21.51.7.7,0,0,0,.5.2.68.68,0,0,0,.71-.71A.74.74,0,0,0,119.06,22.66Z"/><path class="cls-13" d="M111.46,4a.69.69,0,0,0-.51.21.72.72,0,0,0-.2.5.7.7,0,0,0,.2.5.69.69,0,0,0,.51.21.72.72,0,0,0,.71-.71.69.69,0,0,0-.21-.5A.67.67,0,0,0,111.46,4Z"/><path class="cls-18" d="M104.87,22.66a.69.69,0,0,0-.51-.21.72.72,0,0,0-.71.71.69.69,0,0,0,.21.51.7.7,0,0,0,.5.2.68.68,0,0,0,.71-.71A.7.7,0,0,0,104.87,22.66Z"/><path class="cls-6" d="M120,18.2a.66.66,0,0,0-.5.21.68.68,0,0,0-.21.49.69.69,0,0,0,.21.51.73.73,0,0,0,1,0,.69.69,0,0,0,.21-.51.68.68,0,0,0-.21-.49A.66.66,0,0,0,120,18.2Z"/><path class="cls-9" d="M111.46,6.84a.7.7,0,0,0-.51.22.7.7,0,0,0-.2.49.68.68,0,0,0,.71.71.7.7,0,0,0,.5-.2.69.69,0,0,0,.21-.51.67.67,0,0,0-.21-.49A.68.68,0,0,0,111.46,6.84Z"/><path class="cls-5" d="M120,21a.63.63,0,0,0-.5.22.67.67,0,0,0-.21.49.69.69,0,0,0,.21.51.73.73,0,0,0,1,0,.69.69,0,0,0,.21-.51.67.67,0,0,0-.21-.49A.63.63,0,0,0,120,21Z"/><path class="cls-19" d="M120,23.87a.66.66,0,0,0-.5.21.7.7,0,0,0-.21.5.71.71,0,0,0,1.42,0,.7.7,0,0,0-.21-.5A.66.66,0,0,0,120,23.87Z"/><path class="cls-18" d="M107.7,22.66a.7.7,0,0,0-1,0,.7.7,0,0,0-.21.5.69.69,0,0,0,.21.51.73.73,0,0,0,1,0,.69.69,0,0,0,.21-.51A.7.7,0,0,0,107.7,22.66Z"/><path class="cls-5" d="M111.46,21a.69.69,0,0,0-.51.21.7.7,0,0,0-.2.5.68.68,0,0,0,.71.71.7.7,0,0,0,.5-.2.69.69,0,0,0,.21-.51.72.72,0,0,0-.71-.71Z"/><path class="cls-19" d="M108.62,23.87a.66.66,0,0,0-.5.21.7.7,0,0,0-.21.5.71.71,0,0,0,1.42,0,.7.7,0,0,0-.21-.5A.66.66,0,0,0,108.62,23.87Z"/><path class="cls-10" d="M120,15.36a.66.66,0,0,0-.5.21.69.69,0,0,0-.21.5.67.67,0,0,0,.21.5.7.7,0,0,0,1,0,.67.67,0,0,0,.21-.5.69.69,0,0,0-.21-.5A.66.66,0,0,0,120,15.36Z"/><path class="cls-18" d="M110.54,22.66a.66.66,0,0,0-.5-.21.69.69,0,0,0-.51.21.7.7,0,0,0-.2.5.68.68,0,0,0,.71.71.69.69,0,0,0,.5-.2.69.69,0,0,0,.21-.51A.67.67,0,0,0,110.54,22.66Z"/><path class="cls-19" d="M111.46,23.87a.69.69,0,0,0-.51.21.72.72,0,0,0,0,1,.69.69,0,0,0,.51.21.67.67,0,0,0,.5-.21.7.7,0,0,0,0-1A.67.67,0,0,0,111.46,23.87Z"/><path class="cls-9" d="M171.05,6.84a.74.74,0,0,0-.71.71.69.69,0,0,0,.21.51.73.73,0,0,0,1,0,.69.69,0,0,0,.21-.51.74.74,0,0,0-.71-.71Z"/><path class="cls-19" d="M227.8,23.87a.7.7,0,0,0-.7.71.65.65,0,0,0,.2.5.71.71,0,0,0,1,0,.65.65,0,0,0,.2-.5.7.7,0,0,0-.71-.71Z"/><path class="cls-18" d="M226.89,22.66a.71.71,0,0,0-1,0,.74.74,0,0,0-.2.5.71.71,0,0,0,1.21.51.69.69,0,0,0,.21-.51A.7.7,0,0,0,226.89,22.66Z"/><path class="cls-9" d="M219.29,6.84a.68.68,0,0,0-.5.22.67.67,0,0,0-.21.49.69.69,0,0,0,.21.51.7.7,0,0,0,.5.2.68.68,0,0,0,.71-.71.7.7,0,0,0-.2-.49A.7.7,0,0,0,219.29,6.84Z"/><path class="cls-19" d="M225,23.87a.69.69,0,0,0-.51.21.74.74,0,0,0-.2.5.69.69,0,0,0,.2.5.69.69,0,0,0,.51.21.67.67,0,0,0,.5-.21.66.66,0,0,0,.21-.5.7.7,0,0,0-.21-.5A.67.67,0,0,0,225,23.87Z"/><path class="cls-10" d="M227.8,15.36a.69.69,0,0,0-.5.21.68.68,0,0,0-.2.5.66.66,0,0,0,.2.5.71.71,0,0,0,1,0,.66.66,0,0,0,.2-.5.68.68,0,0,0-.2-.5A.69.69,0,0,0,227.8,15.36Z"/><path class="cls-6" d="M227.8,18.2a.69.69,0,0,0-.5.21.67.67,0,0,0-.2.49.69.69,0,0,0,.2.51.68.68,0,0,0,.5.2.68.68,0,0,0,.71-.71.67.67,0,0,0-.2-.49A.69.69,0,0,0,227.8,18.2Z"/><path class="cls-5" d="M227.8,21a.72.72,0,0,0-.7.71.69.69,0,0,0,.2.51.74.74,0,0,0,1,0,.69.69,0,0,0,.2-.51.66.66,0,0,0-.2-.49A.67.67,0,0,0,227.8,21Z"/><path class="cls-18" d="M217.87,22.45a.67.67,0,0,0-.5.21.7.7,0,0,0-.21.5.69.69,0,0,0,.21.51.7.7,0,0,0,.5.2.68.68,0,0,0,.71-.71.74.74,0,0,0-.2-.5A.69.69,0,0,0,217.87,22.45Z"/><path class="cls-19" d="M213.62,23.87a.69.69,0,0,0-.51.21.74.74,0,0,0-.2.5.69.69,0,0,0,.2.5.69.69,0,0,0,.51.21.67.67,0,0,0,.5-.21.66.66,0,0,0,.21-.5.7.7,0,0,0-.21-.5A.67.67,0,0,0,213.62,23.87Z"/><path class="cls-18" d="M212.7,22.66a.67.67,0,0,0-.5-.21.69.69,0,0,0-.51.21.74.74,0,0,0-.2.5.68.68,0,0,0,.71.71.7.7,0,0,0,.5-.2.69.69,0,0,0,.21-.51A.7.7,0,0,0,212.7,22.66Z"/><path class="cls-19" d="M210.78,23.87a.66.66,0,0,0-.5.21.7.7,0,0,0-.21.5.71.71,0,0,0,1.42,0,.7.7,0,0,0-.21-.5A.66.66,0,0,0,210.78,23.87Z"/><path class="cls-17" d="M229.73,14.15a.72.72,0,0,0-1.22.5.66.66,0,0,0,.21.5.71.71,0,0,0,1.21-.5A.72.72,0,0,0,229.73,14.15Z"/><path class="cls-18" d="M215.54,22.66a.71.71,0,0,0-1,1,.74.74,0,0,0,1,0,.69.69,0,0,0,.2-.51A.69.69,0,0,0,215.54,22.66Z"/><path class="cls-5" d="M219.29,21a.65.65,0,0,0-.5.22.67.67,0,0,0-.21.49.69.69,0,0,0,.21.51.7.7,0,0,0,.5.2.68.68,0,0,0,.71-.71.7.7,0,0,0-.2-.49A.67.67,0,0,0,219.29,21Z"/><path class="cls-19" d="M216.45,23.87a.69.69,0,0,0-.5.21.7.7,0,0,0-.21.5.66.66,0,0,0,.21.5.71.71,0,0,0,1,0,.65.65,0,0,0,.2-.5.7.7,0,0,0-.71-.71Z"/><path class="cls-7" d="M239.16,9.68a.69.69,0,0,0-.51.21.74.74,0,0,0-.2.5.71.71,0,0,0,1.21.51.69.69,0,0,0,.21-.51.7.7,0,0,0-.21-.5A.69.69,0,0,0,239.16,9.68Z"/><path class="cls-10" d="M239.16,15.36a.69.69,0,0,0-.51.21.72.72,0,0,0-.2.5.7.7,0,0,0,.2.5.71.71,0,0,0,1,0,.67.67,0,0,0,.21-.5.72.72,0,0,0-.71-.71Z"/><path class="cls-8" d="M239.16,12.52a.69.69,0,0,0-.51.21.72.72,0,0,0-.2.5.69.69,0,0,0,.2.5.71.71,0,0,0,1,0,.66.66,0,0,0,.21-.5.72.72,0,0,0-.71-.71Z"/><path class="cls-6" d="M239.16,18.2a.69.69,0,0,0-.51.21.71.71,0,0,0-.2.49.73.73,0,0,0,.2.51.69.69,0,0,0,.51.2.68.68,0,0,0,.5-.2.69.69,0,0,0,.21-.51.72.72,0,0,0-.71-.7Z"/><path class="cls-9" d="M239.16,6.84a.7.7,0,0,0-.51.22.7.7,0,0,0-.2.49.71.71,0,0,0,1.21.51.69.69,0,0,0,.21-.51.67.67,0,0,0-.21-.49A.7.7,0,0,0,239.16,6.84Z"/><path class="cls-13" d="M239.16,4a.68.68,0,0,0-.71.71.7.7,0,0,0,.2.5.71.71,0,0,0,1,0,.67.67,0,0,0,.21-.5.69.69,0,0,0-.21-.51A.72.72,0,0,0,239.16,4Z"/><path class="cls-18" d="M209.86,22.66a.7.7,0,0,0-1,0,.7.7,0,0,0-.21.5.69.69,0,0,0,.21.51.73.73,0,0,0,1,0,.69.69,0,0,0,.21-.51A.7.7,0,0,0,209.86,22.66Z"/><path class="cls-5" d="M239.16,21a.67.67,0,0,0-.51.22.7.7,0,0,0-.2.49.71.71,0,0,0,1.21.51.69.69,0,0,0,.21-.51.74.74,0,0,0-.71-.71Z"/><path class="cls-10" d="M233.48,15.36a.66.66,0,0,0-.5.21.69.69,0,0,0-.21.5.67.67,0,0,0,.21.5.7.7,0,0,0,1,0,.67.67,0,0,0,.21-.5.69.69,0,0,0-.21-.5A.66.66,0,0,0,233.48,15.36Z"/><path class="cls-17" d="M235.4,14.15a.7.7,0,0,0-1,0,.69.69,0,0,0-.21.5.71.71,0,0,0,1.42,0A.69.69,0,0,0,235.4,14.15Z"/><path class="cls-19" d="M239.16,23.87a.69.69,0,0,0-.51.21.74.74,0,0,0-.2.5.69.69,0,0,0,.2.5.71.71,0,0,0,1,0,.66.66,0,0,0,.21-.5.7.7,0,0,0-.21-.5A.69.69,0,0,0,239.16,23.87Z"/><path class="cls-17" d="M232.57,14.15a.69.69,0,0,0-.51-.21.67.67,0,0,0-.5.21.69.69,0,0,0-.21.5.66.66,0,0,0,.21.5.67.67,0,0,0,.5.21.69.69,0,0,0,.51-.21.69.69,0,0,0,.2-.5A.72.72,0,0,0,232.57,14.15Z"/><path class="cls-10" d="M230.64,15.36a.67.67,0,0,0-.5.21.69.69,0,0,0-.21.5.72.72,0,0,0,.71.71.69.69,0,0,0,.51-.21.7.7,0,0,0,.2-.5.72.72,0,0,0-.2-.5A.69.69,0,0,0,230.64,15.36Z"/><path class="cls-19" d="M236.32,23.87a.69.69,0,0,0-.51.21.74.74,0,0,0-.2.5.69.69,0,0,0,.2.5.69.69,0,0,0,.51.21.67.67,0,0,0,.5-.21.66.66,0,0,0,.21-.5.7.7,0,0,0-.21-.5A.67.67,0,0,0,236.32,23.87Z"/><path class="cls-18" d="M238.24,22.66a.67.67,0,0,0-.5-.21.69.69,0,0,0-.51.21.74.74,0,0,0-.2.5.68.68,0,0,0,.71.71.7.7,0,0,0,.5-.2.69.69,0,0,0,.21-.51A.7.7,0,0,0,238.24,22.66Z"/><path class="cls-18" d="M192.84,22.66a.69.69,0,0,0-.51-.21.72.72,0,0,0-.71.71.69.69,0,0,0,.21.51.7.7,0,0,0,.5.2.68.68,0,0,0,.71-.71A.7.7,0,0,0,192.84,22.66Z"/><path class="cls-9" d="M176.73,6.84a.7.7,0,0,0-.51.22.7.7,0,0,0-.2.49.71.71,0,0,0,1.21.51.69.69,0,0,0,.21-.51.67.67,0,0,0-.21-.49A.7.7,0,0,0,176.73,6.84Z"/><path class="cls-8" d="M176.73,12.52a.69.69,0,0,0-.51.21.72.72,0,0,0-.2.5.69.69,0,0,0,.2.5.71.71,0,0,0,1,0,.66.66,0,0,0,.21-.5.72.72,0,0,0-.71-.71Z"/><path class="cls-7" d="M176.73,9.68a.69.69,0,0,0-.51.21.74.74,0,0,0-.2.5.71.71,0,0,0,1.21.51.69.69,0,0,0,.21-.51.7.7,0,0,0-.21-.5A.69.69,0,0,0,176.73,9.68Z"/><path class="cls-12" d="M178.65,5.64a.71.71,0,0,0-1,0,.67.67,0,0,0-.2.49.69.69,0,0,0,.2.51.68.68,0,0,0,.5.2.68.68,0,0,0,.71-.71A.67.67,0,0,0,178.65,5.64Z"/><path class="cls-9" d="M182.4,6.84a.74.74,0,0,0-.71.71.69.69,0,0,0,.21.51.69.69,0,0,0,.5.2.68.68,0,0,0,.71-.71.7.7,0,0,0-.2-.49A.7.7,0,0,0,182.4,6.84Z"/><path class="cls-12" d="M181.49,5.64a.69.69,0,0,0-.51-.21.67.67,0,0,0-.5.21.68.68,0,0,0-.21.49.69.69,0,0,0,.21.51.66.66,0,0,0,.5.2.69.69,0,0,0,.51-.2.73.73,0,0,0,.2-.51A.71.71,0,0,0,181.49,5.64Z"/><path class="cls-9" d="M179.56,6.84a.68.68,0,0,0-.5.22.67.67,0,0,0-.21.49.69.69,0,0,0,.21.51.7.7,0,0,0,.5.2.68.68,0,0,0,.71-.71.7.7,0,0,0-.2-.49A.7.7,0,0,0,179.56,6.84Z"/><path class="cls-5" d="M176.73,21a.67.67,0,0,0-.51.22.7.7,0,0,0-.2.49.71.71,0,0,0,1.21.51.69.69,0,0,0,.21-.51.74.74,0,0,0-.71-.71Z"/><path class="cls-18" d="M175.81,22.66a.67.67,0,0,0-.5-.21.69.69,0,0,0-.51.21.74.74,0,0,0-.2.5.68.68,0,0,0,.71.71.7.7,0,0,0,.5-.2.69.69,0,0,0,.21-.51A.7.7,0,0,0,175.81,22.66Z"/><path class="cls-19" d="M173.89,23.87a.69.69,0,0,0-.51.21.74.74,0,0,0-.2.5.69.69,0,0,0,.2.5.69.69,0,0,0,.51.21.67.67,0,0,0,.5-.21.66.66,0,0,0,.21-.5.7.7,0,0,0-.21-.5A.67.67,0,0,0,173.89,23.87Z"/><path class="cls-10" d="M176.73,15.36a.69.69,0,0,0-.51.21.72.72,0,0,0-.2.5.7.7,0,0,0,.2.5.71.71,0,0,0,1,0,.67.67,0,0,0,.21-.5.72.72,0,0,0-.71-.71Z"/><path class="cls-12" d="M173,5.64a.7.7,0,0,0-1,0,.68.68,0,0,0-.21.49.69.69,0,0,0,.21.51.72.72,0,0,0,1,0,.69.69,0,0,0,.21-.51A.68.68,0,0,0,173,5.64Z"/><path class="cls-6" d="M176.73,18.2a.69.69,0,0,0-.51.21.71.71,0,0,0-.2.49.73.73,0,0,0,.2.51.69.69,0,0,0,.51.2.68.68,0,0,0,.5-.2.69.69,0,0,0,.21-.51.72.72,0,0,0-.71-.7Z"/><path class="cls-19" d="M207.94,23.87a.66.66,0,0,0-.5.21.7.7,0,0,0-.21.5.71.71,0,0,0,1.42,0,.7.7,0,0,0-.21-.5A.66.66,0,0,0,207.94,23.87Z"/><path class="cls-13" d="M182.4,4a.69.69,0,0,0-.5.2.69.69,0,0,0-.21.51.67.67,0,0,0,.21.5.66.66,0,0,0,.5.21.69.69,0,0,0,.51-.21.7.7,0,0,0,.2-.5A.68.68,0,0,0,182.4,4Z"/><path class="cls-19" d="M176.73,23.87a.69.69,0,0,0-.51.21.74.74,0,0,0-.2.5.69.69,0,0,0,.2.5.71.71,0,0,0,1,0,.66.66,0,0,0,.21-.5.7.7,0,0,0-.21-.5A.69.69,0,0,0,176.73,23.87Z"/><path class="cls-9" d="M199.43,6.84a.69.69,0,0,0-.51.21.71.71,0,0,0,.51,1.21.7.7,0,0,0,.5-.2.71.71,0,0,0,0-1A.67.67,0,0,0,199.43,6.84Z"/><path class="cls-18" d="M198.51,22.66a.7.7,0,0,0-1,0,.67.67,0,0,0-.21.5.69.69,0,0,0,.21.51.73.73,0,0,0,1,0,.69.69,0,0,0,.21-.51A.67.67,0,0,0,198.51,22.66Z"/><path class="cls-19" d="M199.43,23.87a.69.69,0,0,0-.51.21.73.73,0,0,0,0,1,.69.69,0,0,0,.51.21.67.67,0,0,0,.5-.21.7.7,0,0,0,0-1A.67.67,0,0,0,199.43,23.87Z"/><path class="cls-5" d="M199.43,21a.69.69,0,0,0-.51.21.7.7,0,0,0-.2.5.68.68,0,0,0,.71.71.7.7,0,0,0,.5-.2.69.69,0,0,0,.21-.51.72.72,0,0,0-.71-.71Z"/><path class="cls-18" d="M207,22.66a.69.69,0,0,0-.51-.21.67.67,0,0,0-.5.21.7.7,0,0,0-.21.5.69.69,0,0,0,.21.51.7.7,0,0,0,.5.2.68.68,0,0,0,.71-.71A.74.74,0,0,0,207,22.66Z"/><path class="cls-5" d="M205.61,21.25a.67.67,0,0,0-.51-.22.65.65,0,0,0-.5.22.67.67,0,0,0-.21.49.69.69,0,0,0,.21.51.7.7,0,0,0,.5.2.68.68,0,0,0,.71-.71A.7.7,0,0,0,205.61,21.25Z"/><path class="cls-13" d="M199.43,4a.68.68,0,0,0-.71.71.7.7,0,0,0,.2.5.69.69,0,0,0,.51.21.72.72,0,0,0,.71-.71.69.69,0,0,0-.21-.51A.7.7,0,0,0,199.43,4Z"/><path class="cls-18" d="M195.67,22.66a.7.7,0,0,0-1,0,.67.67,0,0,0-.21.5.69.69,0,0,0,.21.51.73.73,0,0,0,1,0,.69.69,0,0,0,.21-.51A.67.67,0,0,0,195.67,22.66Z"/><path class="cls-18" d="M85,22.66a.7.7,0,0,0-1,0,.7.7,0,0,0-.21.5.69.69,0,0,0,.21.51.73.73,0,0,0,1,0,.69.69,0,0,0,.21-.51A.7.7,0,0,0,85,22.66Z"/><path class="cls-19" d="M190.91,23.87a.7.7,0,0,0-.7.71.65.65,0,0,0,.2.5.71.71,0,0,0,1,0,.65.65,0,0,0,.2-.5.7.7,0,0,0-.71-.71Z"/><path class="cls-18" d="M190,22.66a.71.71,0,0,0-1,1,.74.74,0,0,0,1,0,.69.69,0,0,0,.21-.51A.7.7,0,0,0,190,22.66Z"/><path class="cls-19" d="M196.59,23.87a.72.72,0,1,0,.5.21A.66.66,0,0,0,196.59,23.87Z"/><path class="cls-19" d="M193.75,23.87a.67.67,0,0,0-.5.21.7.7,0,0,0,0,1,.67.67,0,0,0,.5.21.69.69,0,0,0,.51-.21.72.72,0,0,0,0-1A.69.69,0,0,0,193.75,23.87Z"/><path class="cls-19" d="M188.08,23.87a.69.69,0,0,0-.51.21.74.74,0,0,0-.2.5.69.69,0,0,0,.2.5.69.69,0,0,0,.51.21.67.67,0,0,0,.5-.21.66.66,0,0,0,.21-.5.7.7,0,0,0-.21-.5A.67.67,0,0,0,188.08,23.87Z"/><path class="cls-10" d="M57,16.57a.7.7,0,0,0,1,0,.67.67,0,0,0,.21-.5.69.69,0,0,0-.21-.51.72.72,0,0,0-1,0,.69.69,0,0,0-.21.51A.67.67,0,0,0,57,16.57Z"/><path class="cls-12" d="M72.64,6.64a.69.69,0,0,0,.51.2.66.66,0,0,0,.5-.2.71.71,0,0,0,0-1,.66.66,0,0,0-.5-.2.69.69,0,0,0-.51.2.74.74,0,0,0,0,1Z"/><path class="cls-13" d="M71.73,5.43a.66.66,0,0,0,.5-.21.67.67,0,0,0,.21-.5.69.69,0,0,0-.21-.51.73.73,0,0,0-1,0,.69.69,0,0,0-.21.51.67.67,0,0,0,.21.5A.66.66,0,0,0,71.73,5.43Z"/><path class="cls-9" d="M75.07,7.05a.67.67,0,0,0-.5-.21.69.69,0,0,0-.51.21.71.71,0,0,0,.51,1.21.7.7,0,0,0,.5-.2.71.71,0,0,0,0-1Z"/><path class="cls-8" d="M75.07,12.73a.67.67,0,0,0-.5-.21.69.69,0,0,0-.51.21.72.72,0,0,0-.2.5.69.69,0,0,0,.2.5.69.69,0,0,0,.51.21.67.67,0,0,0,.5-.21.66.66,0,0,0,.21-.5A.69.69,0,0,0,75.07,12.73Z"/><path class="cls-12" d="M67,6.64a.66.66,0,0,0,.5.2.69.69,0,0,0,.51-.2.73.73,0,0,0,.2-.51.71.71,0,0,0-.2-.49.69.69,0,0,0-.51-.21.67.67,0,0,0-.5.21.68.68,0,0,0-.21.49A.69.69,0,0,0,67,6.64Z"/><path class="cls-12" d="M69.81,6.64a.72.72,0,0,0,1,0,.71.71,0,0,0,0-1,.73.73,0,0,0-1,0,.71.71,0,0,0,0,1Z"/><path class="cls-13" d="M68.89,5.43a.66.66,0,0,0,.5-.21.67.67,0,0,0,.21-.5.69.69,0,0,0-.21-.51.73.73,0,0,0-1,0,.69.69,0,0,0-.21.51.67.67,0,0,0,.21.5A.66.66,0,0,0,68.89,5.43Z"/><path class="cls-8" d="M72.23,12.73a.7.7,0,0,0-1,0,.69.69,0,0,0-.21.5.71.71,0,0,0,1.42,0A.69.69,0,0,0,72.23,12.73Z"/><path class="cls-13" d="M66.05,5.43a.69.69,0,0,0,.51-.21.7.7,0,0,0,.2-.5.72.72,0,0,0-.2-.5A.69.69,0,0,0,66.05,4a.67.67,0,0,0-.5.21.69.69,0,0,0-.21.5.72.72,0,0,0,.71.71Z"/><path class="cls-5" d="M71.73,21a.66.66,0,0,0-.5.21.67.67,0,0,0-.21.5.69.69,0,0,0,.21.51.73.73,0,0,0,1,0,.69.69,0,0,0,.21-.51.67.67,0,0,0-.21-.5A.66.66,0,0,0,71.73,21Z"/><path class="cls-10" d="M72.23,15.57a.7.7,0,0,0-1,0,.69.69,0,0,0-.21.5.67.67,0,0,0,.21.5.7.7,0,0,0,1,0,.67.67,0,0,0,.21-.5A.69.69,0,0,0,72.23,15.57Z"/><path class="cls-9" d="M71.73,8.26a.69.69,0,0,0,.5-.2.71.71,0,0,0,0-1,.7.7,0,0,0-1,0,.71.71,0,0,0,.5,1.21Z"/><path class="cls-10" d="M75.07,15.57a.67.67,0,0,0-.5-.21.69.69,0,0,0-.51.21.72.72,0,0,0-.2.5.7.7,0,0,0,.2.5.69.69,0,0,0,.51.21.72.72,0,0,0,.71-.71A.69.69,0,0,0,75.07,15.57Z"/><path class="cls-17" d="M73.15,15.36a.67.67,0,0,0,.5-.21.66.66,0,0,0,.21-.5.69.69,0,0,0-.21-.5.67.67,0,0,0-.5-.21.69.69,0,0,0-.51.21.72.72,0,0,0-.2.5.69.69,0,0,0,.2.5A.69.69,0,0,0,73.15,15.36Z"/><path class="cls-5" d="M74.57,21a.69.69,0,0,0-.51.21.7.7,0,0,0-.2.5.68.68,0,0,0,.71.71.7.7,0,0,0,.5-.2.69.69,0,0,0,.21-.51.72.72,0,0,0-.71-.71Z"/><path class="cls-8" d="M66.05,13.94a.69.69,0,0,0,.51-.21.69.69,0,0,0,.2-.5.72.72,0,0,0-.2-.5.69.69,0,0,0-.51-.21.67.67,0,0,0-.5.21.69.69,0,0,0-.21.5.66.66,0,0,0,.21.5A.67.67,0,0,0,66.05,13.94Z"/><path class="cls-9" d="M57.54,8.26a.69.69,0,0,0,.5-.2.71.71,0,0,0,0-1,.7.7,0,0,0-1,0,.71.71,0,0,0,.5,1.21Z"/><path class="cls-5" d="M57.54,21a.66.66,0,0,0-.5.21.67.67,0,0,0-.21.5.69.69,0,0,0,.21.51.72.72,0,0,0,1,0,.69.69,0,0,0,.21-.51.67.67,0,0,0-.21-.5A.66.66,0,0,0,57.54,21Z"/><path class="cls-7" d="M57,10.9a.73.73,0,0,0,1,0,.69.69,0,0,0,.21-.51.67.67,0,0,0-.21-.5.7.7,0,0,0-1,0,.67.67,0,0,0-.21.5A.69.69,0,0,0,57,10.9Z"/><path class="cls-9" d="M66.05,8.26a.68.68,0,0,0,.71-.71.7.7,0,0,0-.2-.49.7.7,0,0,0-.51-.22.68.68,0,0,0-.5.22.67.67,0,0,0-.21.49.69.69,0,0,0,.21.51A.7.7,0,0,0,66.05,8.26Z"/><path class="cls-15" d="M84.5,9.68a.69.69,0,0,0,.5-.2A.69.69,0,0,0,85.21,9,.67.67,0,0,0,85,8.48a.68.68,0,0,0-1,0,.67.67,0,0,0-.21.49.69.69,0,0,0,.21.51A.69.69,0,0,0,84.5,9.68Z"/><path class="cls-14" d="M59.46,17a.73.73,0,0,0-1,0,.71.71,0,0,0,0,1,.7.7,0,0,0,1,0,.71.71,0,0,0,0-1Z"/><path class="cls-11" d="M59,21a.69.69,0,0,0,.5-.2.69.69,0,0,0,.21-.51.67.67,0,0,0-.21-.5.7.7,0,0,0-1,0,.67.67,0,0,0-.21.5.69.69,0,0,0,.21.51A.69.69,0,0,0,59,21Z"/><path class="cls-8" d="M57,13.73a.7.7,0,1,0-.21-.5A.66.66,0,0,0,57,13.73Z"/><path class="cls-10" d="M66.05,16.78a.69.69,0,0,0,.51-.21.7.7,0,0,0,.2-.5.72.72,0,0,0-.2-.5.69.69,0,0,0-.51-.21.67.67,0,0,0-.5.21.69.69,0,0,0-.21.5.72.72,0,0,0,.71.71Z"/><path class="cls-17" d="M70.31,15.36a.72.72,0,0,0,.71-.71.69.69,0,0,0-.21-.5.7.7,0,0,0-1,0,.69.69,0,0,0-.21.5.72.72,0,0,0,.71.71Z"/><path class="cls-7" d="M66.05,11.1a.68.68,0,0,0,.71-.71.74.74,0,0,0-.2-.5.69.69,0,0,0-.51-.21.67.67,0,0,0-.5.21.7.7,0,0,0-.21.5.69.69,0,0,0,.21.51A.7.7,0,0,0,66.05,11.1Z"/><path class="cls-6" d="M66.05,19.61a.69.69,0,0,0,.51-.2.73.73,0,0,0,.2-.51.71.71,0,0,0-.2-.49.69.69,0,0,0-.51-.21.67.67,0,0,0-.5.21.68.68,0,0,0-.21.49.69.69,0,0,0,.21.51A.66.66,0,0,0,66.05,19.61Z"/><path class="cls-12" d="M58.46,6.64a.72.72,0,0,0,1,0,.71.71,0,0,0,0-1,.73.73,0,0,0-1,0,.71.71,0,0,0,0,1Z"/><path class="cls-6" d="M58,18.4a.73.73,0,0,0-1,0,.71.71,0,0,0,0,1,.72.72,0,0,0,1,0,.71.71,0,0,0,0-1Z"/><path class="cls-5" d="M66.05,22.45a.68.68,0,0,0,.71-.71.7.7,0,0,0-.2-.49.67.67,0,0,0-.51-.22.65.65,0,0,0-.5.22.67.67,0,0,0-.21.49.69.69,0,0,0,.21.51A.7.7,0,0,0,66.05,22.45Z"/><path class="cls-13" d="M74.57,5.43a.72.72,0,0,0,.71-.71.69.69,0,0,0-.21-.51.7.7,0,0,0-.5-.2.68.68,0,0,0-.71.71.7.7,0,0,0,.2.5A.69.69,0,0,0,74.57,5.43Z"/><path class="cls-12" d="M84,6.64a.72.72,0,0,0,1,0,.69.69,0,0,0,.21-.51A.68.68,0,0,0,85,5.64a.7.7,0,0,0-1,0,.68.68,0,0,0-.21.49A.69.69,0,0,0,84,6.64Z"/><path class="cls-10" d="M83.08,16.78a.66.66,0,0,0,.5-.21.67.67,0,0,0,.21-.5.69.69,0,0,0-.21-.5.7.7,0,0,0-1,0,.69.69,0,0,0-.21.5.67.67,0,0,0,.21.5A.66.66,0,0,0,83.08,16.78Z"/><path class="cls-13" d="M83.08,5.43a.66.66,0,0,0,.5-.21.67.67,0,0,0,.21-.5.69.69,0,0,0-.21-.5.7.7,0,0,0-1,0,.69.69,0,0,0-.21.5.67.67,0,0,0,.21.5A.66.66,0,0,0,83.08,5.43Z"/><path class="cls-7" d="M83.08,11.1a.69.69,0,0,0,.5-.2.69.69,0,0,0,.21-.51.7.7,0,0,0-.21-.5.7.7,0,0,0-1,0,.7.7,0,0,0-.21.5.69.69,0,0,0,.21.51A.69.69,0,0,0,83.08,11.1Z"/><path class="cls-8" d="M83.08,13.94a.72.72,0,0,0,.71-.71.69.69,0,0,0-.21-.5.7.7,0,0,0-1,0,.69.69,0,0,0-.21.5.72.72,0,0,0,.71.71Z"/><path class="cls-8" d="M69.39,12.73a.7.7,0,0,0-1,0,.69.69,0,0,0-.21.5.71.71,0,0,0,1.42,0A.69.69,0,0,0,69.39,12.73Z"/><path class="cls-7" d="M86.42,9.89a.67.67,0,0,0-.5-.21.69.69,0,0,0-.51.21.74.74,0,0,0-.2.5.68.68,0,0,0,.71.71.7.7,0,0,0,.5-.2.69.69,0,0,0,.21-.51A.7.7,0,0,0,86.42,9.89Z"/><path class="cls-9" d="M86.42,7.06a.68.68,0,0,0-.5-.22.7.7,0,0,0-.51.22.7.7,0,0,0-.2.49.68.68,0,0,0,.71.71.7.7,0,0,0,.5-.2.69.69,0,0,0,.21-.51A.67.67,0,0,0,86.42,7.06Z"/><path class="cls-14" d="M84,18a.7.7,0,0,0,1,0,.7.7,0,0,0,0-1,.7.7,0,0,0-1,0,.7.7,0,0,0,0,1Z"/><path class="cls-17" d="M84,15.15a.71.71,0,0,0,1.21-.5.69.69,0,0,0-.21-.5.7.7,0,0,0-1,0,.69.69,0,0,0-.21.5A.66.66,0,0,0,84,15.15Z"/><path class="cls-11" d="M84,20.83a.72.72,0,0,0,1,0,.69.69,0,0,0,.21-.51.71.71,0,0,0-1.42,0A.69.69,0,0,0,84,20.83Z"/><path class="cls-5" d="M85.92,22.45a.7.7,0,0,0,.5-.2.69.69,0,0,0,.21-.51.67.67,0,0,0-.21-.49.65.65,0,0,0-.5-.22.67.67,0,0,0-.51.22.7.7,0,0,0-.2.49.68.68,0,0,0,.71.71Z"/><path class="cls-8" d="M86.42,12.73a.67.67,0,0,0-.5-.21.69.69,0,0,0-.51.21.72.72,0,0,0-.2.5.69.69,0,0,0,.2.5.69.69,0,0,0,.51.21.67.67,0,0,0,.5-.21.66.66,0,0,0,.21-.5A.69.69,0,0,0,86.42,12.73Z"/><path class="cls-10" d="M86.42,15.57a.67.67,0,0,0-.5-.21.69.69,0,0,0-.51.21.72.72,0,0,0-.2.5.7.7,0,0,0,.2.5.69.69,0,0,0,.51.21.72.72,0,0,0,.71-.71A.69.69,0,0,0,86.42,15.57Z"/><path class="cls-6" d="M86.42,18.41a.67.67,0,0,0-.5-.21.69.69,0,0,0-.51.21.71.71,0,0,0-.2.49.73.73,0,0,0,.2.51.69.69,0,0,0,.51.2.66.66,0,0,0,.5-.2.69.69,0,0,0,.21-.51A.68.68,0,0,0,86.42,18.41Z"/><path class="cls-9" d="M83.08,8.26a.69.69,0,0,0,.5-.2.69.69,0,0,0,.21-.51.71.71,0,0,0-1.42,0,.69.69,0,0,0,.21.51A.69.69,0,0,0,83.08,8.26Z"/><path class="cls-14" d="M67,18a.67.67,0,0,0,.5.21A.69.69,0,0,0,68,18a.72.72,0,0,0,0-1,.69.69,0,0,0-.51-.21A.67.67,0,0,0,67,17a.7.7,0,0,0,0,1Z"/><path class="cls-17" d="M67,15.15a.67.67,0,0,0,.5.21.69.69,0,0,0,.51-.21.69.69,0,0,0,.2-.5.72.72,0,0,0-.2-.5.69.69,0,0,0-.51-.21.67.67,0,0,0-.5.21.69.69,0,0,0-.21.5A.66.66,0,0,0,67,15.15Z"/><path class="cls-11" d="M67,20.83a.7.7,0,0,0,.5.2.68.68,0,0,0,.71-.71.7.7,0,0,0-.2-.49.7.7,0,0,0-.51-.22.68.68,0,0,0-.5.22.67.67,0,0,0-.21.49A.69.69,0,0,0,67,20.83Z"/><path class="cls-10" d="M69.39,15.57a.7.7,0,0,0-1,0,.69.69,0,0,0-.21.5.67.67,0,0,0,.21.5.7.7,0,0,0,1,0,.67.67,0,0,0,.21-.5A.69.69,0,0,0,69.39,15.57Z"/><path class="cls-16" d="M67,12.31a.67.67,0,0,0,.5.21.69.69,0,0,0,.51-.21.69.69,0,0,0,.2-.5.74.74,0,0,0-.2-.5.69.69,0,0,0-.51-.21.67.67,0,0,0-.5.21.7.7,0,0,0-.21.5A.66.66,0,0,0,67,12.31Z"/><path class="cls-5" d="M68.89,22.45a.69.69,0,0,0,.5-.2.69.69,0,0,0,.21-.51.67.67,0,0,0-.21-.49.68.68,0,0,0-1,0,.67.67,0,0,0-.21.49.69.69,0,0,0,.21.51A.69.69,0,0,0,68.89,22.45Z"/><path class="cls-6" d="M69.39,18.41a.7.7,0,0,0-1,0,.68.68,0,0,0-.21.49.69.69,0,0,0,.21.51.73.73,0,0,0,1,0,.69.69,0,0,0,.21-.51A.68.68,0,0,0,69.39,18.41Z"/><path class="cls-17" d="M59.46,14.14a.73.73,0,0,0-1,0,.69.69,0,0,0-.21.51.71.71,0,0,0,1.42,0A.69.69,0,0,0,59.46,14.14Z"/><path class="cls-12" d="M75.48,6.64a.69.69,0,0,0,.51.2.68.68,0,0,0,.5-.2.71.71,0,0,0,0-1,.68.68,0,0,0-.5-.2.69.69,0,0,0-.51.2.68.68,0,0,0-.2.5A.69.69,0,0,0,75.48,6.64Z"/><path class="cls-6" d="M83.08,19.61a.65.65,0,0,0,.5-.2.69.69,0,0,0,.21-.51.68.68,0,0,0-.21-.49.7.7,0,0,0-1,0,.68.68,0,0,0-.21.49.69.69,0,0,0,.21.51A.65.65,0,0,0,83.08,19.61Z"/><path class="cls-5" d="M83.08,22.45a.69.69,0,0,0,.5-.2.69.69,0,0,0,.21-.51.67.67,0,0,0-.21-.49.68.68,0,0,0-1,0,.67.67,0,0,0-.21.49.69.69,0,0,0,.21.51A.69.69,0,0,0,83.08,22.45Z"/><path class="cls-7" d="M68.39,10.9a.73.73,0,0,0,1,0,.69.69,0,0,0,.21-.51.7.7,0,0,0-.21-.5.7.7,0,0,0-1,0,.7.7,0,0,0-.21.5A.69.69,0,0,0,68.39,10.9Z"/><path class="cls-15" d="M67.47,8.26a.65.65,0,0,0-.5.22.67.67,0,0,0-.21.49.69.69,0,0,0,.21.51.7.7,0,0,0,.5.2A.68.68,0,0,0,68.18,9a.7.7,0,0,0-.2-.49A.67.67,0,0,0,67.47,8.26Z"/><path class="cls-9" d="M68.89,8.26a.69.69,0,0,0,.5-.2.69.69,0,0,0,.21-.51.71.71,0,0,0-1.42,0,.69.69,0,0,0,.21.51A.69.69,0,0,0,68.89,8.26Z"/><path class="cls-9" d="M77.4,6.84a.69.69,0,0,0-.5.21.68.68,0,0,0-.2.5.69.69,0,0,0,.2.51.74.74,0,0,0,1,0,.69.69,0,0,0,.2-.51.68.68,0,0,0-.2-.5A.69.69,0,0,0,77.4,6.84Z"/><path class="cls-8" d="M46.19,12.52a.66.66,0,0,0-.5.21.69.69,0,0,0-.21.5.71.71,0,0,0,1.42,0,.69.69,0,0,0-.21-.5A.66.66,0,0,0,46.19,12.52Z"/><path class="cls-18" d="M59.46,22.66a.7.7,0,0,0-1,0,.67.67,0,0,0-.21.5.69.69,0,0,0,.21.51.72.72,0,0,0,1,0,.69.69,0,0,0,.21-.51A.67.67,0,0,0,59.46,22.66Z"/><path class="cls-7" d="M60.38,9.68a.69.69,0,0,0-.51.21.7.7,0,0,0-.2.5.68.68,0,0,0,.71.71.7.7,0,0,0,.5-.2.69.69,0,0,0,.21-.51.72.72,0,0,0-.71-.71Z"/><path class="cls-19" d="M57.54,23.87a.72.72,0,1,0,.5.21A.66.66,0,0,0,57.54,23.87Z"/><path class="cls-6" d="M60.38,18.2a.69.69,0,0,0-.51.2.74.74,0,0,0,0,1,.69.69,0,0,0,.51.2.66.66,0,0,0,.5-.2.71.71,0,0,0,0-1A.66.66,0,0,0,60.38,18.2Z"/><path class="cls-8" d="M60.38,12.52a.69.69,0,0,0-.51.21.73.73,0,0,0,0,1,.69.69,0,0,0,.51.21.67.67,0,0,0,.5-.21.7.7,0,0,0,0-1A.67.67,0,0,0,60.38,12.52Z"/><path class="cls-10" d="M60.38,15.36a.68.68,0,0,0-.71.71.7.7,0,0,0,.2.5.69.69,0,0,0,.51.21.72.72,0,0,0,.71-.71.69.69,0,0,0-.21-.51A.7.7,0,0,0,60.38,15.36Z"/><path class="cls-5" d="M60.38,21a.69.69,0,0,0-.51.21.7.7,0,0,0-.2.5.68.68,0,0,0,.71.71.7.7,0,0,0,.5-.2.69.69,0,0,0,.21-.51.72.72,0,0,0-.71-.71Z"/><path class="cls-15" d="M56.62,8.47a.7.7,0,0,0-1,0,.67.67,0,0,0-.21.5.69.69,0,0,0,.21.51.73.73,0,0,0,1,0A.69.69,0,0,0,56.83,9,.67.67,0,0,0,56.62,8.47Z"/><path class="cls-15" d="M48.11,8.48a.65.65,0,0,0-.5-.22.67.67,0,0,0-.51.22.7.7,0,0,0-.2.49.68.68,0,0,0,.71.71.7.7,0,0,0,.5-.2A.69.69,0,0,0,48.32,9,.67.67,0,0,0,48.11,8.48Z"/><path class="cls-7" d="M46.19,9.68a.66.66,0,0,0-.5.21.7.7,0,0,0-.21.5.69.69,0,0,0,.21.51.72.72,0,0,0,1,0,.69.69,0,0,0,.21-.51.7.7,0,0,0-.21-.5A.66.66,0,0,0,46.19,9.68Z"/><path class="cls-7" d="M49.53,9.89a.67.67,0,0,0-.5-.21.69.69,0,0,0-.51.21.74.74,0,0,0-.2.5.68.68,0,0,0,.71.71.7.7,0,0,0,.5-.2.69.69,0,0,0,.21-.51A.7.7,0,0,0,49.53,9.89Z"/><path class="cls-16" d="M51,11.31a.71.71,0,0,0-1.21.5.65.65,0,0,0,.2.5.71.71,0,0,0,1,0,.66.66,0,0,0,.21-.5A.7.7,0,0,0,51,11.31Z"/><path class="cls-7" d="M54.7,9.68a.72.72,0,0,0-.71.71.69.69,0,0,0,.21.51.7.7,0,0,0,.5.2.68.68,0,0,0,.71-.71.7.7,0,0,0-.2-.5A.69.69,0,0,0,54.7,9.68Z"/><path class="cls-8" d="M51.86,12.52a.69.69,0,0,0-.5.21.72.72,0,0,0,0,1,.71.71,0,0,0,1,0,.72.72,0,0,0,0-1A.69.69,0,0,0,51.86,12.52Z"/><path class="cls-19" d="M60.38,23.87a.69.69,0,0,0-.51.21.73.73,0,0,0,0,1,.69.69,0,0,0,.51.21.67.67,0,0,0,.5-.21.7.7,0,0,0,0-1A.67.67,0,0,0,60.38,23.87Z"/><path class="cls-19" d="M77.4,23.87a.69.69,0,0,0-.5.21.72.72,0,0,0,0,1,.71.71,0,0,0,1,0,.72.72,0,0,0,0-1A.69.69,0,0,0,77.4,23.87Z"/><path class="cls-18" d="M76.49,22.66a.71.71,0,0,0-1,0,.66.66,0,0,0-.2.5.69.69,0,0,0,.2.51.74.74,0,0,0,1,0,.69.69,0,0,0,.21-.51A.67.67,0,0,0,76.49,22.66Z"/><path class="cls-19" d="M74.57,23.87a.69.69,0,0,0-.51.21.72.72,0,0,0,0,1,.69.69,0,0,0,.51.21.67.67,0,0,0,.5-.21.7.7,0,0,0,0-1A.67.67,0,0,0,74.57,23.87Z"/><path class="cls-18" d="M73.65,22.66a.67.67,0,0,0-.5-.21.69.69,0,0,0-.51.21.7.7,0,0,0-.2.5.68.68,0,0,0,.71.71.7.7,0,0,0,.5-.2.69.69,0,0,0,.21-.51A.67.67,0,0,0,73.65,22.66Z"/><path class="cls-13" d="M77.4,4a.72.72,0,0,0-.5.2.69.69,0,0,0-.2.51.66.66,0,0,0,.2.5.71.71,0,0,0,1,0,.66.66,0,0,0,.2-.5.69.69,0,0,0-.2-.51A.73.73,0,0,0,77.4,4Z"/><path class="cls-19" d="M83.08,23.87a.66.66,0,0,0-.5.21.7.7,0,0,0-.21.5.71.71,0,0,0,1.42,0,.7.7,0,0,0-.21-.5A.66.66,0,0,0,83.08,23.87Z"/><path class="cls-5" d="M77.4,21a.69.69,0,0,0-.5.21.66.66,0,0,0-.2.5.69.69,0,0,0,.2.51.74.74,0,0,0,1,0,.69.69,0,0,0,.2-.51.66.66,0,0,0-.2-.5A.69.69,0,0,0,77.4,21Z"/><path class="cls-9" d="M60.38,6.84a.69.69,0,0,0-.51.21.71.71,0,0,0,.51,1.21.7.7,0,0,0,.5-.2.71.71,0,0,0,0-1A.67.67,0,0,0,60.38,6.84Z"/><path class="cls-19" d="M71.73,23.87a.72.72,0,1,0,.5.21A.66.66,0,0,0,71.73,23.87Z"/><path class="cls-18" d="M68,22.66a.69.69,0,0,0-.51-.21.67.67,0,0,0-.5.21.7.7,0,0,0-.21.5.69.69,0,0,0,.21.51.7.7,0,0,0,.5.2.68.68,0,0,0,.71-.71A.74.74,0,0,0,68,22.66Z"/><path class="cls-13" d="M60.38,4a.68.68,0,0,0-.71.71.7.7,0,0,0,.2.5.69.69,0,0,0,.51.21.72.72,0,0,0,.71-.71.69.69,0,0,0-.21-.51A.7.7,0,0,0,60.38,4Z"/><path class="cls-19" d="M66.05,23.87a.67.67,0,0,0-.5.21.7.7,0,0,0-.21.5.66.66,0,0,0,.21.5.67.67,0,0,0,.5.21.69.69,0,0,0,.51-.21.69.69,0,0,0,.2-.5.74.74,0,0,0-.2-.5A.69.69,0,0,0,66.05,23.87Z"/><path class="cls-18" d="M70.81,22.66a.7.7,0,0,0-1,0,.67.67,0,0,0-.21.5.69.69,0,0,0,.21.51.73.73,0,0,0,1,0,.69.69,0,0,0,.21-.51A.67.67,0,0,0,70.81,22.66Z"/><path class="cls-19" d="M68.89,23.87a.66.66,0,0,0-.5.21.7.7,0,0,0-.21.5.71.71,0,0,0,1.42,0,.7.7,0,0,0-.21-.5A.66.66,0,0,0,68.89,23.87Z"/><path class="cls-16" d="M59.46,11.31a.7.7,0,1,0,.21.5A.66.66,0,0,0,59.46,11.31Z"/><path class="cls-13" d="M46.19,5.43a.66.66,0,0,0,.5-.21.67.67,0,0,0,.21-.5.69.69,0,0,0-.21-.51.73.73,0,0,0-1,0,.69.69,0,0,0-.21.51.67.67,0,0,0,.21.5A.66.66,0,0,0,46.19,5.43Z"/><path class="cls-12" d="M47.1,6.64a.69.69,0,0,0,.51.2.66.66,0,0,0,.5-.2.69.69,0,0,0,.21-.51.68.68,0,0,0-.21-.49.67.67,0,0,0-.5-.21.69.69,0,0,0-.51.21.71.71,0,0,0-.2.49A.73.73,0,0,0,47.1,6.64Z"/><path class="cls-9" d="M46.19,6.84a.74.74,0,0,0-.71.71.69.69,0,0,0,.21.51.72.72,0,0,0,1,0,.69.69,0,0,0,.21-.51.74.74,0,0,0-.71-.71Z"/><path class="cls-9" d="M48.52,8.06a.73.73,0,0,0,.51.2.7.7,0,0,0,.5-.2.69.69,0,0,0,.21-.51.67.67,0,0,0-.21-.49.68.68,0,0,0-.5-.22.7.7,0,0,0-.51.22.7.7,0,0,0-.2.49A.73.73,0,0,0,48.52,8.06Z"/><path class="cls-12" d="M44.27,6.64a.72.72,0,0,0,1,0,.69.69,0,0,0,.21-.51.68.68,0,0,0-.21-.49.7.7,0,0,0-1,0,.68.68,0,0,0-.21.49A.69.69,0,0,0,44.27,6.64Z"/><path class="cls-11" d="M44.77,19.61a.74.74,0,0,0-.71.71.69.69,0,0,0,.21.51.72.72,0,0,0,1,0,.69.69,0,0,0,.21-.51.74.74,0,0,0-.71-.71Z"/><path class="cls-14" d="M45.27,17a.7.7,0,0,0-1,0,.7.7,0,0,0,0,1,.7.7,0,0,0,1,0,.7.7,0,0,0,0-1Z"/><path class="cls-7" d="M51.36,10.9a.74.74,0,0,0,1,0,.69.69,0,0,0,.2-.51.71.71,0,1,0-1.41,0A.69.69,0,0,0,51.36,10.9Z"/><path class="cls-12" d="M56.12,6.84a.65.65,0,0,0,.5-.2.71.71,0,0,0,0-1,.73.73,0,0,0-1,0,.71.71,0,0,0,0,1A.65.65,0,0,0,56.12,6.84Z"/><path class="cls-13" d="M57.54,5.43a.74.74,0,0,0,.71-.71A.69.69,0,0,0,58,4.21a.73.73,0,0,0-1,0,.69.69,0,0,0-.21.51.74.74,0,0,0,.71.71Z"/><path class="cls-15" d="M49.94,9.48a.74.74,0,0,0,1,0A.69.69,0,0,0,51.16,9a.71.71,0,0,0-1.22-.49.66.66,0,0,0-.2.49A.69.69,0,0,0,49.94,9.48Z"/><path class="cls-15" d="M59.46,8.47a.7.7,0,0,0-1,0,.67.67,0,0,0-.21.5.69.69,0,0,0,.21.51.73.73,0,0,0,1,0A.69.69,0,0,0,59.67,9,.67.67,0,0,0,59.46,8.47Z"/><path class="cls-10" d="M46.19,15.36a.66.66,0,0,0-.5.21.69.69,0,0,0-.21.5.67.67,0,0,0,.21.5.7.7,0,0,0,1,0,.67.67,0,0,0,.21-.5.69.69,0,0,0-.21-.5A.66.66,0,0,0,46.19,15.36Z"/><path class="cls-15" d="M53.28,9.68A.68.68,0,0,0,54,9a.7.7,0,0,0-.2-.5.69.69,0,0,0-.51-.21.72.72,0,0,0-.71.71.69.69,0,0,0,.21.51A.7.7,0,0,0,53.28,9.68Z"/><path class="cls-9" d="M54.7,8.26a.71.71,0,0,0,.51-1.21.69.69,0,0,0-.51-.21.67.67,0,0,0-.5.21.71.71,0,0,0,0,1A.7.7,0,0,0,54.7,8.26Z"/><path class="cls-17" d="M45.27,14.15a.7.7,0,0,0-1,0,.69.69,0,0,0-.21.5.71.71,0,0,0,1.42,0A.69.69,0,0,0,45.27,14.15Z"/><path class="cls-18" d="M45.27,22.66a.7.7,0,0,0-1,0,.7.7,0,0,0-.21.5.69.69,0,0,0,.21.51.72.72,0,0,0,1,0,.69.69,0,0,0,.21-.51A.7.7,0,0,0,45.27,22.66Z"/><path class="cls-19" d="M43.35,23.87a.66.66,0,0,0-.5.21.7.7,0,0,0-.21.5.72.72,0,0,0,.71.71.69.69,0,0,0,.51-.21.69.69,0,0,0,.2-.5.74.74,0,0,0-.2-.5A.69.69,0,0,0,43.35,23.87Z"/><path class="cls-5" d="M43.35,22.45a.68.68,0,0,0,.71-.71.7.7,0,0,0-.2-.49.67.67,0,0,0-.51-.22.63.63,0,0,0-.5.22.67.67,0,0,0-.21.49.69.69,0,0,0,.21.51A.69.69,0,0,0,43.35,22.45Z"/><path class="cls-6" d="M46.19,18.2a.66.66,0,0,0-.5.21.68.68,0,0,0-.21.49.69.69,0,0,0,.21.51.72.72,0,0,0,1,0,.69.69,0,0,0,.21-.51.68.68,0,0,0-.21-.49A.66.66,0,0,0,46.19,18.2Z"/><path class="cls-19" d="M46.19,23.87a.66.66,0,0,0-.5.21.7.7,0,0,0-.21.5.71.71,0,0,0,1.42,0,.7.7,0,0,0-.21-.5A.66.66,0,0,0,46.19,23.87Z"/><path class="cls-6" d="M43.35,19.61a.69.69,0,0,0,.51-.2.73.73,0,0,0,.2-.51.71.71,0,0,0-.2-.49.69.69,0,0,0-.51-.21.66.66,0,0,0-.5.21.68.68,0,0,0-.21.49.69.69,0,0,0,.21.51A.65.65,0,0,0,43.35,19.61Z"/><path class="cls-5" d="M46.19,21a.63.63,0,0,0-.5.22.67.67,0,0,0-.21.49.69.69,0,0,0,.21.51.72.72,0,0,0,1,0,.69.69,0,0,0,.21-.51.67.67,0,0,0-.21-.49A.63.63,0,0,0,46.19,21Z"/><path class="cls-16" d="M45.27,11.31a.7.7,0,0,0-1,0,.7.7,0,0,0-.21.5.71.71,0,0,0,1.42,0A.7.7,0,0,0,45.27,11.31Z"/><path class="cls-9" d="M43.35,8.26a.68.68,0,0,0,.71-.71.7.7,0,0,0-.2-.49.7.7,0,0,0-.51-.22.74.74,0,0,0-.71.71.69.69,0,0,0,.21.51A.69.69,0,0,0,43.35,8.26Z"/><path class="cls-13" d="M43.35,5.43a.69.69,0,0,0,.51-.21.7.7,0,0,0,.2-.5.72.72,0,0,0-.2-.5A.69.69,0,0,0,43.35,4a.66.66,0,0,0-.5.21.69.69,0,0,0-.21.5.67.67,0,0,0,.21.5A.66.66,0,0,0,43.35,5.43Z"/><path class="cls-10" d="M43.35,16.78a.69.69,0,0,0,.51-.21.7.7,0,0,0,.2-.5.72.72,0,0,0-.2-.5.69.69,0,0,0-.51-.21.66.66,0,0,0-.5.21.69.69,0,0,0-.21.5.67.67,0,0,0,.21.5A.66.66,0,0,0,43.35,16.78Z"/><path class="cls-15" d="M45.27,8.48a.68.68,0,0,0-1,0,.67.67,0,0,0-.21.49.69.69,0,0,0,.21.51.72.72,0,0,0,1,0A.69.69,0,0,0,45.48,9,.67.67,0,0,0,45.27,8.48Z"/><path class="cls-8" d="M43.35,13.94a.69.69,0,0,0,.51-.21.69.69,0,0,0,.2-.5.72.72,0,0,0-.2-.5.69.69,0,0,0-.51-.21.66.66,0,0,0-.5.21.69.69,0,0,0-.21.5.72.72,0,0,0,.71.71Z"/><path class="cls-7" d="M43.35,11.1a.68.68,0,0,0,.71-.71.74.74,0,0,0-.2-.5.69.69,0,0,0-.51-.21.66.66,0,0,0-.5.21.7.7,0,0,0-.21.5.69.69,0,0,0,.21.51A.69.69,0,0,0,43.35,11.1Z"/></g></g></svg>